<ttFont>
          <CharString index="0">
            59 17 -23 -60 hvcurveto
            -56 vlineto
            -59 -17 -24 -59 vhcurveto
            -18 hlineto
            -59 -18 24 59 hvcurveto
            56 vlineto
            60 18 23 59 vhcurveto
            return
          </CharString>
          <CharString index="1">
            -78 -37 -38 -80 hvcurveto
            -60 vlineto
            -79 37 -39 78 vhcurveto
            25 hlineto
            79 35 39 79 hvcurveto
            60 vlineto
            80 -35 38 -79 vhcurveto
            return
          </CharString>
          <CharString index="2">
            59 17 -23 -59 hvcurveto
            -57 vlineto
            -59 -17 -24 -59 vhcurveto
            -18 hlineto
            -59 -17 24 59 hvcurveto
            57 vlineto
            59 17 23 59 vhcurveto
            return
          </CharString>
          <CharString index="3">
            -79 -36 -38 -79 hvcurveto
            -60 vlineto
            -80 36 -39 79 vhcurveto
            25 hlineto
            78 36 39 80 hvcurveto
            60 vlineto
            79 -36 38 -78 vhcurveto
            return
          </CharString>
          <CharString index="4">
            9 -3 2 -7 vhcurveto
            -35 hlineto
            -7 -4 -2 -9 hvcurveto
            return
          </CharString>
          <CharString index="5">
            -224 vlineto
            -7 4 -2 4 vhcurveto
            4 0 3 2 1 5 rrcurveto
            29 91 rlineto
            return
          </CharString>
          <CharString index="6">
            7 24 4 15 0 18 rrcurveto
            return
          </CharString>
          <CharString index="7">
            9 -3 2 -7 vhcurveto
            -35 hlineto
            -7 -4 -2 -9 hvcurveto
            -119 vlineto
            -9 4 -3 7 vhcurveto
            35 hlineto
            7 3 3 9 hvcurveto
            return
          </CharString>
          <CharString index="8">
            8 -3 3 -7 vhcurveto
            -35 hlineto
            -7 -4 -3 -8 hvcurveto
            -120 vlineto
            -8 4 -3 7 vhcurveto
            35 hlineto
            7 3 3 8 hvcurveto
            return
          </CharString>
          <CharString index="9">
            9 -4 2 -6 vhcurveto
            -36 hlineto
            -7 -3 -2 -9 hvcurveto
            -119 vlineto
            -9 3 -3 7 vhcurveto
            36 hlineto
            6 4 3 9 hvcurveto
            return
          </CharString>
          <CharString index="10">
            7 0 3 3 3 9 rrcurveto
            54 160 262 0 54 -160 rlineto
            2 -9 4 -3 7 0 rrcurveto
            32 hlineto
            7 0 2 3 -2 9 rrcurveto
            -199 619 rlineto
            -3 9 -4 3 -7 0 rrcurveto
            -47 hlineto
            -7 0 -5 -3 -2 -9 rrcurveto
            -199 -619 rlineto
            -3 -9 3 -3 7 0 rrcurveto
            return
          </CharString>
          <CharString index="11">
            4 0 116 -371 -235 0 rlineto
            return
          </CharString>
          <CharString index="12">
            86 54 54 88 hvcurveto
            49 vlineto
            9 -3 3 -8 vhcurveto
            -28 hlineto
            -7 -4 -3 -9 hvcurveto
            -47 vlineto
            -63 -33 -36 -62 vhcurveto
            -117 hlineto
            -61 -33 36 63 hvcurveto
            355 vlineto
            63 33 36 61 vhcurveto
            117 hlineto
            62 33 -36 -63 hvcurveto
            -47 vlineto
            -9 4 -3 7 vhcurveto
            28 hlineto
            8 3 3 9 hvcurveto
            49 vlineto
            88 -54 54 -86 vhcurveto
            -126 hlineto
            -86 -54 -54 -88 hvcurveto
            -359 vlineto
            -88 54 -54 86 vhcurveto
            return
          </CharString>
          <CharString index="13">
            -7 -3 3 6 hvcurveto
            535 vlineto
            6 3 3 7 vhcurveto
            192 hlineto
            62 33 -36 -63 hvcurveto
            -355 vlineto
            -63 -33 -36 -62 vhcurveto
            return
          </CharString>
          <CharString index="14">
            -9 4 -3 6 vhcurveto
            247 hlineto
            86 54 54 88 hvcurveto
            359 vlineto
            88 -54 54 -86 vhcurveto
            -247 hlineto
            -6 -4 -3 -9 hvcurveto
            return
          </CharString>
          <CharString index="15">
            9 3 4 7 hvcurveto
            23 vlineto
            7 -3 4 -9 vhcurveto
            -259 hlineto
            -7 -3 3 6 hvcurveto
            242 vlineto
            6 3 3 7 vhcurveto
            231 hlineto
            8 3 4 7 hvcurveto
            23 vlineto
            7 -3 4 -8 vhcurveto
            -231 hlineto
            -7 -3 3 6 hvcurveto
            230 vlineto
            6 3 3 7 vhcurveto
            259 hlineto
            9 3 4 7 hvcurveto
            23 vlineto
            7 -3 4 -9 vhcurveto
            -309 hlineto
            -6 -4 -3 -9 hvcurveto
            -619 vlineto
            -9 4 -3 6 vhcurveto
            return
          </CharString>
          <CharString index="16">
            86 55 54 88 hvcurveto
            168 vlineto
            13 -8 7 -11 vhcurveto
            -156 hlineto
            -8 -3 -4 -7 hvcurveto
            -23 vlineto
            -7 3 -4 8 vhcurveto
            115 hlineto
            7 2 -3 -6 hvcurveto
            -132 vlineto
            -63 -32 -36 -62 vhcurveto
            -101 hlineto
            -61 -33 36 63 hvcurveto
            355 vlineto
            63 33 36 61 vhcurveto
            101 hlineto
            62 32 -36 -63 hvcurveto
            -43 vlineto
            -9 4 -3 7 vhcurveto
            29 hlineto
            7 4 3 9 hvcurveto
            45 vlineto
            88 -55 54 -86 vhcurveto
            -109 hlineto
            -86 -54 -54 -88 hvcurveto
            -359 vlineto
            -88 54 -54 86 vhcurveto
            return
          </CharString>
          <CharString index="17">
            9 -4 3 -7 vhcurveto
            -29 hlineto
            -6 -4 -3 -9 hvcurveto
            -619 vlineto
            -9 4 -3 6 vhcurveto
            29 hlineto
            7 4 3 9 hvcurveto
            return
          </CharString>
          <CharString index="18">
            -7 -4 -3 -9 hvcurveto
            -487 vlineto
            -63 -33 -36 -62 vhcurveto
            -91 hlineto
            -62 -32 36 63 hvcurveto
            81 vlineto
            8 -4 3 -7 vhcurveto
            -29 hlineto
            -7 -4 -3 -8 hvcurveto
            -83 vlineto
            -88 55 -54 86 vhcurveto
            100 hlineto
            86 54 54 88 hvcurveto
            490 vlineto
            8 -4 3 -7 vhcurveto
            return
          </CharString>
          <CharString index="19">
            7 4 3 9 hvcurveto
            0 188 103 124 208 -312 rlineto
            6 -10 6 -2 10 0 rrcurveto
            28 hlineto
            7 0 4 4 -5 8 rrcurveto
            -232 350 201 269 rlineto
            7 9 -4 3 -7 0 rrcurveto
            -35 hlineto
            -9 0 -4 -1 -8 -11 rrcurveto
            -254 -336 rlineto
            -5 -7 -9 -15 -4 -11 rrcurveto
            -4 369 hlineto
            9 -4 3 -7 vhcurveto
            -29 hlineto
            -6 -4 -3 -9 hvcurveto
            -619 vlineto
            -9 4 -3 6 vhcurveto
            return
          </CharString>
          <CharString index="20">
            9 3 4 7 hvcurveto
            25 vlineto
            7 -3 4 -9 vhcurveto
            -268 hlineto
            -7 -3 3 6 hvcurveto
            575 vlineto
            9 -4 3 -7 vhcurveto
            -29 hlineto
            -6 -4 -3 -9 hvcurveto
            -619 vlineto
            -9 4 -3 6 vhcurveto
            return
          </CharString>
          <CharString index="21">
            7 4 3 9 hvcurveto
            523 4 vlineto
            306 -524 rlineto
            3 -5 3 -6 10 0 rrcurveto
            23 hlineto
            7 4 3 9 hvcurveto
            619 vlineto
            9 -4 3 -7 vhcurveto
            -28 hlineto
            -7 -4 -3 -9 hvcurveto
            -522 -4 vlineto
            -307 528 rlineto
            -1 2 -3 4 -8 0 rrcurveto
            -27 hlineto
            -6 -4 -3 -9 hvcurveto
            -619 vlineto
            -9 4 -3 6 vhcurveto
            return
          </CharString>
          <CharString index="22">
            -61 -33 36 63 hvcurveto
            355 vlineto
            63 33 36 61 vhcurveto
            114 hlineto
            62 33 -36 -63 hvcurveto
            -355 vlineto
            -63 -33 -36 -62 vhcurveto
            return
          </CharString>
          <CharString index="23">
            86 54 54 88 hvcurveto
            359 vlineto
            88 -54 54 -86 vhcurveto
            -123 hlineto
            -86 -54 -54 -88 hvcurveto
            -359 vlineto
            -88 54 -54 86 vhcurveto
            return
          </CharString>
          <CharString index="24">
            7 4 3 9 hvcurveto
            243 vlineto
            6 3 3 7 vhcurveto
            158 0 118 -252 rlineto
            4 -10 5 -2 9 0 rrcurveto
            31 hlineto
            7 0 4 4 -4 8 rrcurveto
            -119 252 0 4 rlineto
            65 13 41 50 0 75 rrcurveto
            95 vlineto
            88 -55 54 -86 vhcurveto
            -228 hlineto
            -6 -4 -3 -9 hvcurveto
            -619 vlineto
            -9 4 -3 6 vhcurveto
            return
          </CharString>
          <CharString index="25">
            -7 -3 3 6 hvcurveto
            273 vlineto
            6 3 3 7 vhcurveto
            173 hlineto
            62 34 -36 -63 hvcurveto
            -94 vlineto
            -62 -34 -36 -62 vhcurveto
            return
          </CharString>
          <CharString index="26">
            -88 55 -54 86 vhcurveto
            118 hlineto
            86 55 54 88 hvcurveto
            49 vlineto
            0 208 -349 -97 0 144 rrcurveto
            50 vlineto
            66 32 36 64 vhcurveto
            103 hlineto
            64 33 -36 -64 hvcurveto
            -25 vlineto
            -8 4 -3 7 vhcurveto
            29 hlineto
            7 4 3 8 hvcurveto
            28 vlineto
            88 -55 54 -86 vhcurveto
            -116 hlineto
            -86 -55 -54 -88 hvcurveto
            -55 vlineto
            0 -197 349 101 0 -162 rrcurveto
            -42 vlineto
            -65 -33 -36 -64 vhcurveto
            -104 hlineto
            -64 -33 36 64 hvcurveto
            33 vlineto
            9 -4 2 -7 vhcurveto
            -29 hlineto
            -7 -4 -2 -9 hvcurveto
            return
          </CharString>
          <CharString index="27">
            6 4 3 9 hvcurveto
            577 vlineto
            6 3 3 7 vhcurveto
            145 hlineto
            9 3 4 7 hvcurveto
            23 vlineto
            7 -3 4 -9 vhcurveto
            -360 hlineto
            -9 -3 -4 -7 hvcurveto
            -23 vlineto
            -7 3 -4 9 vhcurveto
            145 hlineto
            8 2 -3 -6 hvcurveto
            -577 vlineto
            -9 4 -3 7 vhcurveto
            return
          </CharString>
          <CharString index="28">
            -7 -4 -3 -9 hvcurveto
            -487 vlineto
            -63 -33 -36 -62 vhcurveto
            -103 hlineto
            -61 -33 36 63 hvcurveto
            487 vlineto
            9 -4 3 -7 vhcurveto
            -29 hlineto
            -6 -4 -3 -9 hvcurveto
            -489 vlineto
            -88 54 -54 86 vhcurveto
            112 hlineto
            86 54 54 88 hvcurveto
            490 vlineto
            8 -3 3 -8 vhcurveto
            return
          </CharString>
          <CharString index="29">
            7 0 4 4 2 8 rrcurveto
            149 564 4 0 148 -564 rlineto
            2 -8 5 -4 7 0 rrcurveto
            51 hlineto
            7 0 4 2 2 10 rrcurveto
            137 619 rlineto
            2 9 -4 3 -7 0 rrcurveto
            -34 hlineto
            -7 0 -5 -2 -2 -10 rrcurveto
            -118 -574 -5 0 -153 575 rlineto
            -2 9 -5 2 -7 0 rrcurveto
            -38 hlineto
            -7 0 -4 -2 -2 -9 rrcurveto
            -152 -575 -5 0 -119 574 rlineto
            -2 10 -4 2 -7 0 rrcurveto
            -33 hlineto
            -8 0 -4 -4 2 -8 rrcurveto
            137 -619 rlineto
            2 -9 5 -3 7 0 rrcurveto
            return
          </CharString>
          <CharString index="30">
            7 3 3 9 hvcurveto
            0 231 195 388 rlineto
            3 8 -4 4 -6 0 rrcurveto
            -37 hlineto
            -7 0 -3 -3 -4 -9 rrcurveto
            -159 -327 -5 0 -160 327 rlineto
            -4 9 -3 3 -7 0 rrcurveto
            -36 hlineto
            -6 0 -5 -4 4 -8 rrcurveto
            194 -388 0 -231 rlineto
            -9 4 -3 7 vhcurveto
            return
          </CharString>
          <CharString index="31">
            -7 2 -4 9 vhcurveto
            375 hlineto
            9 3 4 7 hvcurveto
            26 vlineto
            6 -3 4 -9 vhcurveto
            -327 4 hlineto
            324 531 rlineto
            4 6 1 4 0 7 rrcurveto
            33 vlineto
            7 -3 4 -9 vhcurveto
            -353 hlineto
            -9 -3 -4 -7 hvcurveto
            -25 vlineto
            -7 3 -4 9 vhcurveto
            308 -4 hlineto
            -327 -538 rlineto
            -4 -5 0 -5 0 -7 rrcurveto
            return
          </CharString>
          <CharString index="32">
            -4 8 -6 3 -8 0 rrcurveto
            -45 hlineto
            -7 0 -3 -5 5 -6 rrcurveto
            90 -109 rlineto
            4 -6 6 -3 6 0 rrcurveto
            20 hlineto
            7 0 2 4 -4 8 rrcurveto
            return
          </CharString>
          <CharString index="33">
            57 0 33 24 14 28 rrcurveto
            4 -40 hlineto
            -9 4 -3 7 vhcurveto
            29 hlineto
            7 3 3 9 hvcurveto
            486 vlineto
            9 -3 3 -7 vhcurveto
            -212 hlineto
            -86 -54 -54 -88 hvcurveto
            -226 vlineto
            -88 54 -54 86 vhcurveto
            return
          </CharString>
          <CharString index="34">
            -63 -40 -35 -63 vhcurveto
            -65 hlineto
            -61 -33 36 63 hvcurveto
            222 vlineto
            63 33 36 61 vhcurveto
            158 hlineto
            8 2 -3 -6 hvcurveto
            return
          </CharString>
          <CharString index="35">
            7 -3 4 -8 vhcurveto
            -140 hlineto
            -61 -33 36 63 hvcurveto
            222 vlineto
            63 33 36 61 vhcurveto
            140 hlineto
            9 2 3 7 hvcurveto
            24 vlineto
            7 -3 4 -8 vhcurveto
            -144 hlineto
            -86 -54 -54 -88 hvcurveto
            -226 vlineto
            -88 54 -54 86 vhcurveto
            144 hlineto
            9 2 3 8 hvcurveto
            return
          </CharString>
          <CharString index="36">
            58 0 32 24 15 28 rrcurveto
            4 -40 hlineto
            -9 4 -3 6 vhcurveto
            29 hlineto
            7 4 3 9 hvcurveto
            679 vlineto
            9 -4 3 -7 vhcurveto
            -29 hlineto
            -6 -4 -3 -9 hvcurveto
            -233 -4 vlineto
            -15 28 -32 24 -58 0 rrcurveto
            -67 hlineto
            -85 -53 -54 -88 hvcurveto
            -226 vlineto
            -88 53 -54 85 vhcurveto
            return
          </CharString>
          <CharString index="37">
            -63 -40 -35 -63 vhcurveto
            -67 hlineto
            -61 -33 36 63 hvcurveto
            222 vlineto
            63 33 36 61 vhcurveto
            67 hlineto
            63 40 -35 -63 hvcurveto
            return
          </CharString>
          <CharString index="38">
            9 2 3 8 hvcurveto
            23 vlineto
            7 -2 4 -9 vhcurveto
            -205 hlineto
            -62 -32 36 62 hvcurveto
            77 vlineto
            6 2 3 7 vhcurveto
            296 hlineto
            9 3 3 9 hvcurveto
            127 vlineto
            88 -55 54 -86 vhcurveto
            -86 hlineto
            -86 -54 -54 -88 hvcurveto
            -226 vlineto
            -88 54 -54 86 vhcurveto
            return
          </CharString>
          <CharString index="39">
            -7 -2 3 6 hvcurveto
            89 vlineto
            62 32 36 62 vhcurveto
            79 hlineto
            62 32 -36 -62 hvcurveto
            -89 vlineto
            -6 -2 -3 -7 vhcurveto
            return
          </CharString>
          <CharString index="40">
            57 0 33 23 14 29 rrcurveto
            4 -77 hlineto
            -63 -32 -36 -62 vhcurveto
            -178 hlineto
            -9 -2 -4 -6 hvcurveto
            -24 vlineto
            -8 2 -3 9 vhcurveto
            182 hlineto
            86 55 54 88 hvcurveto
            496 vlineto
            9 -4 3 -7 vhcurveto
            -212 hlineto
            -86 -54 -54 -88 hvcurveto
            -198 vlineto
            -87 53 -54 86 vhcurveto
            return
          </CharString>
          <CharString index="41">
            -64 -40 -34 -63 vhcurveto
            -64 hlineto
            -62 -33 36 62 hvcurveto
            194 vlineto
            63 33 36 62 vhcurveto
            158 hlineto
            7 2 -3 -6 hvcurveto
            return
          </CharString>
          <CharString index="42">
            7 4 3 9 hvcurveto
            355 vlineto
            63 40 35 63 vhcurveto
            65 hlineto
            61 33 -36 -63 hvcurveto
            -354 vlineto
            -9 4 -3 7 vhcurveto
            29 hlineto
            7 3 3 9 hvcurveto
            356 vlineto
            88 -52 54 -86 vhcurveto
            -66 hlineto
            -58 0 -31 -24 -15 -28 rrcurveto
            -4 233 hlineto
            9 -4 3 -7 vhcurveto
            -29 hlineto
            -6 -4 -3 -9 hvcurveto
            -679 vlineto
            -9 4 -3 6 vhcurveto
            return
          </CharString>
          <CharString index="43">
            -9 3 -3 7 vhcurveto
            30 hlineto
            6 4 3 9 hvcurveto
            96 vlineto
            9 -4 2 -6 vhcurveto
            -30 hlineto
            -7 -3 -2 -9 hvcurveto
            return
          </CharString>
          <CharString index="44">
            -9 4 -3 6 vhcurveto
            30 hlineto
            7 3 2 10 hvcurveto
            486 vlineto
            9 -4 3 -7 vhcurveto
            -29 hlineto
            -7 -3 -3 -9 hvcurveto
            return
          </CharString>
          <CharString index="45">
            86 55 54 88 hvcurveto
            496 vlineto
            9 -4 3 -7 vhcurveto
            -29 hlineto
            -6 -4 -3 -9 hvcurveto
            -490 vlineto
            -67 -33 -36 -66 vhcurveto
            -21 hlineto
            -9 -3 -4 -6 hvcurveto
            -24 vlineto
            -7 3 -4 9 vhcurveto
            return
          </CharString>
          <CharString index="46">
            -2 -4 0 -8 2 -4 rrcurveto
            165 -243 rlineto
            7 -10 6 -2 10 0 rrcurveto
            31 hlineto
            7 0 5 5 -6 7 rrcurveto
            -171 250 0 4 153 232 rlineto
            6 7 -4 5 -8 0 rrcurveto
            -31 hlineto
            -9 0 -6 -2 -5 -8 rrcurveto
            return
          </CharString>
          <CharString index="47">
            7 4 3 9 hvcurveto
            679 vlineto
            9 -4 3 -7 vhcurveto
            -29 hlineto
            -6 -4 -3 -9 hvcurveto
            -679 vlineto
            -9 4 -3 6 vhcurveto
            return
          </CharString>
          <CharString index="48">
            7 4 3 9 hvcurveto
            355 vlineto
            63 40 35 63 vhcurveto
            65 hlineto
            61 33 -36 -63 hvcurveto
            -354 vlineto
            -9 4 -3 7 vhcurveto
            29 hlineto
            7 3 3 9 hvcurveto
            356 vlineto
            88 -52 54 -86 vhcurveto
            -66 hlineto
            -58 0 -31 -24 -15 -28 rrcurveto
            -4 40 hlineto
            9 -4 3 -7 vhcurveto
            -29 hlineto
            -6 -4 -3 -9 hvcurveto
            -486 vlineto
            -9 4 -3 6 vhcurveto
            return
          </CharString>
          <CharString index="49">
            86 55 54 88 hvcurveto
            226 vlineto
            88 -55 54 -86 vhcurveto
            -86 hlineto
            -86 -54 -54 -88 hvcurveto
            -226 vlineto
            -88 54 -54 86 vhcurveto
            return
          </CharString>
          <CharString index="50">
            -62 -32 36 62 hvcurveto
            224 vlineto
            62 32 36 62 vhcurveto
            78 hlineto
            62 33 -36 -62 hvcurveto
            -224 vlineto
            -62 -33 -36 -62 vhcurveto
            return
          </CharString>
          <CharString index="51">
            -63 -40 35 63 hvcurveto
            224 vlineto
            63 40 35 63 vhcurveto
            66 hlineto
            62 33 -36 -63 hvcurveto
            -222 vlineto
            -63 -33 -36 -62 vhcurveto
            return
          </CharString>
          <CharString index="52">
            7 4 3 9 hvcurveto
            342 vlineto
            68 39 43 65 vhcurveto
            47 hlineto
            8 -1 3 4 0 7 rrcurveto
            24 vlineto
            7 -3 4 -8 vhcurveto
            -39 hlineto
            -60 0 -36 -30 -12 -24 rrcurveto
            -4 42 hlineto
            9 -4 3 -7 vhcurveto
            -29 hlineto
            -6 -4 -3 -9 hvcurveto
            -486 vlineto
            -9 4 -3 6 vhcurveto
            return
          </CharString>
          <CharString index="53">
            92 45 35 88 hvcurveto
            0 63 -11 51 -76 25 rrcurveto
            -125 50 rlineto
            -39 14 -24 18 0 39 rrcurveto
            23 vlineto
            28 23 32 59 vhcurveto
            157 hlineto
            9 2 3 7 hvcurveto
            23 vlineto
            7 -3 4 -8 vhcurveto
            -162 hlineto
            -91 -38 -44 -73 hvcurveto
            0 -64 26 -32 68 -26 rrcurveto
            125 -48 rlineto
            44 -16 12 -30 0 -39 rrcurveto
            -24 vlineto
            -47 -30 -23 -60 vhcurveto
            -169 hlineto
            -9 -2 -3 -7 hvcurveto
            -23 vlineto
            -7 2 -4 9 vhcurveto
            return
          </CharString>
          <CharString index="54">
            7 2 -3 -6 hvcurveto
            -317 vlineto
            -88 60 -51 86 vhcurveto
            43 hlineto
            8 3 3 8 hvcurveto
            23 vlineto
            7 -3 4 -8 vhcurveto
            -39 hlineto
            -62 -37 34 62 hvcurveto
            315 vlineto
            6 2 3 7 vhcurveto
            119 hlineto
            8 3 3 7 hvcurveto
            24 vlineto
            7 -3 4 -8 vhcurveto
            -119 hlineto
            -7 -2 3 6 hvcurveto
            81 vlineto
            9 -4 3 -7 vhcurveto
            -29 hlineto
            -7 -4 -3 -9 hvcurveto
            -81 vlineto
            -6 -2 -3 -7 vhcurveto
            -61 hlineto
            -9 -2 -4 -7 hvcurveto
            -24 vlineto
            -7 2 -3 9 vhcurveto
            return
          </CharString>
          <CharString index="55">
            57 0 33 24 14 28 rrcurveto
            4 -40 hlineto
            -9 4 -3 7 vhcurveto
            29 hlineto
            7 3 3 9 hvcurveto
            486 vlineto
            9 -3 3 -7 vhcurveto
            -29 hlineto
            -7 -4 -3 -9 hvcurveto
            -355 vlineto
            -63 -40 -35 -63 vhcurveto
            -65 hlineto
            -61 -33 36 63 hvcurveto
            354 vlineto
            9 -4 3 -7 vhcurveto
            -29 hlineto
            -6 -4 -3 -9 hvcurveto
            -356 vlineto
            -88 53 -54 85 vhcurveto
            return
          </CharString>
          <CharString index="56">
            8 0 4 3 2 9 rrcurveto
            110 422 5 0 111 -422 rlineto
            2 -9 4 -3 8 0 rrcurveto
            40 hlineto
            8 0 4 3 2 9 rrcurveto
            139 486 rlineto
            3 9 -4 3 -7 0 rrcurveto
            -32 hlineto
            -7 0 -4 -3 -2 -9 rrcurveto
            -119 -435 -5 0 -114 435 rlineto
            -2 10 -5 2 -7 0 rrcurveto
            -29 hlineto
            -7 0 -5 -2 -2 -10 rrcurveto
            -116 -435 -5 0 -118 435 rlineto
            -2 10 -4 2 -7 0 rrcurveto
            -32 hlineto
            -7 0 -3 -3 2 -9 rrcurveto
            140 -486 rlineto
            2 -9 4 -3 7 0 rrcurveto
            return
          </CharString>
          <CharString index="57">
            112 0 31 92 29 88 rrcurveto
            160 470 rlineto
            2 9 -4 3 -7 0 rrcurveto
            -30 hlineto
            -7 0 -4 -3 -2 -9 rrcurveto
            -147 -429 -4 0 -147 429 rlineto
            -2 9 -4 3 -7 0 rrcurveto
            -31 hlineto
            -7 0 -4 -3 3 -9 rrcurveto
            159 -459 rlineto
            2 -8 4 -4 8 0 rrcurveto
            19 hlineto
            -24 -65 -20 -68 -88 0 rrcurveto
            -27 hlineto
            -9 -2 -4 -7 hvcurveto
            -24 vlineto
            -7 2 -4 9 vhcurveto
            return
          </CharString>
          <CharString index="58">
            -7 3 -4 9 vhcurveto
            313 hlineto
            9 3 4 7 hvcurveto
            23 vlineto
            7 -3 4 -9 vhcurveto
            -258 4 hlineto
            258 411 rlineto
            3 5 2 4 0 8 rrcurveto
            22 vlineto
            7 -3 4 -9 vhcurveto
            -300 hlineto
            -8 -3 -4 -7 hvcurveto
            -23 vlineto
            -7 3 -4 8 vhcurveto
            250 -4 hlineto
            -262 -417 rlineto
            -4 -5 -2 -4 0 -10 rrcurveto
            return
          </CharString>
          <CharString index="59">
            -9 4 -3 7 vhcurveto
            28 hlineto
            6 4 3 9 hvcurveto
            106 vlineto
            8 -4 3 -6 vhcurveto
            -28 hlineto
            -7 -4 -3 -8 hvcurveto
            return
          </CharString>
          <CharString index="60">
            -9 3 -3 7 vhcurveto
            28 hlineto
            6 4 3 9 hvcurveto
            106 vlineto
            8 -4 3 -6 vhcurveto
            -28 hlineto
            -7 -3 -3 -8 hvcurveto
            return
          </CharString>
          <CharString index="61">
            9 3 4 7 hvcurveto
            17 vlineto
            6 -3 4 -9 vhcurveto
            -202 hlineto
            -9 -3 -4 -6 hvcurveto
            -17 vlineto
            -7 3 -4 9 vhcurveto
            return
          </CharString>
          <CharString index="62">
            -8 0 -6 -3 -4 -8 rrcurveto
            -63 -106 rlineto
            -4 -8 2 -4 7 0 rrcurveto
            20 hlineto
            6 0 6 3 4 6 rrcurveto
            90 109 rlineto
            5 6 -3 5 -7 0 rrcurveto
            return
          </CharString>
          <CharString index="63">
            7 0 4 3 5 9 rrcurveto
            89 160 230 0 0 -160 rlineto
            -9 4 -3 7 vhcurveto
            309 hlineto
            9 2 4 7 hvcurveto
            23 vlineto
            7 -2 4 -9 vhcurveto
            -260 hlineto
            -7 -2 3 6 hvcurveto
            242 vlineto
            6 2 3 7 vhcurveto
            232 hlineto
            8 3 4 7 hvcurveto
            23 vlineto
            7 -3 4 -8 vhcurveto
            -232 hlineto
            -7 -2 3 6 hvcurveto
            230 vlineto
            6 2 3 7 vhcurveto
            260 hlineto
            9 2 4 7 hvcurveto
            23 vlineto
            7 -2 4 -9 vhcurveto
            -338 hlineto
            -8 0 -5 -3 -5 -9 rrcurveto
            -339 -619 rlineto
            -3 -8 2 -4 7 0 rrcurveto
            return
          </CharString>
          <CharString index="64">
            -4 8 -6 3 -8 0 rrcurveto
            -45 hlineto
            -6 0 -4 -5 5 -6 rrcurveto
            90 -109 rlineto
            4 -6 6 -3 6 0 rrcurveto
            21 hlineto
            6 0 2 4 -4 8 rrcurveto
            return
          </CharString>
          <CharString index="65">
            -9 4 -3 6 vhcurveto
            28 hlineto
            7 4 3 9 hvcurveto
            106 vlineto
            8 -4 3 -7 vhcurveto
            -28 hlineto
            -6 -4 -3 -8 hvcurveto
            return
          </CharString>
          <CharString index="66">
            -4 8 -6 3 -8 0 rrcurveto
            -44 hlineto
            -7 0 -4 -5 6 -6 rrcurveto
            89 -109 rlineto
            5 -6 6 -3 6 0 rrcurveto
            20 hlineto
            7 0 1 4 -4 8 rrcurveto
            return
          </CharString>
          <CharString index="67">
            -9 4 -3 7 vhcurveto
            27 hlineto
            7 4 3 9 hvcurveto
            106 vlineto
            8 -4 3 -7 vhcurveto
            -27 hlineto
            -7 -4 -3 -8 hvcurveto
            return
          </CharString>
          <CharString index="68">
            -6 4 -6 -1 -5 -7 rrcurveto
            -26 -36 rlineto
            -24 31 -39 17 -48 0 rrcurveto
            -125 hlineto
            -86 -54 -54 -88 hvcurveto
            -359 vlineto
            0 -21 3 -19 6 -17 rrcurveto
            -37 -52 rlineto
            -5 -7 1 -6 5 -4 rrcurveto
            12 -8 rlineto
            6 -4 6 1 5 6 rrcurveto
            27 37 rlineto
            24 -31 38 -17 49 0 rrcurveto
            125 hlineto
            85 55 54 88 hvcurveto
            359 vlineto
            0 22 -3 19 -6 17 rrcurveto
            36 51 rlineto
            5 7 0 5 -6 5 rrcurveto
            return
          </CharString>
          <CharString index="69">
            355 vlineto
            63 33 36 62 vhcurveto
            115 hlineto
            42 0 29 -17 13 -30 rrcurveto
            -294 -410 rlineto
            return
          </CharString>
          <CharString index="70">
            -355 vlineto
            -63 -32 -36 -62 vhcurveto
            -115 hlineto
            -42 0 -29 17 -14 30 rrcurveto
            294 409 rlineto
            return
          </CharString>
          <CharString index="71">
            -8 0 -6 -3 -4 -8 rrcurveto
            -63 -106 rlineto
            -4 -8 1 -4 7 0 rrcurveto
            20 hlineto
            6 0 6 3 5 6 rrcurveto
            90 109 rlineto
            5 6 -4 5 -7 0 rrcurveto
            return
          </CharString>
          <CharString index="72">
            -8 0 -6 -3 -4 -8 rrcurveto
            -63 -106 rlineto
            -4 -8 2 -4 7 0 rrcurveto
            20 hlineto
            6 0 6 3 5 6 rrcurveto
            89 109 rlineto
            5 6 -3 5 -7 0 rrcurveto
            return
          </CharString>
          <CharString index="73">
            -5 7 -5 2 -9 0 rrcurveto
            -22 hlineto
            -9 0 -6 -2 -5 -7 rrcurveto
            -63 -109 rlineto
            -4 -6 1 -5 7 0 rrcurveto
            24 hlineto
            7 0 3 1 2 5 rrcurveto
            54 97 53 -97 rlineto
            2 -5 4 -1 6 0 rrcurveto
            24 hlineto
            8 0 1 5 -4 6 rrcurveto
            return
          </CharString>
          <CharString index="74">
            33 13 9 32 vhcurveto
            14 hlineto
            33 13 -9 -33 hvcurveto
            -38 vlineto
            -33 -13 -10 -33 vhcurveto
            -14 hlineto
            -32 -13 10 33 hvcurveto
            return
          </CharString>
          <CharString index="75">
            -46 23 -19 45 vhcurveto
            24 hlineto
            45 25 19 46 hvcurveto
            47 vlineto
            46 -25 18 -45 vhcurveto
            -24 hlineto
            -45 -23 -18 -46 hvcurveto
            return
          </CharString>
          <CharString index="76">
            5 2 4 7 vhcurveto
            286 hlineto
            8 3 3 9 hvcurveto
            149 vlineto
            88 -54 54 -86 vhcurveto
            -68 hlineto
            -52 0 -47 -18 -24 -48 -22 48 -46 18 -53 0 rrcurveto
            -153 hlineto
            -9 -3 -4 -7 hvcurveto
            -23 vlineto
            -7 3 -4 9 vhcurveto
            154 hlineto
            61 33 -36 -62 hvcurveto
            -54 vlineto
            -5 -2 -3 -6 vhcurveto
            -162 hlineto
            -86 -54 -53 -87 hvcurveto
            -25 vlineto
            -87 55 -53 85 vhcurveto
            62 hlineto
            56 0 48 17 24 49 22 -47 42 -19 57 0 rrcurveto
            205 hlineto
            9 2 3 8 hvcurveto
            23 vlineto
            7 -2 4 -9 vhcurveto
            -201 hlineto
            -62 -32 36 63 hvcurveto
            return
          </CharString>
          <CharString index="77">
            -5 -3 -3 -7 vhcurveto
            -241 hlineto
            -7 -2 3 5 hvcurveto
            115 vlineto
            64 40 31 61 vhcurveto
            64 hlineto
            62 33 -36 -63 hvcurveto
            return
          </CharString>
          <CharString index="78">
            -66 -41 -32 -62 vhcurveto
            -63 hlineto
            -64 -32 36 63 hvcurveto
            22 vlineto
            63 32 36 64 vhcurveto
            156 hlineto
            7 3 -3 -6 hvcurveto
            return
          </CharString>
          <CharString index="79">
            -8 0 -6 -3 -4 -8 rrcurveto
            -63 -106 rlineto
            -4 -8 2 -4 7 0 rrcurveto
            19 hlineto
            7 0 6 3 4 6 rrcurveto
            90 109 rlineto
            5 6 -3 5 -7 0 rrcurveto
            return
          </CharString>
          <CharString index="80">
            -5 7 -5 2 -10 0 rrcurveto
            -21 hlineto
            -10 0 -5 -2 -5 -7 rrcurveto
            -64 -109 rlineto
            -4 -6 2 -5 7 0 rrcurveto
            24 hlineto
            6 0 4 1 2 5 rrcurveto
            53 97 54 -97 rlineto
            2 -5 4 -1 6 0 rrcurveto
            24 hlineto
            7 0 2 5 -4 6 rrcurveto
            return
          </CharString>
          <CharString index="81">
            -52 12 -26 48 vhcurveto
            27 0 16 8 17 49 12 32 3 10 19 0 rrcurveto
            23 6 -13 -41 hvcurveto
            -34 vlineto
            -8 3 -2 5 vhcurveto
            14 hlineto
            6 3 2 8 hvcurveto
            41 vlineto
            52 -12 26 -48 vhcurveto
            -29 0 -12 -10 -15 -40 -16 -40 -5 -9 -16 0 rrcurveto
            -24 -6 13 40 hvcurveto
            33 vlineto
            7 -2 2 -6 vhcurveto
            -14 hlineto
            -6 -3 -2 -7 hvcurveto
            return
          </CharString>
          <CharString index="82">
            -4 8 -6 3 -8 0 rrcurveto
            -45 hlineto
            -7 0 -3 -5 5 -6 rrcurveto
            89 -109 rlineto
            5 -6 6 -3 6 0 rrcurveto
            20 hlineto
            7 0 2 4 -4 8 rrcurveto
            return
          </CharString>
          <CharString index="83">
            -4 4 -6 1 -6 -6 rrcurveto
            -38 -38 rlineto
            -23 40 -43 23 -56 0 rrcurveto
            -85 hlineto
            -86 -55 -54 -88 hvcurveto
            -226 vlineto
            0 -14 1 -13 3 -12 rrcurveto
            -51 -51 rlineto
            -5 -7 0 -4 6 -5 rrcurveto
            11 -11 rlineto
            4 -5 5 -1 7 6 rrcurveto
            38 38 rlineto
            23 -40 43 -23 56 0 rrcurveto
            85 hlineto
            86 55 54 88 hvcurveto
            226 vlineto
            0 14 -1 13 -3 13 rrcurveto
            50 50 rlineto
            6 7 0 4 -5 5 rrcurveto
            return
          </CharString>
          <CharString index="84">
            63 33 36 62 vhcurveto
            77 hlineto
            46 0 30 -20 12 -36 rrcurveto
            -260 -260 rlineto
            return
          </CharString>
          <CharString index="85">
            -63 -32 -36 -62 vhcurveto
            -77 hlineto
            -46 0 -30 20 -12 36 rrcurveto
            259 260 rlineto
            return
          </CharString>
          <CharString index="86">
            -8 0 -6 -3 -4 -8 rrcurveto
            -63 -106 rlineto
            -4 -8 1 -4 7 0 rrcurveto
            20 hlineto
            6 0 6 3 5 6 rrcurveto
            90 109 rlineto
            5 6 -4 5 -6 0 rrcurveto
            return
          </CharString>
          <CharString index="87">
            -5 7 -6 2 -9 0 rrcurveto
            -22 hlineto
            -9 0 -5 -2 -5 -7 rrcurveto
            -64 -109 rlineto
            -4 -6 1 -5 8 0 rrcurveto
            23 hlineto
            7 0 3 1 3 5 rrcurveto
            53 97 53 -97 rlineto
            3 -5 3 -1 7 0 rrcurveto
            24 hlineto
            7 0 1 5 -4 6 rrcurveto
            return
          </CharString>
          <CharString index="88">
            8 3 4 6 hvcurveto
            19 vlineto
            7 -3 4 -8 vhcurveto
            -203 hlineto
            -9 -3 -4 -7 hvcurveto
            -19 vlineto
            -6 3 -4 9 vhcurveto
            return
          </CharString>
          <CharString index="89">
            -9 0 -6 -3 -4 -8 rrcurveto
            -63 -106 rlineto
            -4 -8 2 -4 7 0 rrcurveto
            20 hlineto
            6 0 6 3 5 6 rrcurveto
            89 109 rlineto
            5 6 -3 5 -7 0 rrcurveto
            return
          </CharString>
          <CharString index="90">
            -8 3 -3 7 vhcurveto
            30 hlineto
            6 4 3 8 hvcurveto
            99 vlineto
            8 -4 3 -6 vhcurveto
            -30 hlineto
            -7 -3 -3 -8 hvcurveto
            return
          </CharString>
          <CharString index="91">
            21 hlineto
            10 0 5 2 5 7 rrcurveto
            64 109 rlineto
            4 6 -2 5 -7 0 rrcurveto
            -24 hlineto
            -6 0 -4 -1 -2 -5 rrcurveto
            -54 -97 -53 97 rlineto
            -2 5 -4 1 -6 0 rrcurveto
            -24 hlineto
            -7 0 -2 -5 4 -6 rrcurveto
            64 -109 rlineto
            5 -7 5 -2 10 0 rrcurveto
            return
          </CharString>
          <CharString index="92">
            8 -4 3 -6 vhcurveto
            -32 hlineto
            -7 -3 -3 -8 hvcurveto
            return
          </CharString>
          <CharString index="93">
            -12 vlineto
            -74 31 -33 63 vhcurveto
            10 hlineto
            64 31 33 74 hvcurveto
            11 vlineto
            8 -3 2 -6 vhcurveto
            -17 hlineto
            -6 -3 -2 -8 hvcurveto
            -10 vlineto
            -56 -16 -21 -47 vhcurveto
            -4 hlineto
            -44 -16 20 57 hvcurveto
            11 vlineto
            8 -4 2 -5 vhcurveto
            -19 hlineto
            -6 -3 -2 -8 hvcurveto
            return
          </CharString>
          <CharString index="94">
            -8 4 -3 7 vhcurveto
            29 hlineto
            7 4 3 8 hvcurveto
            99 vlineto
            8 -4 3 -7 vhcurveto
            -29 hlineto
            -7 -4 -3 -8 hvcurveto
            return
          </CharString>
          <CharString index="95">
            -5 7 -6 2 -9 0 rrcurveto
            -22 hlineto
            -9 0 -5 -2 -5 -7 rrcurveto
            -64 -109 rlineto
            -4 -6 1 -5 8 0 rrcurveto
            23 hlineto
            7 0 4 1 2 5 rrcurveto
            53 97 54 -97 rlineto
            2 -5 3 -1 7 0 rrcurveto
            24 hlineto
            7 0 1 5 -4 6 rrcurveto
            return
          </CharString>
          <CharString index="96">
            -8 3 -3 7 vhcurveto
            30 hlineto
            7 3 3 8 hvcurveto
            99 vlineto
            8 -4 3 -6 vhcurveto
            -30 hlineto
            -7 -3 -3 -9 hvcurveto
            return
          </CharString>
          <CharString index="97">
            8 -4 3 -6 vhcurveto
            -32 hlineto
            -7 -4 -3 -8 hvcurveto
            return
          </CharString>
          <CharString index="98">
            -186 vlineto
            -7 4 -2 4 vhcurveto
            4 0 3 2 2 5 rrcurveto
            25 84 rlineto
            return
          </CharString>
          <CharString index="99">
            8 24 3 15 0 18 rrcurveto
            return
          </CharString>
          <CharString index="100">
            9 3 4 6 hvcurveto
            19 vlineto
            7 -3 4 -9 vhcurveto
            -202 hlineto
            -9 -3 -4 -7 hvcurveto
            -19 vlineto
            -6 3 -4 9 vhcurveto
            return
          </CharString>
          <CharString index="101">
            8 -4 3 -7 vhcurveto
            -32 hlineto
            -6 -4 -3 -8 hvcurveto
            return
          </CharString>
          <CharString index="102">
            8 -4 3 -7 vhcurveto
            -31 hlineto
            -7 -4 -3 -8 hvcurveto
            return
          </CharString>
          <CharString index="103">
            -186 vlineto
            -7 4 -2 4 vhcurveto
            4 0 2 2 2 5 rrcurveto
            26 84 rlineto
            return
          </CharString>
          <CharString index="104">
            -8 0 -7 -3 -3 -8 rrcurveto
            -64 -106 rlineto
            -3 -8 1 -4 7 0 rrcurveto
            20 hlineto
            6 0 6 3 5 6 rrcurveto
            90 109 rlineto
            5 6 -4 5 -7 0 rrcurveto
            return
          </CharString>
          <CharString index="105">
            8 -4 3 -6 vhcurveto
            -32 hlineto
            -7 -4 -3 -8 hvcurveto
            -186 vlineto
            -7 4 -2 4 vhcurveto
            4 0 2 2 3 5 rrcurveto
            25 84 rlineto
            7 24 4 15 0 18 rrcurveto
            return
          </CharString>
          <CharString index="106">
            6 24 5 16 0 20 rrcurveto
            return
          </CharString>
          <CharString index="107">
            8 -4 3 -6 vhcurveto
            -36 hlineto
            -7 -3 -3 -8 hvcurveto
            -114 vlineto
            -9 3 -3 7 vhcurveto
            36 hlineto
            6 4 3 9 hvcurveto
            return
          </CharString>
          <CharString index="108">
            -8 0 -6 -3 -4 -8 rrcurveto
            -63 -106 rlineto
            -4 -8 2 -4 6 0 rrcurveto
            21 hlineto
            6 0 6 3 4 6 rrcurveto
            90 109 rlineto
            5 6 -4 5 -6 0 rrcurveto
            return
          </CharString>
          <CharString index="109">
            -186 vlineto
            -7 4 -2 3 vhcurveto
            4 0 3 2 2 5 rrcurveto
            25 84 rlineto
            return
          </CharString>
          <CharString index="110">
            21 hlineto
            10 0 5 2 5 7 rrcurveto
            64 109 rlineto
            4 6 -2 5 -7 0 rrcurveto
            -24 hlineto
            -6 0 -4 -1 -2 -5 rrcurveto
            -53 -97 -54 97 rlineto
            -2 5 -4 1 -6 0 rrcurveto
            -24 hlineto
            -7 0 -2 -5 4 -6 rrcurveto
            64 -109 rlineto
            5 -7 5 -2 10 0 rrcurveto
            return
          </CharString>
          <CharString index="111">
            -8 0 -6 -2 -4 -9 rrcurveto
            -62 -106 rlineto
            -4 -8 2 -4 7 0 rrcurveto
            16 hlineto
            6 0 5 3 4 6 rrcurveto
            80 109 rlineto
            5 7 -4 4 -6 0 rrcurveto
            return
          </CharString>
          <CharString index="112">
            -8 0 -6 -3 -4 -8 rrcurveto
            -63 -106 rlineto
            -4 -8 2 -4 6 0 rrcurveto
            20 hlineto
            7 0 5 3 5 6 rrcurveto
            90 109 rlineto
            5 6 -4 5 -6 0 rrcurveto
            return
          </CharString>
          <CharString index="113">
            -186 vlineto
            -7 4 -2 4 vhcurveto
            4 0 3 2 1 5 rrcurveto
            26 84 rlineto
            return
          </CharString>
          <CharString index="114">
            -218 vlineto
            -7 4 -2 4 vhcurveto
            4 0 3 2 2 5 rrcurveto
            25 91 rlineto
            return
          </CharString>
          <CharString index="115">
            -8 0 -5 -2 -5 -9 rrcurveto
            -61 -106 rlineto
            -4 -8 2 -4 6 0 rrcurveto
            16 hlineto
            6 0 5 3 5 6 rrcurveto
            79 109 rlineto
            6 7 -4 4 -7 0 rrcurveto
            return
          </CharString>
          <CharString index="116">
            -5 7 -5 2 -10 0 rrcurveto
            -21 hlineto
            -10 0 -5 -2 -5 -7 rrcurveto
            -64 -109 rlineto
            -4 -6 2 -5 7 0 rrcurveto
            24 hlineto
            6 0 4 1 2 5 rrcurveto
            54 97 53 -97 rlineto
            2 -5 4 -1 6 0 rrcurveto
            24 hlineto
            7 0 2 5 -4 6 rrcurveto
            return
          </CharString>
          <CharString index="117">
            81 39 39 84 hvcurveto
            6 vlineto
            10 -5 4 -8 vhcurveto
            -20 hlineto
            -8 -5 -3 -11 hvcurveto
            -6 vlineto
            -59 -20 -22 -58 vhcurveto
            -68 hlineto
            -58 -21 22 59 hvcurveto
            6 vlineto
            11 -4 3 -7 vhcurveto
            -22 hlineto
            -8 -4 -4 -10 hvcurveto
            -7 vlineto
            -82 39 -40 80 vhcurveto
            return
          </CharString>
          <CharString index="118">
            9 -4 3 -7 vhcurveto
            -27 hlineto
            -7 -4 -3 -9 hvcurveto
            -32 vlineto
            -9 4 -3 7 vhcurveto
            27 hlineto
            7 4 3 9 hvcurveto
            return
          </CharString>
          <CharString index="119">
            -13 -9 -11 -13 hvcurveto
            -299 vlineto
            -5 -2 -4 -8 vhcurveto
            -147 hlineto
            -11 21 -17 16 -24 9 rrcurveto
            4 vlineto
            44 17 23 41 0 56 rrcurveto
            27 vlineto
            89 -52 52 -89 vhcurveto
            -92 hlineto
            -9 -3 -4 -7 hvcurveto
            -19 vlineto
            -8 3 -4 9 vhcurveto
            89 hlineto
            63 33 -36 -63 hvcurveto
            -25 vlineto
            -63 -33 -34 -63 vhcurveto
            -63 hlineto
            -8 -4 -4 -7 hvcurveto
            -21 vlineto
            -8 3 -4 9 vhcurveto
            63 hlineto
            63 33 -33 -63 hvcurveto
            -38 vlineto
            -63 -33 -36 -63 vhcurveto
            -124 hlineto
            -9 -3 -4 -7 hvcurveto
            -22 vlineto
            -7 3 -4 9 vhcurveto
            126 hlineto
            87 55 54 89 hvcurveto
            42 vlineto
            0 8 -1 8 -1 8 rrcurveto
            134 hlineto
            8 2 -4 -5 hvcurveto
            -227 vlineto
            -9 4 -3 7 vhcurveto
            26 hlineto
            7 4 3 9 hvcurveto
            560 vlineto
            6 3 3 7 vhcurveto
            84 hlineto
            9 3 4 8 hvcurveto
            19 vlineto
            7 -3 4 -9 vhcurveto
            return
          </CharString>
          <CharString index="120">
            58 23 -17 -50 hvcurveto
            -42 vlineto
            -51 -23 -18 -58 vhcurveto
            -87 hlineto
            -55 -28 24 55 hvcurveto
            21 vlineto
            9 -4 3 -8 vhcurveto
            -23 hlineto
            -8 -4 -3 -9 hvcurveto
            -190 vlineto
            -9 4 -2 8 vhcurveto
            23 hlineto
            8 4 2 9 hvcurveto
            81 4 vlineto
            16 -26 31 -9 37 0 rrcurveto
            86 hlineto
            81 44 37 74 hvcurveto
            47 vlineto
            74 -44 33 -81 vhcurveto
            -90 hlineto
            -57 -23 17 50 hvcurveto
            13 vlineto
            50 22 18 58 vhcurveto
            161 hlineto
            return
          </CharString>
          <CharString index="121">
            14 11 10 16 hvcurveto
            120 vlineto
            5 2 3 8 vhcurveto
            84 hlineto
            9 3 4 8 hvcurveto
            19 vlineto
            7 -3 4 -9 vhcurveto
            -123 hlineto
            -48 -10 10 39 hvcurveto
            return
          </CharString>
          <CharString index="122">
            6 3 3 7 vhcurveto
            332 hlineto
            8 4 4 8 hvcurveto
            19 vlineto
            7 -4 4 -8 vhcurveto
            -730 hlineto
            -9 -3 -4 -7 hvcurveto
            -19 vlineto
            -8 3 -4 9 vhcurveto
            331 hlineto
            7 3 -3 -6 hvcurveto
            -342 vlineto
            -59 -35 -34 -61 vhcurveto
            -35 hlineto
            -64 -35 35 64 hvcurveto
            102 vlineto
            64 35 35 63 vhcurveto
            46 hlineto
            8 4 4 7 hvcurveto
            22 vlineto
            7 -4 4 -8 vhcurveto
            -50 hlineto
            -87 0 -54 -53 -1 -88 rrcurveto
            -106 vlineto
            -88 55 -53 87 vhcurveto
            35 hlineto
            47 0 33 15 17 32 rrcurveto
            4 -128 hlineto
            -9 4 -3 7 vhcurveto
            25 hlineto
            7 4 3 9 hvcurveto
            332 vlineto
            60 35 33 61 vhcurveto
            36 hlineto
            63 35 -35 -64 hvcurveto
            -102 vlineto
            -64 -34 -35 -63 vhcurveto
            -46 hlineto
            -9 -3 -4 -7 hvcurveto
            -21 vlineto
            -8 3 -4 9 vhcurveto
            49 hlineto
            87 55 53 88 hvcurveto
            106 vlineto
            88 -55 53 -87 vhcurveto
            -34 hlineto
            -48 0 -36 -17 -14 -30 rrcurveto
            -4 hlineto
            return
          </CharString>
          <CharString index="123">
            -174 vlineto
            -9 4 -3 7 vhcurveto
            25 hlineto
            7 4 3 9 hvcurveto
            560 vlineto
            6 3 3 7 vhcurveto
            84 hlineto
            9 3 4 8 hvcurveto
            19 vlineto
            7 -3 4 -9 vhcurveto
            -700 hlineto
            -9 -3 -4 -7 hvcurveto
            -19 vlineto
            -8 3 -4 9 vhcurveto
            201 hlineto
            7 2 -3 -6 hvcurveto
            -156 vlineto
            -68 -36 -20 -45 vhcurveto
            -80 hlineto
            -9 -4 -5 -8 hvcurveto
            0 -32 19 -24 168 -248 rlineto
            4 -6 5 -5 7 0 rrcurveto
            27 hlineto
            7 4 4 6 hvcurveto
            0 4 -2 3 -3 4 rrcurveto
            -178 263 41 0 rlineto
            72 51 40 91 hvcurveto
            157 vlineto
            6 2 3 7 vhcurveto
            282 hlineto
            7 3 -3 -6 hvcurveto
            -291 vlineto
            -62 -31 -37 -64 vhcurveto
            -5 hlineto
            -62 -28 34 64 hvcurveto
            36 vlineto
            64 27 33 62 vhcurveto
            16 hlineto
            9 3 4 7 hvcurveto
            21 vlineto
            8 -3 4 -9 vhcurveto
            -18 hlineto
            -87 -48 -53 -84 hvcurveto
            -43 vlineto
            -85 47 -53 85 vhcurveto
            7 hlineto
            45 1 32 17 18 29 rrcurveto
            return
          </CharString>
          <CharString index="124">
            -9 -3 -4 -7 hvcurveto
            -19 vlineto
            -8 3 -4 9 vhcurveto
            126 hlineto
            7 2 -3 -6 hvcurveto
            -213 vlineto
            -74 -38 -21 -50 vhcurveto
            -14 hlineto
            -9 -3 -4 -8 hvcurveto
            -22 vlineto
            -7 3 -4 9 vhcurveto
            17 hlineto
            80 54 41 98 hvcurveto
            214 vlineto
            6 2 3 7 vhcurveto
            154 hlineto
            7 2 -3 -6 hvcurveto
            -560 vlineto
            -9 4 -3 7 vhcurveto
            26 hlineto
            7 4 3 9 hvcurveto
            560 vlineto
            6 3 3 7 vhcurveto
            84 hlineto
            9 3 4 8 hvcurveto
            19 vlineto
            7 -3 4 -9 vhcurveto
            return
          </CharString>
          <CharString index="125">
            9 -4 3 -7 vhcurveto
            -30 hlineto
            -7 -4 -3 -9 hvcurveto
            -33 vlineto
            -9 4 -3 7 vhcurveto
            30 hlineto
            7 4 3 9 hvcurveto
            return
          </CharString>
          <CharString index="126">
            -9 -3 -4 -7 hvcurveto
            -19 vlineto
            -8 3 -4 9 vhcurveto
            329 hlineto
            return
          </CharString>
          <CharString index="127">
            7 2 -3 -6 hvcurveto
            -100 vlineto
            -6 -3 -3 -7 vhcurveto
            -125 hlineto
            -80 -46 -34 -75 hvcurveto
            -18 vlineto
            -76 43 -32 83 vhcurveto
            82 hlineto
            return
          </CharString>
          <CharString index="128">
            58 23 -17 -52 hvcurveto
            -45 vlineto
            -52 -23 -19 -58 vhcurveto
            -87 hlineto
            -58 -21 17 62 hvcurveto
            8 vlineto
            10 -4 4 -7 vhcurveto
            -24 hlineto
            -8 -4 -4 -10 hvcurveto
            -8 vlineto
            -89 44 -33 80 vhcurveto
            93 hlineto
            81 45 36 75 hvcurveto
            52 vlineto
            74 -45 33 -81 vhcurveto
            -84 hlineto
            -57 -23 16 52 hvcurveto
            13 vlineto
            52 23 16 57 vhcurveto
            155 hlineto
            return
          </CharString>
          <CharString index="129">
            14 11 10 16 hvcurveto
            127 vlineto
            6 3 3 7 vhcurveto
            114 hlineto
            9 3 4 8 hvcurveto
            19 vlineto
            7 -3 4 -9 vhcurveto
            return
          </CharString>
          <CharString index="130">
            9 9 5 14 0 18 rrcurveto
            122 vlineto
            5 3 3 8 vhcurveto
            91 hlineto
            9 1 3 3 0 8 rrcurveto
            19 vlineto
            7 -3 4 -9 vhcurveto
            return
          </CharString>
          <CharString index="131">
            -9 -4 -4 -7 hvcurveto
            -19 vlineto
            -7 4 -4 9 vhcurveto
            37 hlineto
            return
          </CharString>
          <CharString index="132">
            56 24 -27 -57 hvcurveto
            -121 vlineto
            -64 -33 -36 -64 vhcurveto
            -151 hlineto
            -63 -25 27 63 hvcurveto
            42 vlineto
            56 25 29 59 vhcurveto
            39 hlineto
            9 3 5 6 hvcurveto
            22 vlineto
            7 -3 4 -9 vhcurveto
            -41 hlineto
            -54 -28 29 54 hvcurveto
            62 vlineto
            59 23 29 57 vhcurveto
            218 hlineto
            return
          </CharString>
          <CharString index="133">
            7 3 -3 -6 hvcurveto
            -123 vlineto
            0 -8 -1 -7 -3 -6 -13 3 -16 2 -17 0 rrcurveto
            return
          </CharString>
          <CharString index="134">
            160 hlineto
            7 3 -3 -6 hvcurveto
            -354 vlineto
            -9 4 -3 7 vhcurveto
            26 hlineto
            7 4 3 9 hvcurveto
            560 vlineto
            6 3 3 7 vhcurveto
            84 hlineto
            9 3 4 8 hvcurveto
            19 vlineto
            7 -3 4 -9 vhcurveto
            -551 hlineto
            -9 -3 -4 -7 hvcurveto
            -19 vlineto
            -8 3 -4 9 vhcurveto
            400 hlineto
            7 2 -3 -6 hvcurveto
            -143 vlineto
            -6 -3 -3 -7 vhcurveto
            -314 hlineto
            -9 -3 -4 -7 hvcurveto
            -23 vlineto
            -7 3 -4 9 vhcurveto
            58 hlineto
            50 39 -21 -73 hvcurveto
            -72 vlineto
            -71 -34 -24 -54 vhcurveto
            -100 hlineto
            -9 -3 -4 -8 hvcurveto
            -21 vlineto
            -7 3 -4 9 vhcurveto
            107 hlineto
            77 52 42 94 hvcurveto
            76 vlineto
            0 43 -13 31 -28 15 rrcurveto
            return
          </CharString>
          <CharString index="135">
            -88 -54 -56 -87 hvcurveto
            -115 vlineto
            -87 54 -56 88 vhcurveto
            84 hlineto
            87 55 53 89 hvcurveto
            41 vlineto
            9 -4 4 -8 vhcurveto
            -24 hlineto
            -7 -4 -4 -9 hvcurveto
            -40 vlineto
            -64 -34 -35 -63 vhcurveto
            -79 hlineto
            -63 -34 36 64 hvcurveto
            113 vlineto
            64 34 36 63 vhcurveto
            142 hlineto
            14 11 9 17 hvcurveto
            150 vlineto
            6 3 3 7 vhcurveto
            98 hlineto
            9 3 4 8 hvcurveto
            19 vlineto
            7 -3 4 -9 vhcurveto
            -489 hlineto
            -9 -3 -4 -7 hvcurveto
            -19 vlineto
            -8 3 -4 9 vhcurveto
            324 hlineto
            7 2 -3 -6 hvcurveto
            -123 vlineto
            -6 -2 -3 -7 vhcurveto
            return
          </CharString>
          <CharString index="136">
            62 34 -38 -63 hvcurveto
            -111 vlineto
            -64 -34 -37 -64 vhcurveto
            -79 hlineto
            -63 -35 37 64 hvcurveto
            111 vlineto
            64 34 37 63 vhcurveto
            return
          </CharString>
          <CharString index="137">
            9 4 4 8 hvcurveto
            19 vlineto
            7 -4 4 -9 vhcurveto
            -516 hlineto
            -9 -3 -4 -7 hvcurveto
            -19 vlineto
            -8 3 -4 9 vhcurveto
            337 hlineto
            return
          </CharString>
          <CharString index="138">
            7 2 -3 -6 hvcurveto
            -58 vlineto
            -60 -27 -14 -44 vhcurveto
            -65 hlineto
            -87 -55 -55 -88 hvcurveto
            -115 vlineto
            -89 55 -54 87 vhcurveto
            87 hlineto
            return
          </CharString>
          <CharString index="139">
            86 56 54 87 hvcurveto
            122 vlineto
            0 63 -34 45 -51 12 rrcurveto
            4 vlineto
            return
          </CharString>
          <CharString index="140">
            29 15 11 23 0 45 rrcurveto
            63 vlineto
            6 3 3 7 vhcurveto
            return
          </CharString>
          <CharString index="141">
            -9 -3 -4 -7 hvcurveto
            -19 vlineto
            -8 3 -4 9 vhcurveto
            329 hlineto
            7 2 -3 -6 hvcurveto
            -100 vlineto
            -6 -3 -3 -7 vhcurveto
            -125 hlineto
            -80 -46 -34 -75 hvcurveto
            -22 vlineto
            -76 43 -32 83 vhcurveto
            80 hlineto
            return
          </CharString>
          <CharString index="142">
            57 26 -17 -52 hvcurveto
            -41 vlineto
            -52 -29 -19 -53 vhcurveto
            -84 hlineto
            -53 -28 17 62 hvcurveto
            8 vlineto
            10 -4 4 -7 vhcurveto
            -24 hlineto
            -8 -4 -4 -10 hvcurveto
            -8 vlineto
            -89 50 -33 75 vhcurveto
            91 hlineto
            76 51 36 75 hvcurveto
            48 vlineto
            74 -47 33 -81 vhcurveto
            -82 hlineto
            -57 -23 16 52 hvcurveto
            17 vlineto
            52 23 16 57 vhcurveto
            155 hlineto
            return
          </CharString>
          <CharString index="143">
            14 11 10 16 hvcurveto
            127 vlineto
            6 3 3 7 vhcurveto
            84 hlineto
            9 4 4 8 hvcurveto
            19 vlineto
            7 -4 4 -9 vhcurveto
            return
          </CharString>
          <CharString index="144">
            86 44 45 85 hvcurveto
            16 vlineto
            75 -28 38 -73 -73 -25 -38 -72 vhcurveto
            -15 vlineto
            -10 4 -3 10 vhcurveto
            19 hlineto
            7 4 3 9 hvcurveto
            15 vlineto
            50 10 20 45 45 10 -21 -50 vhcurveto
            -15 vlineto
            -61 -24 -28 -61 vhcurveto
            -94 hlineto
            -64 -33 36 63 hvcurveto
            120 vlineto
            64 33 37 63 vhcurveto
            150 hlineto
            13 10 9 15 hvcurveto
            146 vlineto
            6 3 3 7 vhcurveto
            92 hlineto
            9 4 4 8 hvcurveto
            19 vlineto
            7 -4 4 -9 vhcurveto
            -489 hlineto
            -9 -3 -4 -7 hvcurveto
            -19 vlineto
            -8 3 -4 9 vhcurveto
            330 hlineto
            7 2 -3 -6 hvcurveto
            -118 vlineto
            -6 -2 -3 -7 vhcurveto
            -119 hlineto
            -87 -53 -54 -89 hvcurveto
            -120 vlineto
            -87 52 -56 89 vhcurveto
            return
          </CharString>
          <CharString index="145">
            7 3 -3 -6 hvcurveto
            -257 vlineto
            -71 -38 -21 -48 vhcurveto
            -22 hlineto
            -48 -38 21 71 hvcurveto
            257 vlineto
            6 3 3 7 vhcurveto
            return
          </CharString>
          <CharString index="146">
            -72 -47 -38 -75 hvcurveto
            -46 vlineto
            -9 4 -3 7 vhcurveto
            24 hlineto
            7 4 3 9 hvcurveto
            43 vlineto
            52 28 21 46 46 28 -21 -52 vhcurveto
            -52 vlineto
            -68 -36 -23 -53 vhcurveto
            -120 hlineto
            return
          </CharString>
          <CharString index="147">
            -87 -53 -54 -89 hvcurveto
            -91 vlineto
            -87 52 -56 89 vhcurveto
            70 hlineto
            37 0 31 9 17 26 rrcurveto
            4 -109 hlineto
            -9 4 -3 7 vhcurveto
            23 hlineto
            8 4 3 9 hvcurveto
            232 vlineto
            9 -4 3 -8 vhcurveto
            -23 hlineto
            -7 -4 -3 -9 hvcurveto
            -33 vlineto
            -55 -29 -26 -55 vhcurveto
            -71 hlineto
            -64 -33 36 63 hvcurveto
            89 vlineto
            64 33 37 63 vhcurveto
            163 hlineto
            return
          </CharString>
          <CharString index="148">
            14 10 10 15 hvcurveto
            128 vlineto
            6 2 3 7 vhcurveto
            83 hlineto
            8 4 4 8 hvcurveto
            19 vlineto
            7 -4 4 -8 vhcurveto
            -493 hlineto
            -9 -3 -4 -7 hvcurveto
            -19 vlineto
            -8 3 -4 9 vhcurveto
            344 hlineto
            7 2 -3 -6 hvcurveto
            -100 vlineto
            -6 -2 -3 -7 vhcurveto
            return
          </CharString>
          <CharString index="149">
            -62 -33 34 63 hvcurveto
            253 vlineto
            6 2 3 8 vhcurveto
            214 hlineto
            7 3 -3 -6 hvcurveto
            -252 vlineto
            -62 -34 -36 -64 vhcurveto
            return
          </CharString>
          <CharString index="150">
            -62 -33 34 64 hvcurveto
            246 vlineto
            6 2 3 8 vhcurveto
            203 hlineto
            7 2 -3 -6 hvcurveto
            -250 vlineto
            -59 -35 -35 -63 vhcurveto
            return
          </CharString>
          <CharString index="151">
            -64 -33 36 63 hvcurveto
            115 vlineto
            0 18 3 16 5 13 rrcurveto
            217 -221 rlineto
            -16 -26 -28 -14 -40 0 rrcurveto
            return
          </CharString>
          <CharString index="152">
            -5 -2 -4 -8 vhcurveto
            -204 hlineto
            -6 -3 3 7 hvcurveto
            225 vlineto
            6 2 3 8 vhcurveto
            204 hlineto
            7 2 -3 -6 hvcurveto
            return
          </CharString>
          <CharString index="153">
            8 2 -3 -6 hvcurveto
            -313 vlineto
            -69 -41 -43 -74 vhcurveto
            -80 hlineto
            -74 -39 42 71 hvcurveto
            91 20 vlineto
            79 50 36 90 hvcurveto
            15 vlineto
            0 41 -12 30 -24 14 rrcurveto
            4 vlineto
            return
          </CharString>
          <CharString index="154">
            -68 -26 -21 -60 vhcurveto
            -51 hlineto
            -9 -3 -4 -7 hvcurveto
            -123 vlineto
            -91 59 -65 99 vhcurveto
            83 hlineto
            52 0 42 19 17 34 rrcurveto
            4 -145 hlineto
            -9 4 -3 7 vhcurveto
            26 hlineto
            7 4 3 9 hvcurveto
            560 vlineto
            6 3 3 7 vhcurveto
            84 hlineto
            9 3 4 8 hvcurveto
            19 vlineto
            7 -3 4 -9 vhcurveto
            -568 hlineto
            -9 -3 -4 -7 hvcurveto
            -19 vlineto
            -8 3 -4 9 vhcurveto
            133 hlineto
            63 23 -26 -60 hvcurveto
            return
          </CharString>
          <CharString index="155">
            -68 -36 -20 -45 vhcurveto
            -80 hlineto
            -9 -4 -5 -8 hvcurveto
            0 -32 19 -24 167 -249 rlineto
            3 -6 4 -4 8 0 rrcurveto
            26 hlineto
            7 4 4 6 hvcurveto
            0 3 -1 3 -2 2 rrcurveto
            -177 266 41 0 rlineto
            73 50 41 90 hvcurveto
            157 vlineto
            6 2 3 8 vhcurveto
            73 hlineto
            10 3 4 8 hvcurveto
            19 vlineto
            7 -3 4 -10 vhcurveto
            -341 hlineto
            -9 -3 -4 -7 hvcurveto
            -19 vlineto
            -8 3 -4 9 vhcurveto
            201 hlineto
            7 2 -3 -6 hvcurveto
            return
          </CharString>
          <CharString index="156">
            -9 -3 -4 -7 hvcurveto
            -19 vlineto
            -8 3 -4 9 vhcurveto
            427 hlineto
            7 3 -3 -6 hvcurveto
            -122 vlineto
            0 -5 -2 -3 -7 -1 -43 -7 -31 -20 -18 -32 -21 40 -40 21 -57 0 rrcurveto
            -8 hlineto
            -87 -54 -49 -90 hvcurveto
            -126 vlineto
            -89 54 -49 87 vhcurveto
            8 hlineto
            57 0 40 21 21 39 21 -39 40 -21 57 0 rrcurveto
            8 hlineto
            87 54 49 89 hvcurveto
            126 vlineto
            0 80 -41 44 -71 12 -7 2 -1 3 0 5 rrcurveto
            122 vlineto
            6 2 3 7 vhcurveto
            184 hlineto
            9 4 4 8 hvcurveto
            19 vlineto
            7 -4 4 -9 vhcurveto
            return
          </CharString>
          <CharString index="157">
            -63 -32 -32 -62 vhcurveto
            -7 hlineto
            -62 -33 32 63 hvcurveto
            125 vlineto
            64 33 31 62 vhcurveto
            7 hlineto
            62 32 -31 -64 hvcurveto
            return
          </CharString>
          <CharString index="158">
            -63 -33 -32 -62 vhcurveto
            -7 hlineto
            -62 -32 32 63 hvcurveto
            125 vlineto
            64 32 31 62 vhcurveto
            7 hlineto
            62 33 -31 -64 hvcurveto
            return
          </CharString>
          <CharString index="159">
            -7 -4 -3 -9 hvcurveto
            -33 vlineto
            -9 4 -3 7 vhcurveto
            31 hlineto
            7 4 3 9 hvcurveto
            33 vlineto
            9 -4 3 -7 vhcurveto
            return
          </CharString>
          <CharString index="160">
            -9 4 -3 7 vhcurveto
            26 hlineto
            7 4 3 9 hvcurveto
            560 vlineto
            6 3 3 7 vhcurveto
            84 hlineto
            9 3 4 8 hvcurveto
            19 vlineto
            7 -3 4 -9 vhcurveto
            -120 hlineto
            -13 -9 -11 -13 hvcurveto
            return
          </CharString>
          <CharString index="161">
            97 hlineto
            83 53 43 95 hvcurveto
            89 vlineto
            86 -47 39 -83 -85 -46 -39 -86 vhcurveto
            -51 vlineto
            -9 4 -3 8 vhcurveto
            25 hlineto
            7 4 3 9 hvcurveto
            51 vlineto
            60 23 23 60 59 23 -24 -59 vhcurveto
            -89 vlineto
            -72 -39 -23 -50 vhcurveto
            -140 hlineto
            -10 -4 -4 -8 hvcurveto
            0 -32 20 -24 162 -236 rlineto
            4 -6 4 -4 7 0 rrcurveto
            28 hlineto
            7 4 4 5 hvcurveto
            0 3 -2 3 -2 3 rrcurveto
            return
          </CharString>
          <CharString index="162">
            -238 271 228 0 rlineto
            7 3 -3 -6 hvcurveto
            return
          </CharString>
          <CharString index="163">
            -62 -33 34 63 hvcurveto
            0 211 226 -259 rlineto
            -15 -32 -30 -17 -43 0 rrcurveto
            return
          </CharString>
          <CharString index="164">
            58 23 -26 -59 hvcurveto
            -23 vlineto
            -9 4 -2 7 vhcurveto
            24 hlineto
            8 4 2 9 hvcurveto
            28 vlineto
            80 -43 42 -80 vhcurveto
            -76 hlineto
            -59 -24 22 56 56 26 22 58 hvcurveto
            156 hlineto
            return
          </CharString>
          <CharString index="165">
            9 -4 3 -7 vhcurveto
            -31 hlineto
            -7 -4 -3 -9 hvcurveto
            -33 vlineto
            -9 4 -3 7 vhcurveto
            31 hlineto
            7 4 3 9 hvcurveto
            return
          </CharString>
          <CharString index="166">
            7 4 3 9 hvcurveto
            560 vlineto
            6 2 3 8 vhcurveto
            84 hlineto
            9 3 4 8 hvcurveto
            19 vlineto
            7 -3 4 -9 vhcurveto
            -235 hlineto
            -9 -3 -4 -7 hvcurveto
            -19 vlineto
            -8 3 -4 9 vhcurveto
            83 hlineto
            7 3 -3 -6 hvcurveto
            -560 vlineto
            -9 4 -3 7 vhcurveto
            return
          </CharString>
          <CharString index="167">
            -8 -2 3 6 hvcurveto
            117 vlineto
            88 -54 39 -87 -91 -50 -43 -89 vhcurveto
            -42 vlineto
            -9 4 -3 8 vhcurveto
            25 hlineto
            7 4 3 9 hvcurveto
            41 vlineto
            66 30 23 63 63 30 -24 -65 vhcurveto
            -111 vlineto
            -6 -3 -3 -7 vhcurveto
            -83 hlineto
            -9 -3 -4 -7 hvcurveto
            -19 vlineto
            -8 3 -4 9 vhcurveto
            83 hlineto
            7 3 -3 -6 hvcurveto
            -560 vlineto
            -9 4 -3 7 vhcurveto
            26 hlineto
            7 4 3 9 hvcurveto
            560 vlineto
            6 2 3 8 vhcurveto
            84 hlineto
            9 3 4 8 hvcurveto
            19 vlineto
            7 -3 4 -9 vhcurveto
            return
          </CharString>
          <CharString index="168">
            -13 0 -4 3 -7 11 rrcurveto
            -148 225 rlineto
            -5 7 -4 3 -9 0 rrcurveto
            -27 hlineto
            -6 -4 -4 -5 hvcurveto
            0 -3 1 -3 2 -3 rrcurveto
            61 -90 rlineto
            56 -81 55 -67 18 -16 rrcurveto
            39 23 hlineto
            return
          </CharString>
          <CharString index="169">
            -8 -2 3 6 hvcurveto
            0 51 -37 23 -47 24 rrcurveto
            -69 35 rlineto
            -33 18 -26 14 0 52 rrcurveto
            12 vlineto
            8 -4 3 -8 vhcurveto
            -25 hlineto
            -7 -4 -3 -8 hvcurveto
            -14 vlineto
            0 -58 23 -31 55 -28 rrcurveto
            64 -33 rlineto
            62 -32 8 -12 0 -21 rrcurveto
            -6 -3 -3 -7 vhcurveto
            -83 hlineto
            -9 -3 -4 -7 hvcurveto
            -19 vlineto
            -8 3 -4 9 vhcurveto
            83 hlineto
            7 3 -3 -6 hvcurveto
            -560 vlineto
            -9 4 -3 7 vhcurveto
            26 hlineto
            7 4 3 9 hvcurveto
            560 vlineto
            6 2 3 8 vhcurveto
            84 hlineto
            9 3 4 8 hvcurveto
            19 vlineto
            7 -3 4 -9 vhcurveto
            return
          </CharString>
          <CharString index="170">
            -13 0 -3 3 -7 11 rrcurveto
            -148 225 rlineto
            -5 7 -5 3 -8 0 rrcurveto
            -27 hlineto
            -7 -4 -4 -5 hvcurveto
            0 -3 1 -3 2 -3 rrcurveto
            62 -90 rlineto
            41 -60 38 -47 25 -30 rrcurveto
            -4 -93 vlineto
            -9 -3 -4 -7 hvcurveto
            -19 vlineto
            -8 3 -4 9 vhcurveto
            83 hlineto
            7 3 -3 -6 hvcurveto
            -560 vlineto
            -9 4 -3 7 vhcurveto
            26 hlineto
            7 4 3 9 hvcurveto
            560 vlineto
            6 2 3 8 vhcurveto
            84 hlineto
            9 3 4 8 hvcurveto
            19 vlineto
            7 -3 4 -9 vhcurveto
            return
          </CharString>
          <CharString index="171">
            -5 -2 3 6 hvcurveto
            229 vlineto
            9 -4 2 -7 vhcurveto
            -25 hlineto
            -7 -4 -3 -8 hvcurveto
            -36 vlineto
            0 -96 11 -64 7 -17 rrcurveto
            -3 -1 -137 214 rlineto
            -4 8 -5 3 -11 0 rrcurveto
            -24 hlineto
            -6 -4 -4 -5 hvcurveto
            0 -3 1 -3 2 -3 rrcurveto
            62 -90 rlineto
            32 -46 47 -59 29 -32 rrcurveto
            -4 -91 vlineto
            -9 -3 -4 -7 hvcurveto
            -19 vlineto
            -8 3 -4 9 vhcurveto
            83 hlineto
            7 3 -3 -6 hvcurveto
            -560 vlineto
            -9 4 -3 7 vhcurveto
            26 hlineto
            7 4 3 9 hvcurveto
            560 vlineto
            6 2 3 8 vhcurveto
            84 hlineto
            9 3 4 8 hvcurveto
            19 vlineto
            7 -3 4 -9 vhcurveto
            return
          </CharString>
          <CharString index="172">
            -6 -4 -4 -5 hvcurveto
            0 -3 1 -2 2 -2 rrcurveto
            86 -133 rlineto
            4 -6 5 -4 8 0 rrcurveto
            26 hlineto
            7 4 4 6 hvcurveto
            0 3 -1 3 -2 2 rrcurveto
            -90 130 rlineto
            -5 7 -4 4 -9 0 rrcurveto
            return
          </CharString>
          <CharString index="173">
            -9 4 -3 7 vhcurveto
            26 hlineto
            7 4 3 9 hvcurveto
            599 vlineto
            9 -4 3 -7 vhcurveto
            -26 hlineto
            -7 -4 -3 -9 hvcurveto
            return
          </CharString>
          <CharString index="174">
            -9 4 -2 7 vhcurveto
            31 hlineto
            7 4 3 8 hvcurveto
            return
          </CharString>
          <CharString index="175">
            218 vlineto
            7 -4 2 -4 vhcurveto
            -4 0 -3 -2 -1 -5 rrcurveto
            -26 -91 rlineto
            return
          </CharString>
          <CharString index="176">
            -6 -25 -5 -15 0 -20 rrcurveto
            return
          </CharString>
          <CharString index="177">
            -218 vlineto
            -7 4 -2 4 vhcurveto
            4 0 3 2 1 5 rrcurveto
            26 91 rlineto
            return
          </CharString>
          <CharString index="178">
            -140 -7 7 166 rlineto
            9 -4 3 -7 vhcurveto
            -28 hlineto
            -7 0 -5 -3 1 -9 rrcurveto
            7 -166 rlineto
            return
          </CharString>
          <CharString index="179">
            53 0 77 -29 58 0 28 0 29 5 23 10 13 5 5 5 0 9 rrcurveto
            19 vlineto
            7 -3 4 -6 vhcurveto
            -11 0 -34 -22 -43 0 rrcurveto
            return
          </CharString>
          <CharString index="180">
            -9 -3 -4 -7 hvcurveto
            -20 vlineto
            -8 3 -4 9 vhcurveto
            359 hlineto
            10 2 4 8 hvcurveto
            20 vlineto
            7 -2 4 -10 vhcurveto
            return
          </CharString>
          <CharString index="181">
            207 196 -207 hlineto
            return
          </CharString>
          <CharString index="182">
            44 0 27 -16 15 -29 4 -6 2 -6 6 0 4 0 2 1 4 2 rrcurveto
            14 10 rlineto
            5 3 2 4 0 5 0 4 -3 5 -2 3 -20 42 -44 22 -56 0 rrcurveto
            -34 hlineto
            -48 0 -36 -17 -14 -30 rrcurveto
            -4 138 hlineto
            6 3 3 7 vhcurveto
            241 hlineto
            9 3 4 8 hvcurveto
            19 vlineto
            7 -3 4 -9 vhcurveto
            -639 hlineto
            -9 -3 -4 -7 hvcurveto
            -19 vlineto
            -8 3 -4 9 vhcurveto
            331 hlineto
            7 3 -3 -6 hvcurveto
            -342 vlineto
            -59 -35 -34 -61 vhcurveto
            -35 hlineto
            -64 -35 35 64 hvcurveto
            102 vlineto
            64 35 35 63 vhcurveto
            46 hlineto
            8 4 4 7 hvcurveto
            22 vlineto
            7 -4 4 -8 vhcurveto
            -50 hlineto
            -87 0 -54 -53 -1 -88 rrcurveto
            -106 vlineto
            -88 55 -53 87 vhcurveto
            35 hlineto
            47 0 33 15 17 32 rrcurveto
            4 -128 hlineto
            -9 4 -3 7 vhcurveto
            25 hlineto
            7 4 3 9 hvcurveto
            332 vlineto
            60 35 33 61 vhcurveto
            return
          </CharString>
          <CharString index="183">
            59 0 34 29 24 29 3 3 4 5 0 4 0 5 -2 3 -4 3 rrcurveto
            -7 6 rlineto
            -5 4 -2 1 -4 0 -4 0 -4 -4 -4 -4 -24 -24 -19 -17 -46 0 rrcurveto
            -5 hlineto
            -62 -28 34 64 hvcurveto
            36 vlineto
            64 27 33 62 vhcurveto
            16 hlineto
            9 3 4 7 hvcurveto
            21 vlineto
            8 -3 4 -9 vhcurveto
            -18 hlineto
            -87 -48 -53 -84 hvcurveto
            -43 vlineto
            -85 47 -53 85 vhcurveto
            return
          </CharString>
          <CharString index="184">
            -9 -3 -4 -7 hvcurveto
            -19 vlineto
            -8 3 -4 9 vhcurveto
            201 hlineto
            7 2 -3 -6 hvcurveto
            -156 vlineto
            -68 -36 -20 -45 vhcurveto
            -80 hlineto
            -9 -4 -5 -8 hvcurveto
            0 -32 19 -24 168 -248 rlineto
            4 -6 5 -5 7 0 rrcurveto
            27 hlineto
            7 4 4 6 hvcurveto
            0 4 -2 3 -3 4 rrcurveto
            -178 263 42 0 rlineto
            71 1 51 40 0 90 rrcurveto
            157 vlineto
            6 2 3 7 vhcurveto
            300 hlineto
            10 2 4 8 hvcurveto
            19 vlineto
            7 -2 4 -10 vhcurveto
            return
          </CharString>
          <CharString index="185">
            9 3 4 8 hvcurveto
            19 vlineto
            7 -3 4 -9 vhcurveto
            -268 hlineto
            -9 -3 -4 -7 hvcurveto
            -19 vlineto
            -8 3 -4 9 vhcurveto
            126 hlineto
            7 2 -3 -6 hvcurveto
            -213 vlineto
            -74 -38 -21 -50 vhcurveto
            -14 hlineto
            -9 -3 -4 -8 hvcurveto
            -22 vlineto
            -7 3 -4 9 vhcurveto
            17 hlineto
            80 54 41 98 hvcurveto
            214 vlineto
            6 2 3 7 vhcurveto
            return
          </CharString>
          <CharString index="186">
            8 4 4 8 hvcurveto
            22 vlineto
            7 -4 4 -8 vhcurveto
            -320 hlineto
            -9 -3 -4 -7 hvcurveto
            -23 vlineto
            -7 3 -4 9 vhcurveto
            58 hlineto
            50 39 -21 -73 hvcurveto
            -72 vlineto
            -71 -34 -24 -54 vhcurveto
            -100 hlineto
            -9 -3 -4 -8 hvcurveto
            -21 vlineto
            -7 3 -4 9 vhcurveto
            107 hlineto
            77 52 42 94 hvcurveto
            76 vlineto
            0 43 -13 31 -28 15 rrcurveto
            4 vlineto
            return
          </CharString>
          <CharString index="187">
            8 1 4 3 0 8 rrcurveto
            19 vlineto
            7 -4 4 -8 vhcurveto
            -405 hlineto
            -9 -3 -4 -7 hvcurveto
            -19 vlineto
            -8 3 -4 9 vhcurveto
            return
          </CharString>
          <CharString index="188">
            9 3 4 8 hvcurveto
            19 vlineto
            7 -3 4 -9 vhcurveto
            -458 hlineto
            -9 -3 -4 -7 hvcurveto
            -19 vlineto
            -8 3 -4 9 vhcurveto
            74 hlineto
            7 3 -3 -6 hvcurveto
            -257 vlineto
            -95 54 -41 78 vhcurveto
            24 hlineto
            78 54 40 96 hvcurveto
            257 vlineto
            5 2 4 6 vhcurveto
            return
          </CharString>
          <CharString index="189">
            -73 -38 41 70 hvcurveto
            61 85 vlineto
            82 53 39 95 hvcurveto
            53 vlineto
            80 -51 36 -71 vhcurveto
            return
          </CharString>
          <CharString index="190">
            -9 -3 -4 -7 hvcurveto
            -19 vlineto
            -8 3 -4 9 vhcurveto
            324 hlineto
            10 2 4 8 hvcurveto
            19 vlineto
            7 -2 4 -10 vhcurveto
            return
          </CharString>
          <CharString index="191">
            10 2 3 8 hvcurveto
            21 vlineto
            7 -2 4 -10 vhcurveto
            -188 hlineto
            -64 -33 -40 -55 hvcurveto
            0 -21 5 -27 8 -22 3 -10 6 -5 9 0 rrcurveto
            20 hlineto
            7 3 4 6 hvcurveto
            0 4 -1 4 -2 8 -6 17 -4 18 0 18 rrcurveto
            35 18 23 41 vhcurveto
            return
          </CharString>
          <CharString index="192">
            43 0 28 -15 15 -29 4 -7 1 -6 7 0 4 0 2 1 4 2 rrcurveto
            14 10 rlineto
            5 3 2 4 0 5 0 4 -3 5 -2 3 -20 41 -44 23 -56 0 rrcurveto
            -34 hlineto
            -48 0 -36 -17 -13 -30 rrcurveto
            -4 140 hlineto
            6 2 3 7 vhcurveto
            242 hlineto
            9 3 4 8 hvcurveto
            19 vlineto
            7 -3 4 -9 vhcurveto
            -653 hlineto
            -9 -3 -4 -7 hvcurveto
            -19 vlineto
            -8 3 -4 9 vhcurveto
            76 hlineto
            5 -1 3 -3 0 -5 rrcurveto
            -250 vlineto
            -86 55 -52 84 vhcurveto
            29 hlineto
            48 0 33 14 17 32 rrcurveto
            4 -218 hlineto
            -9 4 -3 8 vhcurveto
            24 hlineto
            8 4 3 9 hvcurveto
            330 vlineto
            60 34 33 61 vhcurveto
            return
          </CharString>
          <CharString index="193">
            -64 -33 36 63 hvcurveto
            115 vlineto
            0 18 3 15 5 13 rrcurveto
            220 -225 rlineto
            -16 -23 -27 -12 -37 0 rrcurveto
            return
          </CharString>
          <CharString index="194">
            -74 -39 42 71 hvcurveto
            91 20 vlineto
            79 1 50 35 0 90 rrcurveto
            15 vlineto
            0 41 -12 30 -24 14 rrcurveto
            4 181 vlineto
            9 3 4 8 hvcurveto
            19 vlineto
            7 -3 4 -9 vhcurveto
            -412 hlineto
            -9 -3 -4 -7 hvcurveto
            -19 vlineto
            -8 3 -4 9 vhcurveto
            133 hlineto
            63 23 -26 -60 hvcurveto
            -12 vlineto
            -68 -26 -21 -60 vhcurveto
            -51 hlineto
            -9 -3 -4 -7 hvcurveto
            -123 vlineto
            -91 59 -65 99 vhcurveto
            83 hlineto
            67 0 44 40 24 29 3 3 3 5 0 5 0 4 -1 3 -4 3 rrcurveto
            -9 7 rlineto
            -4 4 -2 1 -4 0 -4 0 -5 -4 -5 -4 -26 -26 -26 -27 -51 0 rrcurveto
            return
          </CharString>
          <CharString index="195">
            -62 -33 34 63 hvcurveto
            0 211 229 -262 rlineto
            -24 -24 -28 -22 -39 0 rrcurveto
            return
          </CharString>
          <CharString index="196">
            14 11 9 17 hvcurveto
            118 vlineto
            6 3 3 7 vhcurveto
            81 hlineto
            9 3 4 8 hvcurveto
            19 vlineto
            7 -3 4 -9 vhcurveto
            return
          </CharString>
          <CharString index="197">
            -7 -3 -4 -8 hvcurveto
            -33 vlineto
            -8 3 -4 7 vhcurveto
            27 hlineto
            7 4 4 8 hvcurveto
            33 vlineto
            8 -4 4 -7 vhcurveto
            return
          </CharString>
          <CharString index="198">
            83 vlineto
            56 33 22 45 vhcurveto
            23 hlineto
            9 4 4 7 hvcurveto
            19 vlineto
            7 -4 4 -9 vhcurveto
            -27 hlineto
            -77 -45 -41 -77 hvcurveto
            -84 vlineto
            return
          </CharString>
          <CharString index="199">
            57 32 22 45 vhcurveto
            28 hlineto
            9 3 5 7 hvcurveto
            19 vlineto
            7 -3 4 -9 vhcurveto
            -29 hlineto
            -49 0 -32 -18 -18 -33 -19 34 -37 19 -62 0 rrcurveto
            -91 -50 -43 -89 hvcurveto
            -42 vlineto
            -9 4 -3 8 vhcurveto
            25 hlineto
            7 4 3 9 hvcurveto
            41 vlineto
            65 30 24 64 59 33 -22 -59 vhcurveto
            -119 vlineto
            -5 -2 -4 -8 vhcurveto
            -83 hlineto
            -9 -3 -4 -7 hvcurveto
            -19 vlineto
            -8 3 -4 9 vhcurveto
            83 hlineto
            7 3 -3 -6 hvcurveto
            -560 vlineto
            -9 4 -3 7 vhcurveto
            26 hlineto
            7 4 3 9 hvcurveto
            560 vlineto
            6 2 3 8 vhcurveto
            84 hlineto
            9 3 4 8 hvcurveto
            19 vlineto
            7 -3 4 -9 vhcurveto
            -85 hlineto
            -7 -2 4 5 hvcurveto
            return
          </CharString>
          <CharString index="200">
            -7 -4 -3 -9 hvcurveto
            -37 vlineto
            -9 4 -3 7 vhcurveto
            32 hlineto
            8 3 3 9 hvcurveto
            37 vlineto
            9 -4 3 -7 vhcurveto
            return
          </CharString>
          <CharString index="201">
            8 -4 4 -7 vhcurveto
            -26 hlineto
            -7 -4 -4 -8 hvcurveto
            -33 vlineto
            -8 4 -4 7 vhcurveto
            26 hlineto
            7 4 4 8 hvcurveto
            return
          </CharString>
          <CharString index="202">
            -8 -2 3 6 hvcurveto
            117 vlineto
            88 -54 39 -87 vhcurveto
            -246 hlineto
            -90 -50 -43 -89 hvcurveto
            -42 vlineto
            -9 4 -3 7 vhcurveto
            26 hlineto
            7 4 3 9 hvcurveto
            41 vlineto
            66 29 23 64 vhcurveto
            245 hlineto
            63 30 -24 -65 hvcurveto
            -111 vlineto
            -6 -3 -3 -7 vhcurveto
            -83 hlineto
            -9 -3 -4 -7 hvcurveto
            -19 vlineto
            -8 3 -4 9 vhcurveto
            83 hlineto
            7 3 -3 -6 hvcurveto
            -560 vlineto
            -9 4 -3 7 vhcurveto
            26 hlineto
            7 4 3 9 hvcurveto
            560 vlineto
            6 2 3 8 vhcurveto
            84 hlineto
            9 3 4 8 hvcurveto
            19 vlineto
            7 -3 4 -9 vhcurveto
            return
          </CharString>
          <CharString index="203">
            9 -4 3 -7 vhcurveto
            -26 hlineto
            -7 -4 -3 -9 hvcurveto
            -32 vlineto
            -9 4 -3 7 vhcurveto
            26 hlineto
            7 4 3 9 hvcurveto
            return
          </CharString>
          <CharString index="204">
            -5 -2 3 6 hvcurveto
            50 vlineto
            114 34 37 50 vhcurveto
            23 hlineto
            9 3 4 7 hvcurveto
            19 vlineto
            7 -3 4 -9 vhcurveto
            -24 hlineto
            -68 0 -40 -58 -2 -122 rrcurveto
            -5 167 hlineto
            9 -4 2 -7 vhcurveto
            -29 hlineto
            -7 -4 -3 -8 hvcurveto
            -37 vlineto
            2 -95 39 -73 7 -16 rrcurveto
            -3 -1 -144 222 rlineto
            -4 8 -5 3 -11 0 rrcurveto
            -23 hlineto
            -6 -4 -4 -5 hvcurveto
            0 -3 1 -3 2 -3 rrcurveto
            61 -90 rlineto
            54 -78 44 -50 28 -31 rrcurveto
            52 hlineto
            return
          </CharString>
          <CharString index="205">
            8 3 3 9 hvcurveto
            37 vlineto
            9 -4 3 -7 vhcurveto
            -32 hlineto
            -7 -4 -3 -9 hvcurveto
            -37 vlineto
            -9 4 -3 7 vhcurveto
            return
          </CharString>
          <CharString index="206">
            -67 0 -41 -58 -2 -122 rrcurveto
            -4 167 hlineto
            9 -5 2 -7 vhcurveto
            -28 hlineto
            -7 -4 -3 -8 hvcurveto
            -37 vlineto
            1 -95 39 -72 7 -17 rrcurveto
            -3 -1 -143 222 rlineto
            -5 8 -4 3 -11 0 rrcurveto
            -23 hlineto
            -7 -4 -4 -5 hvcurveto
            0 -3 1 -3 2 -3 rrcurveto
            62 -90 rlineto
            43 -63 39 -48 27 -30 rrcurveto
            -79 hlineto
            -9 -3 -4 -7 hvcurveto
            -19 vlineto
            -8 3 -4 9 vhcurveto
            83 hlineto
            return
          </CharString>
          <CharString index="207">
            7 3 -3 -6 hvcurveto
            -560 vlineto
            -9 4 -3 7 vhcurveto
            26 hlineto
            7 4 3 9 hvcurveto
            560 vlineto
            6 2 3 8 vhcurveto
            84 hlineto
            9 3 4 8 hvcurveto
            19 vlineto
            7 -3 4 -9 vhcurveto
            -86 hlineto
            return
          </CharString>
          <CharString index="208">
            -6 -2 3 6 hvcurveto
            50 vlineto
            114 33 37 50 vhcurveto
            23 hlineto
            9 3 4 7 hvcurveto
            19 vlineto
            7 -3 4 -9 vhcurveto
            return
          </CharString>
          <CharString index="209">
            -62 -23 -36 -69 -69 -23 36 62 62 23 35 69 vhcurveto
            69 23 -35 -62 hvcurveto
            return
          </CharString>
          <CharString index="210">
            -9 -3 -4 -7 hvcurveto
            -19 vlineto
            -8 3 -4 9 vhcurveto
            38 hlineto
            7 2 -3 -6 hvcurveto
            -185 -170 4 vlineto
            25 17 12 40 0 39 rrcurveto
            86 -41 51 -94 -94 -45 -52 -86 vhcurveto
            0 -43 15 -37 30 -18 rrcurveto
            -4 vlineto
            -63 -9 -32 -37 0 -66 rrcurveto
            -81 vlineto
            -79 45 -40 88 vhcurveto
            51 hlineto
            37 0 32 9 16 26 rrcurveto
            return
          </CharString>
          <CharString index="211">
            -91 59 -65 99 vhcurveto
            83 hlineto
            52 0 42 19 17 34 rrcurveto
            4 -145 hlineto
            -9 4 -3 7 vhcurveto
            26 hlineto
            7 4 3 9 hvcurveto
            560 vlineto
            6 3 3 7 vhcurveto
            84 hlineto
            9 3 4 8 hvcurveto
            19 vlineto
            7 -3 4 -9 vhcurveto
            return
          </CharString>
          <CharString index="212">
            -69 -23 36 62 62 23 35 69 69 23 -35 -62 -62 -23 -36 -69 hvcurveto
            return
          </CharString>
          <CharString index="213">
            -69 -41 -43 -74 vhcurveto
            -80 hlineto
            -74 -39 42 71 hvcurveto
            91 20 vlineto
            79 50 36 90 hvcurveto
            15 vlineto
            0 41 -12 30 -24 14 rrcurveto
            4 185 vlineto
            8 2 -3 -6 hvcurveto
            return
          </CharString>
          <CharString index="214">
            -9 -3 -4 -7 hvcurveto
            -19 vlineto
            -8 3 -4 9 vhcurveto
            296 hlineto
            7 2 -3 -6 hvcurveto
            -76 vlineto
            -6 -2 -3 -7 vhcurveto
            -94 hlineto
            -81 -46 -34 -75 hvcurveto
            -8 vlineto
            -75 43 -35 84 vhcurveto
            60 hlineto
            return
          </CharString>
          <CharString index="215">
            4 -109 hlineto
            -9 4 -3 7 vhcurveto
            23 hlineto
            8 4 3 9 hvcurveto
            232 vlineto
            9 -4 3 -8 vhcurveto
            -23 hlineto
            -7 -4 -3 -9 hvcurveto
            -33 vlineto
            -55 -29 -26 -55 vhcurveto
            -71 hlineto
            -64 -33 36 63 hvcurveto
            89 vlineto
            64 33 37 63 vhcurveto
            163 hlineto
            return
          </CharString>
          <CharString index="216">
            -59 -35 -35 -63 vhcurveto
            -29 hlineto
            -62 -33 34 64 hvcurveto
            246 vlineto
            6 2 3 8 vhcurveto
            203 hlineto
            7 2 -3 -6 hvcurveto
            return
          </CharString>
          <CharString index="217">
            35 18 23 41 vhcurveto
            172 hlineto
            7 2 -4 -6 hvcurveto
            -310 vlineto
            -9 4 -3 8 vhcurveto
            25 hlineto
            7 4 3 9 hvcurveto
            560 vlineto
            6 3 3 7 vhcurveto
            84 hlineto
            9 3 4 8 hvcurveto
            19 vlineto
            7 -3 4 -9 vhcurveto
            return
          </CharString>
          <CharString index="218">
            0 0 -24 -15 -43 -42 rrcurveto
            -62 -60 rlineto
            -3 -3 -1 -3 0 -3 rrcurveto
            -4 3 -4 7 vhcurveto
            26 hlineto
            8 0 6 4 5 5 37 34 32 30 26 27 57 55 10 11 5 6 rrcurveto
            4 -120 hlineto
            -9 4 -3 7 vhcurveto
            25 hlineto
            7 4 3 9 hvcurveto
            332 vlineto
            60 35 33 61 vhcurveto
            36 hlineto
            63 35 -35 -64 hvcurveto
            -102 vlineto
            -64 -34 -35 -63 vhcurveto
            -46 hlineto
            -9 -3 -4 -7 hvcurveto
            -21 vlineto
            -8 3 -4 9 vhcurveto
            49 hlineto
            87 55 53 88 hvcurveto
            106 vlineto
            88 -55 53 -87 vhcurveto
            -34 hlineto
            -48 0 -36 -17 -14 -30 rrcurveto
            -4 138 hlineto
            6 3 3 7 vhcurveto
            332 hlineto
            8 4 4 8 hvcurveto
            19 vlineto
            7 -4 4 -8 vhcurveto
            -730 hlineto
            -9 -3 -4 -7 hvcurveto
            -19 vlineto
            -8 3 -4 9 vhcurveto
            331 hlineto
            7 3 -3 -6 hvcurveto
            -342 vlineto
            -59 -35 -34 -61 vhcurveto
            -35 hlineto
            -64 -35 35 64 hvcurveto
            102 vlineto
            64 35 35 63 vhcurveto
            46 hlineto
            8 4 4 7 hvcurveto
            22 vlineto
            7 -4 4 -8 vhcurveto
            -50 hlineto
            -87 0 -54 -53 -1 -88 rrcurveto
            -106 vlineto
            -87 55 -49 78 vhcurveto
            52 hlineto
            return
          </CharString>
          <CharString index="219">
            0 0 -31 -27 -35 -44 rrcurveto
            -76 -95 rlineto
            -3 -3 -2 -4 0 -2 rrcurveto
            -5 4 -4 6 vhcurveto
            27 hlineto
            10 0 5 5 6 8 rrcurveto
            165 205 4 0 0 -166 rlineto
            -9 4 -3 7 vhcurveto
            25 hlineto
            7 4 3 9 hvcurveto
            560 vlineto
            6 3 3 7 vhcurveto
            84 hlineto
            9 3 4 8 hvcurveto
            19 vlineto
            7 -3 4 -9 vhcurveto
            -702 hlineto
            -9 -3 -4 -7 hvcurveto
            -19 vlineto
            -8 3 -4 9 vhcurveto
            201 hlineto
            7 2 -3 -6 hvcurveto
            -156 vlineto
            -68 -36 -20 -45 vhcurveto
            -80 hlineto
            -9 -4 -5 -8 hvcurveto
            0 -32 19 -24 168 -248 rlineto
            4 -6 5 -5 7 0 rrcurveto
            27 hlineto
            7 4 4 6 hvcurveto
            0 4 -2 3 -3 4 rrcurveto
            -178 263 41 0 rlineto
            72 51 41 90 hvcurveto
            157 vlineto
            6 2 3 7 vhcurveto
            284 hlineto
            7 3 -3 -6 hvcurveto
            -291 vlineto
            -62 -31 -37 -64 vhcurveto
            -5 hlineto
            -62 -28 34 64 hvcurveto
            36 vlineto
            64 27 33 62 vhcurveto
            16 hlineto
            9 3 4 7 hvcurveto
            21 vlineto
            8 -3 4 -9 vhcurveto
            -18 hlineto
            -87 -48 -53 -84 hvcurveto
            -43 vlineto
            -81 44 -51 79 vhcurveto
            10 hlineto
            14 11 3 0 hvcurveto
            return
          </CharString>
          <CharString index="220">
            -9 -3 -4 -7 hvcurveto
            -19 vlineto
            -8 3 -4 9 vhcurveto
            126 hlineto
            7 2 -3 -6 hvcurveto
            -213 vlineto
            -74 -38 -21 -50 vhcurveto
            -14 hlineto
            -9 -3 -4 -8 hvcurveto
            -22 vlineto
            -7 3 -4 9 vhcurveto
            17 hlineto
            80 54 41 98 hvcurveto
            214 vlineto
            6 2 3 7 vhcurveto
            154 hlineto
            7 2 -3 -6 hvcurveto
            0 -267 -253 -290 rlineto
            -3 -3 -2 -4 0 -2 rrcurveto
            -5 4 -4 7 vhcurveto
            27 hlineto
            9 0 5 3 6 8 rrcurveto
            200 233 0 -229 rlineto
            -9 4 -3 7 vhcurveto
            26 hlineto
            7 4 3 9 hvcurveto
            560 vlineto
            6 3 3 7 vhcurveto
            84 hlineto
            9 3 4 8 hvcurveto
            19 vlineto
            7 -3 4 -9 vhcurveto
            return
          </CharString>
          <CharString index="221">
            -9 -3 -4 -7 hvcurveto
            -19 vlineto
            -8 3 -4 9 vhcurveto
            329 hlineto
            7 2 -3 -6 hvcurveto
            -100 vlineto
            -6 -3 -3 -7 vhcurveto
            -125 hlineto
            -80 -46 -34 -75 hvcurveto
            -18 vlineto
            -76 43 -32 83 vhcurveto
            82 hlineto
            return
          </CharString>
          <CharString index="222">
            29 15 11 23 0 45 rrcurveto
            63 vlineto
            6 3 3 7 vhcurveto
            112 hlineto
            9 4 4 8 hvcurveto
            19 vlineto
            7 -4 4 -9 vhcurveto
            return
          </CharString>
          <CharString index="223">
            -64 -34 -37 -64 vhcurveto
            -79 hlineto
            -63 -35 37 64 hvcurveto
            111 vlineto
            64 34 37 63 vhcurveto
            82 hlineto
            62 34 -38 -63 hvcurveto
            return
          </CharString>
          <CharString index="224">
            58 23 -17 -52 hvcurveto
            -45 vlineto
            -52 -23 -19 -58 vhcurveto
            -87 hlineto
            -58 -21 17 62 hvcurveto
            8 vlineto
            10 -4 4 -7 vhcurveto
            -24 hlineto
            -8 -4 -4 -10 hvcurveto
            -8 vlineto
            -89 44 -33 80 vhcurveto
            -95 -124 rlineto
            -3 -4 -2 -3 0 -4 rrcurveto
            -6 4 -3 7 vhcurveto
            29 hlineto
            7 0 5 4 5 7 rrcurveto
            94 128 5 0 94 -128 rlineto
            5 -7 5 -4 7 0 rrcurveto
            29 hlineto
            7 4 3 6 hvcurveto
            0 4 -2 3 -3 4 rrcurveto
            -94 124 rlineto
            71 5 40 36 0 70 rrcurveto
            52 vlineto
            74 -45 33 -81 vhcurveto
            -84 hlineto
            -57 -23 16 52 hvcurveto
            13 vlineto
            52 23 16 57 vhcurveto
            155 hlineto
            return
          </CharString>
          <CharString index="225">
            -71 -38 -21 -48 vhcurveto
            -22 hlineto
            -48 -38 21 71 hvcurveto
            257 vlineto
            6 3 3 7 vhcurveto
            174 hlineto
            7 3 -3 -6 hvcurveto
            return
          </CharString>
          <CharString index="226">
            -9 -3 -4 -7 hvcurveto
            -19 vlineto
            -8 3 -4 9 vhcurveto
            344 hlineto
            7 2 -3 -6 hvcurveto
            -100 vlineto
            -6 -2 -3 -7 vhcurveto
            -134 hlineto
            -87 -53 -54 -89 hvcurveto
            -91 vlineto
            -87 52 -56 89 vhcurveto
            60 0 -96 -97 rlineto
            -3 -3 -1 -3 0 -3 rrcurveto
            -5 4 -4 6 vhcurveto
            29 hlineto
            8 0 6 4 5 5 3 3 84 86 42 44 rrcurveto
            8 8 rlineto
            return
          </CharString>
          <CharString index="227">
            14 10 10 15 hvcurveto
            128 vlineto
            6 2 3 7 vhcurveto
            83 hlineto
            8 4 4 8 hvcurveto
            19 vlineto
            7 -4 4 -8 vhcurveto
            return
          </CharString>
          <CharString index="228">
            -9 -3 -4 -7 hvcurveto
            -19 vlineto
            -8 3 -4 9 vhcurveto
            326 hlineto
            7 2 -3 -6 hvcurveto
            -188 vlineto
            -6 -2 -3 -8 vhcurveto
            -181 hlineto
            -64 -33 -40 -55 hvcurveto
            0 -22 5 -29 10 -23 3 -8 6 -3 7 0 rrcurveto
            20 hlineto
            7 3 4 6 hvcurveto
            0 5 -1 3 -3 9 -5 17 -4 17 0 18 rrcurveto
            35 18 23 41 vhcurveto
            171 hlineto
            8 2 -4 -6 hvcurveto
            0 -18 -253 -286 rlineto
            -3 -3 -1 -4 0 -2 rrcurveto
            -5 3 -4 7 vhcurveto
            28 hlineto
            8 0 5 3 6 7 rrcurveto
            200 229 0 -227 rlineto
            -9 4 -3 7 vhcurveto
            26 hlineto
            7 4 3 9 hvcurveto
            560 vlineto
            6 3 3 7 vhcurveto
            84 hlineto
            9 3 4 8 hvcurveto
            19 vlineto
            7 -3 4 -9 vhcurveto
            return
          </CharString>
          <CharString index="229">
            -9 4 -3 8 vhcurveto
            25 hlineto
            7 5 3 9 hvcurveto
            332 vlineto
            60 34 33 61 vhcurveto
            36 hlineto
            63 35 -35 -64 hvcurveto
            -102 vlineto
            -64 -34 -35 -63 vhcurveto
            -46 hlineto
            -9 -3 -4 -7 hvcurveto
            -21 vlineto
            -8 3 -4 9 vhcurveto
            49 hlineto
            87 55 53 88 hvcurveto
            106 vlineto
            88 -55 53 -87 vhcurveto
            -34 hlineto
            -48 0 -36 -17 -13 -30 rrcurveto
            -4 138 hlineto
            6 2 3 7 vhcurveto
            332 hlineto
            9 3 4 8 hvcurveto
            19 vlineto
            7 -3 4 -9 vhcurveto
            -745 hlineto
            -9 -3 -4 -7 hvcurveto
            -19 vlineto
            -8 3 -4 9 vhcurveto
            76 hlineto
            5 -1 3 -3 0 -5 rrcurveto
            -251 vlineto
            -79 49 -55 81 vhcurveto
            28 hlineto
            9 0 11 2 5 2 rrcurveto
            -4 vlineto
            0 0 -40 -36 -49 -52 rrcurveto
            -87 -95 rlineto
            -3 -4 -1 -3 0 -2 rrcurveto
            -5 3 -4 7 vhcurveto
            30 hlineto
            8 0 5 4 6 6 rrcurveto
            133 148 72 80 4 0 rlineto
            return
          </CharString>
          <CharString index="230">
            -62 -33 34 64 hvcurveto
            246 vlineto
            6 2 3 8 vhcurveto
            204 hlineto
            7 2 -3 -6 hvcurveto
            -246 vlineto
            -61 -33 -37 -64 vhcurveto
            return
          </CharString>
          <CharString index="231">
            8 2 -3 -6 hvcurveto
            -313 vlineto
            -69 -41 -43 -74 vhcurveto
            -80 hlineto
            -74 -39 42 71 hvcurveto
            91 20 vlineto
            79 50 37 89 hvcurveto
            15 vlineto
            0 41 -12 30 -24 14 rrcurveto
            4 vlineto
            return
          </CharString>
          <CharString index="232">
            0 0 -30 -15 -53 -44 rrcurveto
            -72 -60 rlineto
            -4 -4 -1 -2 0 -4 rrcurveto
            -5 3 -4 7 vhcurveto
            35 hlineto
            8 0 7 5 5 5 3 2 93 78 11 9 5 4 93 77 4 4 rrcurveto
            4 -137 hlineto
            -9 4 -3 7 vhcurveto
            26 hlineto
            7 4 3 9 hvcurveto
            560 vlineto
            6 3 3 7 vhcurveto
            84 hlineto
            9 3 4 8 hvcurveto
            19 vlineto
            7 -3 4 -9 vhcurveto
            -568 hlineto
            -9 -3 -4 -7 hvcurveto
            -19 vlineto
            -8 3 -4 9 vhcurveto
            133 hlineto
            63 23 -26 -60 hvcurveto
            -12 vlineto
            -68 -26 -21 -60 vhcurveto
            -51 hlineto
            -9 -3 -4 -7 hvcurveto
            -125 vlineto
            -91 61 -60 89 vhcurveto
            88 hlineto
            return
          </CharString>
          <CharString index="233">
            -42 26 -33 35 0 60 rrcurveto
            66 26 22 62 63 23 -22 -66 vhcurveto
            0 -49 -22 -46 -59 -38 rrcurveto
            return
          </CharString>
          <CharString index="234">
            -9 -3 -4 -7 hvcurveto
            -19 vlineto
            -8 3 -4 9 vhcurveto
            331 hlineto
            7 3 -3 -6 hvcurveto
            -342 vlineto
            -59 -35 -34 -61 vhcurveto
            -35 hlineto
            -64 -35 35 64 hvcurveto
            102 vlineto
            64 35 35 63 vhcurveto
            46 hlineto
            8 4 4 7 hvcurveto
            22 vlineto
            7 -4 4 -8 vhcurveto
            -50 hlineto
            -87 0 -54 -53 -1 -88 rrcurveto
            -106 vlineto
            -87 55 -49 79 vhcurveto
            51 -4 hlineto
            0 0 -24 -15 -43 -42 rrcurveto
            -62 -60 rlineto
            -3 -3 -1 -3 0 -3 rrcurveto
            -4 3 -4 7 vhcurveto
            26 hlineto
            8 0 6 4 5 5 36 33 30 29 25 26 61 57 10 12 5 6 rrcurveto
            4 -120 hlineto
            -9 4 -3 7 vhcurveto
            25 hlineto
            7 4 3 9 hvcurveto
            332 vlineto
            60 35 33 61 vhcurveto
            36 hlineto
            44 0 27 -16 15 -29 4 -6 2 -6 6 0 4 0 2 1 4 2 rrcurveto
            14 10 rlineto
            5 3 2 4 0 5 0 4 -3 5 -2 3 -20 42 -44 22 -56 0 rrcurveto
            -34 hlineto
            -48 0 -36 -17 -14 -30 rrcurveto
            -4 138 hlineto
            6 3 3 7 vhcurveto
            241 hlineto
            9 3 4 8 hvcurveto
            19 vlineto
            7 -3 4 -9 vhcurveto
            return
          </CharString>
          <CharString index="235">
            5 6 4 5 0 6 0 4 -2 2 -4 3 rrcurveto
            -10 8 rlineto
            -3 3 -2 1 -4 0 -5 0 -4 -6 -4 -5 -25 -31 -25 -24 -42 0 rrcurveto
            -4 hlineto
            -62 -28 34 64 hvcurveto
            36 vlineto
            64 27 33 62 vhcurveto
            16 hlineto
            9 3 4 7 hvcurveto
            21 vlineto
            8 -3 4 -9 vhcurveto
            -18 hlineto
            -87 -48 -53 -84 hvcurveto
            -43 vlineto
            -81 44 -51 79 vhcurveto
            8 hlineto
            17 11 5 0 hvcurveto
            -4 vlineto
            0 0 -32 -30 -35 -43 rrcurveto
            -76 -95 rlineto
            -3 -3 -2 -4 0 -2 rrcurveto
            -5 4 -4 6 vhcurveto
            27 hlineto
            10 0 5 5 7 8 rrcurveto
            return
          </CharString>
          <CharString index="236">
            6 6 3 6 0 6 0 3 -2 2 -3 4 rrcurveto
            -10 8 rlineto
            -4 4 -2 1 -4 0 -5 0 -4 -5 -4 -5 rrcurveto
            -253 -290 rlineto
            -3 -3 -2 -4 0 -2 rrcurveto
            -5 4 -4 7 vhcurveto
            27 hlineto
            9 0 5 3 6 8 rrcurveto
            return
          </CharString>
          <CharString index="237">
            -3 -3 -2 -3 0 -4 rrcurveto
            -5 4 -4 7 vhcurveto
            29 hlineto
            8 0 6 4 5 5 3 4 163 167 12 15 5 5 4 5 0 7 0 3 -1 3 -4 4 rrcurveto
            -8 7 rlineto
            -3 3 -3 2 -3 0 -5 0 -3 -3 -5 -5 rrcurveto
            return
          </CharString>
          <CharString index="238">
            9 3 4 8 hvcurveto
            22 vlineto
            7 -3 4 -9 vhcurveto
            -322 hlineto
            -9 -3 -4 -7 hvcurveto
            -23 vlineto
            -7 3 -4 9 vhcurveto
            58 hlineto
            50 39 -21 -73 hvcurveto
            -64 vlineto
            -71 -34 -24 -54 vhcurveto
            -100 hlineto
            -9 -3 -4 -7 hvcurveto
            -22 vlineto
            -7 3 -4 9 vhcurveto
            107 hlineto
            77 52 42 95 hvcurveto
            68 vlineto
            0 42 -13 31 -28 15 rrcurveto
            4 vlineto
            return
          </CharString>
          <CharString index="239">
            9 3 4 8 hvcurveto
            19 vlineto
            7 -3 4 -9 vhcurveto
            -407 hlineto
            -9 -3 -4 -7 hvcurveto
            -19 vlineto
            -8 3 -4 9 vhcurveto
            return
          </CharString>
          <CharString index="240">
            -5 7 -4 4 -9 0 rrcurveto
            -22 hlineto
            -6 -4 -4 -5 hvcurveto
            0 -3 1 -2 2 -2 rrcurveto
            86 -133 rlineto
            4 -6 5 -4 8 0 rrcurveto
            26 hlineto
            7 4 4 6 hvcurveto
            0 3 -1 3 -2 2 rrcurveto
            return
          </CharString>
          <CharString index="241">
            -9 -3 -4 -7 hvcurveto
            -19 vlineto
            -8 3 -4 9 vhcurveto
            367 hlineto
            10 2 4 8 hvcurveto
            19 vlineto
            7 -2 4 -10 vhcurveto
            return
          </CharString>
          <CharString index="242">
            -64 -33 -40 -55 hvcurveto
            0 -22 5 -29 10 -23 3 -8 6 -3 7 0 rrcurveto
            20 hlineto
            7 3 4 6 hvcurveto
            0 5 -1 3 -3 9 -5 17 -4 17 0 18 rrcurveto
            35 18 23 41 vhcurveto
            184 -44 hlineto
            -256 -270 rlineto
            -3 -3 -1 -4 0 -2 rrcurveto
            -5 3 -4 7 vhcurveto
            28 hlineto
            8 0 5 3 6 7 rrcurveto
            225 240 rlineto
            15 16 4 17 0 31 rrcurveto
            50 vlineto
            7 -3 4 -10 vhcurveto
            return
          </CharString>
          <CharString index="243">
            4 -212 hlineto
            -9 4 -3 8 vhcurveto
            25 hlineto
            8 4 3 9 hvcurveto
            330 vlineto
            60 34 33 61 vhcurveto
            36 hlineto
            43 0 28 -15 15 -29 4 -7 1 -6 7 0 4 0 2 1 4 2 rrcurveto
            14 10 rlineto
            5 3 2 4 0 5 0 4 -3 5 -2 3 -20 41 -44 23 -56 0 rrcurveto
            -34 hlineto
            -48 0 -36 -17 -13 -30 rrcurveto
            -4 140 hlineto
            6 2 3 7 vhcurveto
            235 hlineto
            10 3 4 8 hvcurveto
            19 vlineto
            7 -3 4 -10 vhcurveto
            -648 hlineto
            -9 -3 -4 -7 hvcurveto
            -19 vlineto
            -8 3 -4 9 vhcurveto
            76 hlineto
            6 -1 2 -3 0 -5 rrcurveto
            -251 vlineto
            0 -79 49 -54 82 -1 rrcurveto
            27 hlineto
            9 0 11 2 5 2 rrcurveto
            -4 vlineto
            0 0 -40 -36 -49 -52 rrcurveto
            -87 -95 rlineto
            -3 -4 -1 -3 0 -2 rrcurveto
            -5 3 -4 7 vhcurveto
            30 hlineto
            9 0 4 4 6 6 rrcurveto
            130 144 rlineto
            return
          </CharString>
          <CharString index="244">
            -63 -33 34 64 hvcurveto
            246 vlineto
            6 2 3 8 vhcurveto
            204 hlineto
            7 2 -3 -6 hvcurveto
            -246 vlineto
            -61 -33 -37 -64 vhcurveto
            return
          </CharString>
          <CharString index="245">
            64 27 33 62 vhcurveto
            16 hlineto
            9 3 4 7 hvcurveto
            21 vlineto
            8 -3 4 -9 vhcurveto
            -18 hlineto
            -87 -48 -53 -84 hvcurveto
            -43 vlineto
            -85 47 -53 85 vhcurveto
            7 hlineto
            45 1 32 17 18 29 rrcurveto
            4 -174 hlineto
            -9 4 -3 7 vhcurveto
            25 hlineto
            7 4 3 9 hvcurveto
            560 vlineto
            6 3 3 7 vhcurveto
            84 hlineto
            9 3 4 8 hvcurveto
            19 vlineto
            7 -3 4 -9 vhcurveto
            return
          </CharString>
          <CharString index="246">
            64 34 36 63 vhcurveto
            142 hlineto
            14 11 9 17 hvcurveto
            150 vlineto
            6 3 3 7 vhcurveto
            98 hlineto
            9 3 4 8 hvcurveto
            19 vlineto
            7 -3 4 -9 vhcurveto
            return
          </CharString>
          <CharString index="247">
            -9 -3 -4 -7 hvcurveto
            -19 vlineto
            -8 3 -4 9 vhcurveto
            331 hlineto
            7 3 -3 -6 hvcurveto
            -342 vlineto
            -59 -35 -34 -61 vhcurveto
            -35 hlineto
            -64 -35 35 64 hvcurveto
            102 vlineto
            64 35 35 63 vhcurveto
            46 hlineto
            8 4 4 7 hvcurveto
            22 vlineto
            7 -4 4 -8 vhcurveto
            -50 hlineto
            -87 0 -54 -53 -1 -88 rrcurveto
            -106 vlineto
            -88 55 -53 87 vhcurveto
            35 hlineto
            47 0 33 15 17 32 rrcurveto
            4 -128 hlineto
            -9 4 -3 7 vhcurveto
            25 hlineto
            7 4 3 9 hvcurveto
            303 vlineto
            return
          </CharString>
          <CharString index="248">
            -87 52 -56 89 vhcurveto
            70 hlineto
            37 0 31 9 17 26 rrcurveto
            4 -109 hlineto
            -9 4 -3 7 vhcurveto
            23 hlineto
            8 4 3 9 hvcurveto
            232 vlineto
            9 -4 3 -8 vhcurveto
            -23 hlineto
            -7 -4 -3 -9 hvcurveto
            -33 vlineto
            -55 -29 -26 -55 vhcurveto
            -71 hlineto
            -64 -33 36 63 hvcurveto
            89 vlineto
            64 33 37 63 vhcurveto
            163 hlineto
            return
          </CharString>
          <CharString index="249">
            60 34 33 61 vhcurveto
            36 hlineto
            63 35 -35 -64 hvcurveto
            -102 vlineto
            -64 -34 -35 -63 vhcurveto
            -46 hlineto
            -9 -3 -4 -7 hvcurveto
            -21 vlineto
            -8 3 -4 9 vhcurveto
            50 hlineto
            87 54 53 88 hvcurveto
            106 vlineto
            88 -55 53 -86 vhcurveto
            -35 hlineto
            -48 0 -36 -17 -13 -30 rrcurveto
            -4 138 hlineto
            6 2 3 7 vhcurveto
            332 hlineto
            9 3 4 8 hvcurveto
            19 vlineto
            7 -3 4 -9 vhcurveto
            return
          </CharString>
          <CharString index="250">
            -48 0 -36 -17 -14 -30 rrcurveto
            -4 167 hlineto
            6 3 3 7 vhcurveto
            181 hlineto
            5 -1 3 -3 0 -5 rrcurveto
            -120 vlineto
            return
          </CharString>
          <CharString index="251">
            -48 0 -36 -17 -14 -30 rrcurveto
            -4 207 hlineto
            6 3 3 7 vhcurveto
            247 hlineto
            63 24 -24 -57 hvcurveto
            -4 vlineto
            -67 -27 -17 -60 vhcurveto
            return
          </CharString>
          <CharString index="252">
            -69 -41 -43 -74 vhcurveto
            -80 hlineto
            -73 -40 42 71 hvcurveto
            100 20 vlineto
            79 50 33 90 hvcurveto
            5 vlineto
            0 41 -12 26 -24 14 rrcurveto
            4 185 vlineto
            8 2 -3 -6 hvcurveto
            return
          </CharString>
          <CharString index="253">
            -13 -9 -11 -13 hvcurveto
            -587 vlineto
            -9 4 -3 7 vhcurveto
            26 hlineto
            7 4 3 9 hvcurveto
            560 vlineto
            6 3 3 7 vhcurveto
            84 hlineto
            9 3 4 8 hvcurveto
            19 vlineto
            7 -3 4 -9 vhcurveto
            return
          </CharString>
          <CharString index="254">
            64 35 35 63 vhcurveto
            46 hlineto
            8 4 4 7 hvcurveto
            22 vlineto
            7 -4 4 -8 vhcurveto
            -50 hlineto
            -87 0 -54 -53 -1 -88 rrcurveto
            -106 vlineto
            -88 55 -53 87 vhcurveto
            35 hlineto
            47 0 33 15 17 32 rrcurveto
            4 -128 hlineto
            -9 4 -3 7 vhcurveto
            25 hlineto
            7 4 3 9 hvcurveto
            307 vlineto
            return
          </CharString>
          <CharString index="255">
            -6 -2 -4 -7 vhcurveto
            -228 4 hlineto
            24 15 13 33 0 44 rrcurveto
            152 vlineto
            6 2 3 7 vhcurveto
            182 hlineto
            7 2 -3 -6 hvcurveto
            return
          </CharString>
          <CharString index="256">
            -9 -3 -4 -7 hvcurveto
            -19 vlineto
            -8 3 -4 9 vhcurveto
            201 hlineto
            7 2 -3 -6 hvcurveto
            -156 vlineto
            -68 -36 -20 -45 vhcurveto
            -80 hlineto
            -9 -4 -5 -8 hvcurveto
            0 -32 19 -24 168 -248 rlineto
            4 -6 5 -5 7 0 rrcurveto
            27 hlineto
            7 4 4 6 hvcurveto
            0 4 -2 3 -3 4 rrcurveto
            -178 263 42 0 rlineto
            71 1 51 40 0 90 rrcurveto
            157 vlineto
            6 2 3 7 vhcurveto
            570 hlineto
            7 2 -3 -6 hvcurveto
            -148 vlineto
            -6 -2 -3 -7 vhcurveto
            -146 hlineto
            -80 -55 -41 -98 hvcurveto
            -94 -97 vlineto
            -62 -28 34 64 hvcurveto
            36 vlineto
            return
          </CharString>
          <CharString index="257">
            64 27 33 62 vhcurveto
            16 hlineto
            9 3 4 7 hvcurveto
            21 vlineto
            8 -3 4 -9 vhcurveto
            -18 hlineto
            -87 -48 -53 -84 hvcurveto
            -43 vlineto
            -85 47 -53 85 vhcurveto
            103 hlineto
            -98 60 -41 79 vhcurveto
            20 hlineto
            8 4 4 7 hvcurveto
            21 vlineto
            7 -4 4 -8 vhcurveto
            -14 hlineto
            -52 -45 21 74 hvcurveto
            137 vlineto
            return
          </CharString>
          <CharString index="258">
            73 39 22 51 vhcurveto
            143 hlineto
            7 2 -3 -6 hvcurveto
            -349 vlineto
            -9 4 -3 8 vhcurveto
            25 hlineto
            8 4 3 9 hvcurveto
            560 vlineto
            6 2 3 7 vhcurveto
            84 hlineto
            10 2 4 8 hvcurveto
            19 vlineto
            7 -2 4 -10 vhcurveto
            return
          </CharString>
          <CharString index="259">
            -9 -3 -4 -7 hvcurveto
            -19 vlineto
            -8 3 -4 9 vhcurveto
            201 hlineto
            7 2 -3 -6 hvcurveto
            -156 vlineto
            -68 -36 -20 -45 vhcurveto
            -80 hlineto
            -9 -4 -5 -8 hvcurveto
            0 -32 19 -24 168 -248 rlineto
            4 -6 5 -5 7 0 rrcurveto
            27 hlineto
            7 4 4 6 hvcurveto
            0 4 -2 3 -3 4 rrcurveto
            -178 263 42 0 rlineto
            71 1 51 40 0 90 rrcurveto
            157 vlineto
            6 2 3 7 vhcurveto
            279 hlineto
            7 3 -3 -6 hvcurveto
            -317 vlineto
            -59 -29 -18 -57 vhcurveto
            -9 hlineto
            -64 -28 35 63 hvcurveto
            40 vlineto
            64 27 33 62 vhcurveto
            16 hlineto
            9 3 4 7 hvcurveto
            21 vlineto
            8 -3 4 -9 vhcurveto
            -18 hlineto
            -87 -48 -53 -84 hvcurveto
            -44 vlineto
            -89 51 -52 87 vhcurveto
            14 hlineto
            86 0 44 40 1 79 rrcurveto
            0 1 0 36 rlineto
            return
          </CharString>
          <CharString index="260">
            6 2 4 8 vhcurveto
            203 hlineto
            8 2 -4 -6 hvcurveto
            -279 vlineto
            -9 4 -3 7 vhcurveto
            26 hlineto
            7 4 3 9 hvcurveto
            560 vlineto
            6 3 3 7 vhcurveto
            84 hlineto
            9 3 4 8 hvcurveto
            19 vlineto
            7 -3 4 -9 vhcurveto
            return
          </CharString>
          <CharString index="261">
            -6 -2 -4 -8 vhcurveto
            -204 hlineto
            -6 -3 3 7 hvcurveto
            219 vlineto
            6 2 3 8 vhcurveto
            204 hlineto
            7 2 -3 -6 hvcurveto
            return
          </CharString>
          <CharString index="262">
            -9 4 -3 8 vhcurveto
            25 hlineto
            7 4 3 9 hvcurveto
            51 vlineto
            60 23 23 60 59 23 -24 -59 vhcurveto
            -89 vlineto
            return
          </CharString>
          <CharString index="263">
            -72 -39 -23 -50 vhcurveto
            -176 hlineto
            -9 -4 -4 -8 hvcurveto
            0 -32 20 -24 15 -21 -2 -2 rlineto
            -24 -24 -19 -17 -46 0 rrcurveto
            -5 hlineto
            -62 -28 34 64 hvcurveto
            36 vlineto
            64 27 33 62 vhcurveto
            16 hlineto
            9 3 4 7 hvcurveto
            21 vlineto
            8 -3 4 -9 vhcurveto
            -18 hlineto
            -87 -48 -53 -84 hvcurveto
            -43 vlineto
            -85 47 -53 85 vhcurveto
            12 hlineto
            55 0 34 25 23 27 rrcurveto
            124 -181 rlineto
            4 -6 4 -4 8 0 rrcurveto
            27 hlineto
            7 4 4 5 hvcurveto
            0 3 -1 3 -2 3 rrcurveto
            -175 253 133 0 rlineto
            83 53 43 95 hvcurveto
            89 vlineto
            86 -47 39 -83 -85 -46 -39 -86 vhcurveto
            return
          </CharString>
          <CharString index="264">
            42 hlineto
            71 1 51 40 0 90 rrcurveto
            157 vlineto
            6 2 3 7 vhcurveto
            230 hlineto
            9 3 4 8 hvcurveto
            19 vlineto
            7 -3 4 -9 vhcurveto
            -497 hlineto
            -9 -3 -4 -7 hvcurveto
            -19 vlineto
            -8 3 -4 9 vhcurveto
            201 hlineto
            7 2 -3 -6 hvcurveto
            -156 vlineto
            -68 -36 -20 -45 vhcurveto
            -80 hlineto
            -9 -4 -5 -8 hvcurveto
            0 -32 19 -24 168 -248 rlineto
            4 -6 5 -5 7 0 rrcurveto
            27 hlineto
            7 4 4 6 hvcurveto
            0 4 -2 3 -3 4 rrcurveto
            return
          </CharString>
          <CharString index="265">
            -23 -17 -16 -27 0 -44 rrcurveto
            -84 47 -45 84 vhcurveto
            104 hlineto
            85 54 56 87 hvcurveto
            115 vlineto
            return
          </CharString>
          <CharString index="266">
            19 26 11 34 0 40 rrcurveto
            80 vlineto
            0 49 -14 34 -28 20 rrcurveto
            return
          </CharString>
          <CharString index="267">
            7 9 5 14 0 17 rrcurveto
            89 vlineto
            5 3 3 7 vhcurveto
            95 hlineto
            9 1 3 3 0 8 rrcurveto
            19 vlineto
            7 -3 4 -9 vhcurveto
            return
          </CharString>
          <CharString index="268">
            -64 -25 28 61 42 21 31 55 hvcurveto
            136 hlineto
            25 0 23 5 19 9 rrcurveto
            -77 vlineto
            -61 -32 -38 -65 vhcurveto
            return
          </CharString>
          <CharString index="269">
            9 3 4 8 hvcurveto
            22 vlineto
            7 -3 4 -9 vhcurveto
            -290 hlineto
            -9 -3 -4 -7 hvcurveto
            -23 vlineto
            -7 3 -4 9 vhcurveto
            58 hlineto
            49 40 -21 -73 hvcurveto
            -72 vlineto
            -71 -34 -24 -55 vhcurveto
            -100 hlineto
            -8 -4 -4 -8 hvcurveto
            -21 vlineto
            -7 4 -4 8 vhcurveto
            108 hlineto
            77 52 42 94 hvcurveto
            76 vlineto
            0 43 -13 31 -28 15 rrcurveto
            4 vlineto
            return
          </CharString>
          <CharString index="270">
            -88 56 -52 86 vhcurveto
            43 hlineto
            47 0 35 14 17 32 rrcurveto
            4 -122 hlineto
            -9 4 -3 7 vhcurveto
            26 hlineto
            7 4 3 9 hvcurveto
            560 vlineto
            6 2 3 8 vhcurveto
            84 hlineto
            9 3 4 8 hvcurveto
            19 vlineto
            7 -3 4 -9 vhcurveto
            return
          </CharString>
          <CharString index="271">
            6 2 3 8 vhcurveto
            203 hlineto
            8 2 -3 -6 hvcurveto
            -273 vlineto
            -9 4 -3 7 vhcurveto
            26 hlineto
            7 4 3 9 hvcurveto
            560 vlineto
            6 3 3 7 vhcurveto
            84 hlineto
            9 3 4 8 hvcurveto
            19 vlineto
            7 -3 4 -9 vhcurveto
            return
          </CharString>
          <CharString index="272">
            -9 -3 -4 -7 hvcurveto
            -19 vlineto
            -8 3 -4 9 vhcurveto
            332 hlineto
            7 3 -3 -6 hvcurveto
            -82 vlineto
            -6 -3 -3 -7 vhcurveto
            -129 hlineto
            -80 -46 -29 -75 hvcurveto
            -6 vlineto
            -76 43 -27 83 vhcurveto
            88 hlineto
            return
          </CharString>
          <CharString index="273">
            14 11 10 16 hvcurveto
            109 vlineto
            6 2 3 8 vhcurveto
            98 hlineto
            9 3 4 8 hvcurveto
            19 vlineto
            7 -3 4 -9 vhcurveto
            return
          </CharString>
          <CharString index="274">
            -62 -34 -36 -64 vhcurveto
            -41 hlineto
            -62 -33 34 63 hvcurveto
            253 vlineto
            6 2 3 8 vhcurveto
            214 hlineto
            7 3 -3 -6 hvcurveto
            return
          </CharString>
          <CharString index="275">
            -69 -41 -43 -73 vhcurveto
            -81 hlineto
            -73 -40 42 71 hvcurveto
            80 20 vlineto
            79 50 36 90 hvcurveto
            26 vlineto
            0 41 -12 30 -24 14 rrcurveto
            4 186 vlineto
            7 2 -3 -6 hvcurveto
            return
          </CharString>
          <CharString index="276">
            61 85 vlineto
            82 53 39 95 hvcurveto
            53 vlineto
            80 -51 36 -71 vhcurveto
            return
          </CharString>
          <CharString index="277">
            13 10 10 15 hvcurveto
            128 vlineto
            6 2 3 7 vhcurveto
            83 hlineto
            9 3 4 8 hvcurveto
            19 vlineto
            7 -3 4 -9 vhcurveto
            return
          </CharString>
          <CharString index="278">
            -64 -33 36 63 hvcurveto
            89 vlineto
            64 33 37 63 vhcurveto
            163 hlineto
            14 10 10 15 hvcurveto
            128 vlineto
            6 2 3 7 vhcurveto
            75 hlineto
            9 3 4 8 hvcurveto
            19 vlineto
            7 -3 4 -9 vhcurveto
            return
          </CharString>
          <CharString index="279">
            -5 -3 -4 -7 vhcurveto
            -205 hlineto
            -5 -3 3 7 hvcurveto
            225 vlineto
            6 2 3 7 vhcurveto
            204 hlineto
            7 3 -3 -6 hvcurveto
            return
          </CharString>
          <CharString index="280">
            -69 -41 -43 -73 vhcurveto
            -81 hlineto
            -73 -40 42 71 hvcurveto
            91 20 vlineto
            79 50 36 90 hvcurveto
            15 vlineto
            0 41 -12 30 -24 14 rrcurveto
            4 186 vlineto
            7 2 -3 -6 hvcurveto
            return
          </CharString>
          <CharString index="281">
            -9 -3 -4 -7 hvcurveto
            -19 vlineto
            -7 3 -4 9 vhcurveto
            38 hlineto
            return
          </CharString>
          <CharString index="282">
            56 23 -27 -57 hvcurveto
            -121 vlineto
            -64 -33 -36 -63 vhcurveto
            -152 hlineto
            -62 -26 27 63 hvcurveto
            42 vlineto
            56 26 29 58 vhcurveto
            40 hlineto
            9 3 5 6 hvcurveto
            22 vlineto
            7 -3 4 -9 vhcurveto
            -42 hlineto
            -54 -28 29 54 hvcurveto
            62 vlineto
            59 23 29 58 vhcurveto
            217 hlineto
            return
          </CharString>
          <CharString index="283">
            8 2 -3 -6 hvcurveto
            -123 vlineto
            0 -8 -1 -7 -2 -6 -14 3 -15 2 -17 0 rrcurveto
            return
          </CharString>
          <CharString index="284">
            -9 -3 -4 -7 hvcurveto
            -19 vlineto
            -8 3 -4 9 vhcurveto
            76 hlineto
            5 -1 3 -3 0 -5 rrcurveto
            -250 vlineto
            -86 55 -52 84 vhcurveto
            29 hlineto
            48 0 33 14 17 32 rrcurveto
            4 -218 hlineto
            -9 4 -3 8 vhcurveto
            24 hlineto
            8 4 3 9 hvcurveto
            286 vlineto
            60 34 33 61 vhcurveto
            78 hlineto
            9 3 4 7 hvcurveto
            23 vlineto
            7 -3 4 -9 vhcurveto
            -72 hlineto
            -48 0 -36 -17 -13 -30 rrcurveto
            -4 183 hlineto
            6 2 3 7 vhcurveto
            542 hlineto
            7 2 -3 -6 hvcurveto
            -127 vlineto
            -6 -3 -3 -7 vhcurveto
            -278 hlineto
            -9 -3 -4 -7 hvcurveto
            -23 vlineto
            -7 3 -4 9 vhcurveto
            22 hlineto
            49 40 -21 -73 hvcurveto
            -88 vlineto
            -71 -34 -24 -54 vhcurveto
            -111 hlineto
            -9 -3 -4 -8 hvcurveto
            -21 vlineto
            -7 3 -4 9 vhcurveto
            118 hlineto
            77 52 42 94 hvcurveto
            92 vlineto
            0 43 -13 31 -28 15 rrcurveto
            4 160 vlineto
            7 3 -3 -6 hvcurveto
            -370 vlineto
            -9 4 -3 7 vhcurveto
            26 hlineto
            7 4 3 9 hvcurveto
            560 vlineto
            6 2 3 8 vhcurveto
            84 hlineto
            9 3 4 8 hvcurveto
            19 vlineto
            7 -3 4 -9 vhcurveto
            return
          </CharString>
          <CharString index="285">
            -48 0 -36 -17 -13 -30 rrcurveto
            -4 167 hlineto
            6 2 3 7 vhcurveto
            182 hlineto
            5 -1 3 -3 0 -5 rrcurveto
            -120 vlineto
            return
          </CharString>
          <CharString index="286">
            71 32 27 61 59 33 -25 -70 vhcurveto
            -89 vlineto
            -8 4 -4 8 vhcurveto
            24 hlineto
            7 4 4 8 hvcurveto
            87 vlineto
            74 34 23 59 60 32 -25 -72 vhcurveto
            -289 vlineto
            -9 4 -3 8 vhcurveto
            25 hlineto
            7 5 3 9 hvcurveto
            560 vlineto
            6 2 3 7 vhcurveto
            84 hlineto
            9 3 4 8 hvcurveto
            19 vlineto
            7 -3 4 -9 vhcurveto
            return
          </CharString>
          <CharString index="287">
            -9 -3 -4 -7 hvcurveto
            -19 vlineto
            -8 3 -4 9 vhcurveto
            736 hlineto
            7 2 -3 -6 hvcurveto
            -143 vlineto
            -6 -2 -3 -8 vhcurveto
            -314 hlineto
            -9 -3 -4 -7 hvcurveto
            -23 vlineto
            -7 3 -4 9 vhcurveto
            59 hlineto
            49 40 -21 -73 hvcurveto
            -72 vlineto
            -71 -35 -24 -54 vhcurveto
            -85 0 -249 288 rlineto
            return
          </CharString>
          <CharString index="288">
            16 12 21 6 27 0 rrcurveto
            56 hlineto
            9 3 4 7 hvcurveto
            22 vlineto
            7 -3 5 -9 vhcurveto
            -59 hlineto
            -87 0 -54 -53 -1 -88 rrcurveto
            -114 vlineto
            -88 56 -52 86 vhcurveto
            280 hlineto
            77 52 42 94 hvcurveto
            76 vlineto
            0 43 -12 31 -29 15 rrcurveto
            return
          </CharString>
          <CharString index="289">
            4 160 vlineto
            8 2 -3 -6 hvcurveto
            -354 vlineto
            -9 4 -3 7 vhcurveto
            26 hlineto
            7 4 3 9 hvcurveto
            560 vlineto
            6 3 3 7 vhcurveto
            84 hlineto
            9 3 4 8 hvcurveto
            19 vlineto
            7 -3 4 -9 vhcurveto
            return
          </CharString>
          <CharString index="290">
            0 20 3 17 7 14 rrcurveto
            223 -258 -136 0 rlineto
            -64 -33 35 64 hvcurveto
            return
          </CharString>
          <CharString index="291">
            64 33 37 63 vhcurveto
            163 hlineto
            14 10 10 15 hvcurveto
            128 vlineto
            6 2 3 7 vhcurveto
            83 hlineto
            8 4 4 8 hvcurveto
            19 vlineto
            7 -4 4 -8 vhcurveto
            return
          </CharString>
          <CharString index="292">
            26 -38 45 -23 59 0 rrcurveto
            83 hlineto
            52 0 42 19 17 34 rrcurveto
            4 -145 hlineto
            -9 4 -3 7 vhcurveto
            26 hlineto
            7 4 3 9 hvcurveto
            560 vlineto
            6 3 3 7 vhcurveto
            84 hlineto
            9 3 4 8 hvcurveto
            19 vlineto
            7 -3 4 -9 vhcurveto
            return
          </CharString>
          <CharString index="293">
            -9 -3 -4 -7 hvcurveto
            -46 -202 vlineto
            -6 -3 3 7 hvcurveto
            225 vlineto
            6 2 3 8 vhcurveto
            264 hlineto
            63 23 -26 -60 hvcurveto
            -12 vlineto
            -68 -26 -21 -60 vhcurveto
            return
          </CharString>
          <CharString index="294">
            -55 0 -41 -20 -16 -47 rrcurveto
            -4 hlineto
            -16 49 -44 18 -55 0 rrcurveto
            -84 -55 -44 -97 hvcurveto
            -124 vlineto
            return
          </CharString>
          <CharString index="295">
            -96 55 -44 87 vhcurveto
            51 hlineto
            9 4 3 8 hvcurveto
            return
          </CharString>
          <CharString index="296">
            8 -4 4 -9 vhcurveto
            -47 hlineto
            -64 -34 27 71 hvcurveto
            120 vlineto
            71 32 27 61 59 33 -25 -70 vhcurveto
            -89 vlineto
            -8 4 -4 8 vhcurveto
            24 hlineto
            7 4 4 8 hvcurveto
            87 vlineto
            74 34 23 59 vhcurveto
            30 hlineto
            9 3 4 7 hvcurveto
            22 vlineto
            8 -3 4 -9 vhcurveto
            return
          </CharString>
          <CharString index="297">
            -72 -47 -38 -75 hvcurveto
            -44 vlineto
            -9 4 -3 7 vhcurveto
            24 hlineto
            7 4 3 9 hvcurveto
            41 vlineto
            52 28 21 46 46 28 -21 -52 vhcurveto
            -74 vlineto
            -68 -36 -23 -53 vhcurveto
            -95 hlineto
            -10 55 -40 45 -73 0 -57 0 -41 -20 -16 -47 rrcurveto
            -4 hlineto
            -16 49 -44 18 -55 0 rrcurveto
            -84 -55 -44 -97 hvcurveto
            -124 vlineto
            -96 55 -44 87 vhcurveto
            51 hlineto
            9 4 3 8 hvcurveto
            21 vlineto
            8 -4 4 -9 vhcurveto
            -47 hlineto
            -64 -34 27 71 hvcurveto
            120 vlineto
            71 32 27 61 59 33 -25 -70 vhcurveto
            -89 vlineto
            -8 4 -4 8 vhcurveto
            24 hlineto
            7 4 4 8 hvcurveto
            87 vlineto
            74 36 23 55 vhcurveto
            return
          </CharString>
          <CharString index="298">
            7 -3 4 -9 vhcurveto
            -470 hlineto
            -9 -3 -4 -7 hvcurveto
            -19 vlineto
            -8 3 -4 9 vhcurveto
            470 hlineto
            9 3 4 8 hvcurveto
            return
          </CharString>
          <CharString index="299">
            56 26 22 58 vhcurveto
            156 hlineto
            14 11 9 17 hvcurveto
            118 vlineto
            6 3 3 7 vhcurveto
            81 hlineto
            9 3 4 8 hvcurveto
            19 vlineto
            7 -3 4 -9 vhcurveto
            return
          </CharString>
          <CharString index="300">
            -64 -32 -31 -63 vhcurveto
            -7 hlineto
            -63 -32 31 64 hvcurveto
            125 vlineto
            64 32 31 63 vhcurveto
            7 hlineto
            63 32 -31 -64 hvcurveto
            return
          </CharString>
          <CharString index="301">
            6 2 3 7 vhcurveto
            332 hlineto
            8 4 4 8 hvcurveto
            19 vlineto
            7 -4 4 -8 vhcurveto
            -672 hlineto
            -9 -3 -4 -7 hvcurveto
            -19 vlineto
            -8 3 -4 9 vhcurveto
            273 hlineto
            7 3 -3 -6 hvcurveto
            -342 vlineto
            -59 -35 -34 -61 vhcurveto
            -35 hlineto
            -64 -35 35 64 hvcurveto
            102 vlineto
            64 35 35 63 vhcurveto
            46 hlineto
            9 3 4 7 hvcurveto
            22 vlineto
            7 -3 4 -9 vhcurveto
            -50 hlineto
            -87 0 -54 -53 -1 -88 rrcurveto
            -106 vlineto
            -88 55 -53 87 vhcurveto
            35 hlineto
            47 0 33 15 17 32 rrcurveto
            4 -128 hlineto
            -9 4 -3 7 vhcurveto
            25 hlineto
            7 5 3 9 hvcurveto
            332 vlineto
            60 34 33 61 vhcurveto
            36 hlineto
            63 35 -35 -64 hvcurveto
            -102 vlineto
            -64 -34 -35 -63 vhcurveto
            -46 hlineto
            -9 -3 -4 -7 hvcurveto
            -21 vlineto
            -8 3 -4 9 vhcurveto
            49 hlineto
            87 55 53 88 hvcurveto
            106 vlineto
            88 -55 53 -87 vhcurveto
            -34 hlineto
            -48 0 -36 -17 -13 -30 rrcurveto
            -4 hlineto
            return
          </CharString>
          <CharString index="302">
            -9 -3 -4 -7 hvcurveto
            -19 vlineto
            -8 3 -4 9 vhcurveto
            71 hlineto
            7 2 -3 -6 hvcurveto
            -140 vlineto
            0 -53 23 -35 33 -18 rrcurveto
            -4 vlineto
            return
          </CharString>
          <CharString index="303">
            -41 -16 -26 -43 0 -66 rrcurveto
            -65 vlineto
            -87 55 -58 89 vhcurveto
            87 hlineto
            87 56 54 89 hvcurveto
            39 vlineto
            10 -4 3 -7 vhcurveto
            -24 hlineto
            -7 -4 -3 -10 hvcurveto
            -38 vlineto
            -64 -36 -36 -63 vhcurveto
            -82 hlineto
            -64 -35 37 64 hvcurveto
            64 vlineto
            64 29 36 63 vhcurveto
            148 hlineto
            return
          </CharString>
          <CharString index="304">
            42 20 23 35 hvcurveto
            218 vlineto
            6 2 3 7 vhcurveto
            69 hlineto
            9 4 4 8 hvcurveto
            19 vlineto
            7 -4 4 -9 vhcurveto
            return
          </CharString>
          <CharString index="305">
            7 3 -3 -6 hvcurveto
            0 -194 -236 203 1 0 rlineto
            return
          </CharString>
          <CharString index="306">
            -61 -32 32 63 hvcurveto
            0 108 234 -202 rlineto
            -2 -1 -2 0 -3 0 rrcurveto
            return
          </CharString>
          <CharString index="307">
            23 26 12 -10 -2 0 rlineto
            -7 -3 -3 -6 hvcurveto
            -27 vlineto
            return
          </CharString>
          <CharString index="308">
            -64 -30 -38 -64 vhcurveto
            -87 hlineto
            -63 -31 38 64 hvcurveto
            55 vlineto
            64 21 37 63 vhcurveto
            106 hlineto
            63 22 -37 -64 hvcurveto
            return
          </CharString>
          <CharString index="309">
            -10 8 rlineto
            11 7 7 10 5 13 rrcurveto
            9 -8 rlineto
            return
          </CharString>
          <CharString index="310">
            -9 -3 -4 -7 hvcurveto
            -19 vlineto
            -8 3 -4 9 vhcurveto
            76 hlineto
            5 -1 3 -3 0 -5 rrcurveto
            -260 vlineto
            -86 55 -52 84 vhcurveto
            46 hlineto
            57 0 44 37 28 31 21 -43 42 -20 54 0 rrcurveto
            24 hlineto
            78 54 40 96 hvcurveto
            257 vlineto
            5 2 4 6 vhcurveto
            154 hlineto
            7 3 -3 -6 hvcurveto
            -560 vlineto
            -9 4 -3 7 vhcurveto
            25 hlineto
            8 4 3 9 hvcurveto
            560 vlineto
            6 2 3 7 vhcurveto
            84 hlineto
            10 3 4 8 hvcurveto
            19 vlineto
            7 -3 4 -10 vhcurveto
            return
          </CharString>
          <CharString index="311">
            243 hlineto
            7 3 -3 -6 hvcurveto
            -257 vlineto
            0 -8 0 -8 1 -7 rrcurveto
            return
          </CharString>
          <CharString index="312">
            -9 -3 -4 -7 hvcurveto
            -19 vlineto
            -8 3 -4 9 vhcurveto
            337 hlineto
            7 2 -3 -6 hvcurveto
            -92 vlineto
            -6 -2 -3 -8 vhcurveto
            -128 hlineto
            -82 -45 -37 -81 hvcurveto
            0 -56 21 -32 39 -14 rrcurveto
            -4 vlineto
            -40 -17 -25 -36 0 -63 rrcurveto
            -31 vlineto
            -88 53 -53 95 vhcurveto
            163 hlineto
            9 3 3 8 hvcurveto
            20 vlineto
            7 -3 4 -9 vhcurveto
            -160 hlineto
            -69 -34 35 65 hvcurveto
            29 vlineto
            62 30 38 60 vhcurveto
            69 hlineto
            return
          </CharString>
          <CharString index="313">
            -8 -3 -3 -8 hvcurveto
            -34 vlineto
            -8 3 -4 8 vhcurveto
            30 hlineto
            7 4 4 8 hvcurveto
            34 vlineto
            8 -4 3 -7 vhcurveto
            return
          </CharString>
          <CharString index="314">
            -7 -4 -3 -8 hvcurveto
            -34 vlineto
            -8 4 -4 7 vhcurveto
            30 hlineto
            8 3 4 8 hvcurveto
            34 vlineto
            8 -4 3 -7 vhcurveto
            return
          </CharString>
          <CharString index="315">
            -7 -4 -3 -9 hvcurveto
            -34 vlineto
            -8 4 -3 7 vhcurveto
            31 hlineto
            7 4 3 8 hvcurveto
            34 vlineto
            9 -4 3 -7 vhcurveto
            return
          </CharString>
          <CharString index="316">
            -7 -3 -4 -8 hvcurveto
            -34 vlineto
            -8 3 -4 7 vhcurveto
            31 hlineto
            7 4 4 8 hvcurveto
            34 vlineto
            8 -4 4 -7 vhcurveto
            return
          </CharString>
          <CharString index="317">
            -9 -4 -4 -7 hvcurveto
            -19 vlineto
            -8 4 -4 9 vhcurveto
            94 hlineto
            9 3 4 8 hvcurveto
            19 vlineto
            7 -3 4 -9 vhcurveto
            return
          </CharString>
          <CharString index="318">
            -65 -37 -24 -42 vhcurveto
            -30 16 hlineto
            return
          </CharString>
          <CharString index="319">
            89 -53 52 -82 vhcurveto
            -32 hlineto
            -48 0 -36 -17 -14 -30 rrcurveto
            -4 138 hlineto
            6 3 3 7 vhcurveto
            358 hlineto
            7 3 -3 -6 hvcurveto
            return
          </CharString>
          <CharString index="320">
            -65 -37 -24 -42 vhcurveto
            -30 16 hlineto
            88 -53 53 -81 vhcurveto
            -33 hlineto
            -48 0 -36 -17 -14 -30 rrcurveto
            -4 138 hlineto
            6 3 3 7 vhcurveto
            358 hlineto
            7 3 -3 -6 hvcurveto
            return
          </CharString>
          <CharString index="321">
            -69 -41 -43 -73 vhcurveto
            -81 hlineto
            -73 -40 42 71 hvcurveto
            91 20 vlineto
            80 49 36 90 hvcurveto
            15 vlineto
            0 41 -12 30 -24 14 rrcurveto
            4 186 vlineto
            7 2 -3 -6 hvcurveto
            return
          </CharString>
          <CharString index="322">
            -69 -41 -43 -74 vhcurveto
            -80 hlineto
            -74 -40 42 71 hvcurveto
            91 21 vlineto
            79 49 36 90 hvcurveto
            15 vlineto
            0 41 -11 30 -24 14 rrcurveto
            4 185 vlineto
            7 3 -3 -6 hvcurveto
            return
          </CharString>
          <CharString index="323">
            60 35 33 61 vhcurveto
            98 -100 hlineto
            -91 59 -65 99 vhcurveto
            83 hlineto
            52 0 42 19 17 34 rrcurveto
            4 -153 hlineto
            -9 4 -3 7 vhcurveto
            26 hlineto
            7 4 3 9 hvcurveto
            560 vlineto
            6 3 3 7 vhcurveto
            84 hlineto
            9 3 4 8 hvcurveto
            19 vlineto
            7 -3 4 -9 vhcurveto
            return
          </CharString>
          <CharString index="324">
            -72 -47 -38 -75 hvcurveto
            -46 vlineto
            -9 4 -3 7 vhcurveto
            24 hlineto
            7 4 3 9 hvcurveto
            43 vlineto
            52 28 21 46 46 28 -21 -52 vhcurveto
            -52 vlineto
            -68 -35 -23 -53 vhcurveto
            -301 hlineto
            -63 -34 -40 -55 hvcurveto
            0 -21 5 -26 8 -23 3 -10 6 -4 9 0 rrcurveto
            21 hlineto
            6 4 3 6 hvcurveto
            0 4 -1 4 -3 8 -5 17 -5 18 0 18 rrcurveto
            35 19 22 41 vhcurveto
            return
          </CharString>
          <CharString index="325">
            7 -3 4 -9 vhcurveto
            -247 hlineto
            -9 -3 -4 -7 hvcurveto
            -19 vlineto
            -8 3 -4 9 vhcurveto
            247 hlineto
            9 3 4 8 hvcurveto
            return
          </CharString>
          <CharString index="326">
            -129 -186 vlineto
            -64 -33 -40 -55 hvcurveto
            0 -21 5 -27 8 -22 3 -10 6 -5 9 0 rrcurveto
            20 hlineto
            7 3 4 6 hvcurveto
            0 4 -1 4 -2 8 -6 17 -4 18 0 18 rrcurveto
            35 18 23 41 vhcurveto
            176 -146 hlineto
            -9 4 -3 8 vhcurveto
            25 hlineto
            8 4 3 9 hvcurveto
            99 vlineto
            return
          </CharString>
          <CharString index="327">
            -59 -35 -34 -61 vhcurveto
            -35 hlineto
            -64 -35 35 64 hvcurveto
            102 vlineto
            64 35 35 63 vhcurveto
            46 hlineto
            8 4 4 7 hvcurveto
            22 vlineto
            7 -4 4 -8 vhcurveto
            -50 hlineto
            -87 0 -54 -53 -1 -88 rrcurveto
            -16 -222 4 vlineto
            24 15 13 33 0 44 rrcurveto
            152 vlineto
            6 2 3 7 vhcurveto
            444 hlineto
            7 3 -3 -6 hvcurveto
            return
          </CharString>
          <CharString index="328">
            -43 25 -32 36 0 60 rrcurveto
            66 26 22 62 63 23 -22 -66 vhcurveto
            0 -49 -22 -46 -58 -37 rrcurveto
            return
          </CharString>
          <CharString index="329">
            -59 -30 -37 -66 vhcurveto
            -60 hlineto
            -9 -3 -4 -8 hvcurveto
            -21 vlineto
            -7 3 -4 9 vhcurveto
            60 hlineto
            64 32 -36 -65 hvcurveto
            -35 vlineto
            -65 -34 -37 -62 vhcurveto
            -32 hlineto
            -63 -35 36 65 hvcurveto
            36 vlineto
            9 -4 4 -7 vhcurveto
            -25 hlineto
            -8 -4 -4 -9 hvcurveto
            -37 vlineto
            -89 56 -55 87 vhcurveto
            37 hlineto
            89 53 56 88 hvcurveto
            46 vlineto
            return
          </CharString>
          <CharString index="330">
            80 39 40 83 hvcurveto
            6 vlineto
            10 -4 4 -8 vhcurveto
            -21 hlineto
            -7 -5 -3 -10 hvcurveto
            -7 vlineto
            -59 -20 -22 -59 vhcurveto
            -67 hlineto
            -59 -20 22 59 hvcurveto
            7 vlineto
            10 -4 3 -8 vhcurveto
            -21 hlineto
            -8 -4 -4 -10 hvcurveto
            -6 vlineto
            -83 39 -40 80 vhcurveto
            return
          </CharString>
          <CharString index="331">
            7 4 3 9 hvcurveto
            33 vlineto
            8 -4 3 -7 vhcurveto
            -26 hlineto
            -7 -4 -3 -8 hvcurveto
            -33 vlineto
            -9 4 -3 7 vhcurveto
            return
          </CharString>
        <CharString name=".notdef">
          103 0 46 490 46 hstem
          120 50 260 50 vstem
          170 536 rmoveto
          260 -490 -260 hlineto
          -50 -46 rmoveto
          360 582 -360 hlineto
          endchar
        </CharString>
        <CharString name="A">
          36 21 -21 172 45 hstem
          68 hmoveto
          -97 callsubr
          227 588 rmoveto
          -96 callsubr
          endchar
        </CharString>
        <CharString name="AE">
          276 0 45 127 47 86 45 248 45 hstem
          377 51 vstem
          42 hmoveto
          -44 callsubr
          365 589 rmoveto
          4 -370 -207 hlineto
          endchar
        </CharString>
        <CharString name="AEacute">
          276 0 45 127 47 86 45 248 45 hstem
          377 51 vstem
          485 836 rmoveto
          -45 callsubr
          -488 -836 rmoveto
          -44 callsubr
          365 589 rmoveto
          4 -370 -207 hlineto
          endchar
        </CharString>
        <CharString name="Aacute">
          35 21 -21 172 45 hstem
          336 836 rmoveto
          -45 callsubr
          -313 -836 rmoveto
          -97 callsubr
          227 588 rmoveto
          -96 callsubr
          endchar
        </CharString>
        <CharString name="Abreve">
          35 21 -21 172 45 490 31 hstem
          166 37 127 36 vstem
          166 826 rmoveto
          -12 vlineto
          -74 31 -33 63 vhcurveto
          11 hlineto
          63 32 33 74 hvcurveto
          11 vlineto
          8 -4 2 -6 vhcurveto
          -17 hlineto
          -5 -4 -2 -8 hvcurveto
          -10 vlineto
          -56 -16 -21 -46 vhcurveto
          -5 hlineto
          -44 -16 20 57 hvcurveto
          11 vlineto
          8 -3 2 -6 vhcurveto
          -19 hlineto
          -5 -4 -2 -8 hvcurveto
          -98 -826 rmoveto
          -97 callsubr
          227 588 rmoveto
          -96 callsubr
          endchar
        </CharString>
        <CharString name="Acircumflex">
          35 21 -21 172 45 hstem
          297 827 rmoveto
          -5 7 -6 2 -9 0 rrcurveto
          -22 hlineto
          -9 0 -5 -2 -5 -7 rrcurveto
          -64 -109 rlineto
          -4 -6 1 -5 8 0 rrcurveto
          24 hlineto
          6 0 4 1 2 5 rrcurveto
          53 97 54 -97 rlineto
          2 -5 4 -1 6 0 rrcurveto
          24 hlineto
          7 0 1 5 -4 6 rrcurveto
          -292 -718 rmoveto
          -97 callsubr
          227 588 rmoveto
          -96 callsubr
          endchar
        </CharString>
        <CharString name="Adieresis">
          35 21 -21 172 45 490 129 hstem
          160 49 114 49 vstem
          160 719 rmoveto
          -48 callsubr
          163 -106 rmoveto
          -48 callsubr
          -255 -825 rmoveto
          -97 callsubr
          227 588 rmoveto
          -96 callsubr
          endchar
        </CharString>
        <CharString name="Agrave">
          35 21 -21 172 45 hstem
          214 825 rmoveto
          -4 8 -6 3 -8 0 rrcurveto
          -44 hlineto
          -7 0 -4 -5 5 -6 rrcurveto
          90 -109 rlineto
          4 -6 6 -3 6 0 rrcurveto
          21 hlineto
          6 0 2 4 -4 8 rrcurveto
          -209 -719 rmoveto
          -97 callsubr
          227 588 rmoveto
          -96 callsubr
          endchar
        </CharString>
        <CharString name="Amacron">
          35 21 -21 172 45 535 40 hstem
          368 752 rmoveto
          -19 callsubr
          -97 -752 rmoveto
          -97 callsubr
          227 588 rmoveto
          -96 callsubr
          endchar
        </CharString>
        <CharString name="Aogonek">
          35 -106 36 91 -21 172 45 hstem
          304 631 rmoveto
          -3 9 -4 3 -7 0 rrcurveto
          -47 hlineto
          -7 0 -5 -3 -2 -9 rrcurveto
          -199 -619 rlineto
          -3 -9 3 -3 7 0 rrcurveto
          31 hlineto
          7 0 3 3 3 9 rrcurveto
          54 160 262 0 52 -154 -64 -84 rlineto
          -15 -20 7 -20 33 0 rrcurveto
          40 34 10 13 10 -5 3 -23 hvcurveto
          -38 0 52 70 26 0 rlineto
          7 0 2 3 -2 9 rrcurveto
          -354 205 rmoveto
          115 371 4 0 116 -371 rlineto
          endchar
        </CharString>
        <CharString name="Aring">
          35 21 -21 172 45 478 27 122 28 hstem
          183 30 104 31 vstem
          274 695 rmoveto
          46 28 26 47 hvcurveto
          31 vlineto
          47 -28 26 -46 vhcurveto
          -19 hlineto
          -47 -25 -26 -47 hvcurveto
          -31 vlineto
          -47 25 -26 47 vhcurveto
          4 27 rmoveto
          -31 -15 17 34 hvcurveto
          21 vlineto
          33 15 17 31 vhcurveto
          11 hlineto
          32 15 -17 -33 hvcurveto
          -21 vlineto
          -34 -15 -17 -32 vhcurveto
          -202 -722 rmoveto
          -97 callsubr
          227 588 rmoveto
          -96 callsubr
          endchar
        </CharString>
        <CharString name="Atilde">
          35 21 -21 172 45 485 31 68 30 hstem
          160 31 151 31 vstem
          279 759 rmoveto
          12 32 3 10 19 0 rrcurveto
          24 5 -13 -41 hvcurveto
          -34 vlineto
          -8 3 -2 6 vhcurveto
          14 hlineto
          5 3 2 8 hvcurveto
          41 vlineto
          51 -12 26 -47 vhcurveto
          -30 0 -12 -9 -15 -40 -16 -40 -5 -9 -16 0 rrcurveto
          -24 -5 13 40 hvcurveto
          33 vlineto
          7 -3 2 -6 vhcurveto
          -14 hlineto
          -5 -3 -2 -7 hvcurveto
          -39 vlineto
          -52 12 -26 47 vhcurveto
          27 0 17 8 16 49 rrcurveto
          -211 -759 rmoveto
          -97 callsubr
          227 588 rmoveto
          -96 callsubr
          endchar
        </CharString>
        <CharString name="B">
          49 0 44 260 44 251 44 hstemhm
          85 50 284 50 -43 50 hintmask 11110100
          145 44 rmoveto
          -7 -3 3 6 hvcurveto
          243 vlineto
          5 3 3 7 vhcurveto
          177 hlineto
          71 33 -33 -62 hvcurveto
          -69 vlineto
          -62 -33 -34 -62 vhcurveto
          -186 304 rmoveto
          -7 -3 3 6 hvcurveto
          233 vlineto
          6 3 3 7 vhcurveto
          179 hlineto
          hintmask 11111000
          62 33 -34 -62 hvcurveto
          -59 vlineto
          -62 -36 -34 -62 vhcurveto
          -236 -336 rmoveto
          -9 4 -3 6 vhcurveto
          240 hlineto
          hintmask 11110100
          86 55 51 88 hvcurveto
          70 vlineto
          0 72 -47 42 -46 3 rrcurveto
          hintmask 11111000
          47 14 39 35 0 68 rrcurveto
          61 vlineto
          88 -55 51 -86 vhcurveto
          -233 hlineto
          -6 -4 -3 -9 hvcurveto
          endchar
        </CharString>
        <CharString name="C">
          45 0 45 553 45 hstem
          75 50 306 50 vstem
          341 hmoveto
          -95 callsubr
          endchar
        </CharString>
        <CharString name="CR">
          -497 endchar
        </CharString>
        <CharString name="Cacute">
          45 0 45 553 45 hstem
          75 50 306 50 vstem
          341 hmoveto
          -95 callsubr
          122 836 rmoveto
          -18 callsubr
          endchar
        </CharString>
        <CharString name="Ccaron">
          45 0 45 553 45 hstem
          75 50 306 50 vstem
          341 hmoveto
          -95 callsubr
          74 707 rmoveto
          10 0 5 2 5 7 rrcurveto
          64 109 rlineto
          4 6 -1 5 -8 0 rrcurveto
          -23 hlineto
          -7 0 -3 -1 -3 -5 rrcurveto
          -53 -97 -54 97 rlineto
          -2 5 -4 1 -6 0 rrcurveto
          -23 hlineto
          -8 0 -1 -5 4 -6 rrcurveto
          63 -109 rlineto
          5 -7 6 -2 9 0 rrcurveto
          endchar
        </CharString>
        <CharString name="Ccedilla">
          45 -185 33 67 33 52 45 553 45 hstem
          75 50 194 34 78 50 vstem
          470 440 rmoveto
          8 3 3 9 hvcurveto
          49 vlineto
          88 -54 54 -86 vhcurveto
          -126 hlineto
          -86 -54 -54 -88 hvcurveto
          -359 vlineto
          -88 54 -54 86 vhcurveto
          63 0 -41 -45 rlineto
          -15 -17 8 -23 24 0 rrcurveto
          12 hlineto
          40 13 -8 -25 hvcurveto
          -2 vlineto
          -24 -14 -8 -39 vhcurveto
          -20 hlineto
          -8 -2 -3 -7 hvcurveto
          -12 vlineto
          -7 2 -4 8 vhcurveto
          25 hlineto
          53 29 18 42 hvcurveto
          12 vlineto
          45 -27 16 -51 vhcurveto
          0 4 46 48 20 0 rlineto
          86 54 54 88 hvcurveto
          49 vlineto
          9 -3 3 -8 vhcurveto
          -28 hlineto
          -7 -4 -3 -9 hvcurveto
          -47 vlineto
          -63 -33 -36 -62 vhcurveto
          -117 hlineto
          -61 -33 36 63 hvcurveto
          355 vlineto
          63 33 36 61 vhcurveto
          117 hlineto
          62 33 -36 -63 hvcurveto
          -47 vlineto
          -9 4 -3 7 vhcurveto
          endchar
        </CharString>
        <CharString name="Cdotaccent">
          45 0 45 553 45 hstem
          75 50 128 50 128 50 vstem
          cntrmask 00111000
          341 hmoveto
          -95 callsubr
          38 723 rmoveto
          -8 4 -3 6 vhcurveto
          30 hlineto
          7 3 3 8 hvcurveto
          99 vlineto
          8 -4 3 -6 vhcurveto
          -30 hlineto
          -6 -4 -3 -9 hvcurveto
          endchar
        </CharString>
        <CharString name="D">
          60 0 45 553 45 hstem
          85 50 297 50 vstem
          145 45 rmoveto
          -94 callsubr
          -252 -33 rmoveto
          -93 callsubr
          endchar
        </CharString>
        <CharString name="Dcaron">
          60 0 45 553 45 hstem
          85 50 297 50 vstem
          264 707 rmoveto
          21 hlineto
          9 0 6 2 5 7 rrcurveto
          63 109 rlineto
          4 6 -1 5 -7 0 rrcurveto
          -24 hlineto
          -6 0 -4 -1 -2 -5 rrcurveto
          -54 -97 -53 97 rlineto
          -3 5 -3 1 -7 0 rrcurveto
          -23 hlineto
          -7 0 -2 -5 4 -6 rrcurveto
          64 -109 rlineto
          5 -7 5 -2 10 0 rrcurveto
          -119 -662 rmoveto
          -94 callsubr
          -252 -33 rmoveto
          -93 callsubr
          endchar
        </CharString>
        <CharString name="Dcroat">
          17 0 45 306 42 205 45 hstem
          88 50 297 50 vstem
          147 45 rmoveto
          -7 -2 3 6 hvcurveto
          288 vlineto
          6 2 3 7 vhcurveto
          148 hlineto
          8 3 3 7 hvcurveto
          21 vlineto
          7 -3 4 -8 vhcurveto
          -148 hlineto
          -7 -2 3 5 hvcurveto
          188 vlineto
          6 2 3 7 vhcurveto
          193 hlineto
          62 33 -36 -63 hvcurveto
          -355 vlineto
          -63 -33 -36 -62 vhcurveto
          5 -45 rmoveto
          86 54 54 88 hvcurveto
          359 vlineto
          88 -54 54 -86 vhcurveto
          -247 hlineto
          -6 -4 -3 -9 hvcurveto
          -230 vlineto
          -5 -3 -3 -7 vhcurveto
          -42 hlineto
          -8 -3 -4 -7 hvcurveto
          -21 vlineto
          -7 2 -3 9 vhcurveto
          42 hlineto
          7 3 -3 -6 hvcurveto
          -330 vlineto
          -9 4 -3 6 vhcurveto
          endchar
        </CharString>
        <CharString name="E">
          -16 0 45 260 45 248 45 hstem
          85 50 vstem
          404 hmoveto
          -92 callsubr
          endchar
        </CharString>
        <CharString name="Eacute">
          -16 0 45 260 45 248 45 hstem
          85 50 vstem
          308 836 rmoveto
          -45 callsubr
          51 -836 rmoveto
          -92 callsubr
          endchar
        </CharString>
        <CharString name="Ebreve">
          -16 0 45 260 45 248 45 64 31 hstem
          85 50 10 37 127 35 vstem
          145 826 rmoveto
          -14 callsubr
          259 -826 rmoveto
          -92 callsubr
          endchar
        </CharString>
        <CharString name="Ecaron">
          -16 0 45 260 45 248 45 hstem
          85 50 vstem
          240 707 rmoveto
          22 hlineto
          9 0 6 2 5 7 rrcurveto
          63 109 rlineto
          4 6 -1 5 -7 0 rrcurveto
          -24 hlineto
          -7 0 -3 -1 -2 -5 rrcurveto
          -54 -97 -53 97 rlineto
          -3 5 -3 1 -7 0 rrcurveto
          -23 hlineto
          -8 0 -1 -5 4 -6 rrcurveto
          64 -109 rlineto
          5 -7 5 -2 9 0 rrcurveto
          164 -707 rmoveto
          -92 callsubr
          endchar
        </CharString>
        <CharString name="Ecircumflex">
          -16 0 45 260 45 248 45 hstem
          85 50 vstem
          280 827 rmoveto
          -5 7 -5 2 -10 0 rrcurveto
          -21 hlineto
          -10 0 -5 -2 -5 -7 rrcurveto
          -64 -109 rlineto
          -4 -6 2 -5 7 0 rrcurveto
          24 hlineto
          6 0 4 1 2 5 rrcurveto
          54 97 53 -97 rlineto
          2 -5 4 -1 6 0 rrcurveto
          24 hlineto
          8 0 1 5 -4 6 rrcurveto
          60 -718 rmoveto
          -92 callsubr
          endchar
        </CharString>
        <CharString name="Edieresis">
          -16 0 45 260 45 248 45 64 129 hstem
          85 50 9 49 114 49 vstem
          144 719 rmoveto
          -42 callsubr
          163 -106 rmoveto
          -42 callsubr
          97 -825 rmoveto
          -92 callsubr
          endchar
        </CharString>
        <CharString name="Edotaccent">
          -1 0 45 260 45 248 45 hstem
          85 50 90 50 vstem
          225 723 rmoveto
          -8 3 -3 7 vhcurveto
          30 hlineto
          6 4 3 8 hvcurveto
          99 vlineto
          8 -4 3 -6 vhcurveto
          -30 hlineto
          -7 -3 -3 -9 hvcurveto
          179 -821 rmoveto
          -92 callsubr
          endchar
        </CharString>
        <CharString name="Egrave">
          -16 0 45 260 45 248 45 hstem
          85 50 vstem
          212 825 rmoveto
          -43 callsubr
          129 -719 rmoveto
          -92 callsubr
          endchar
        </CharString>
        <CharString name="Emacron">
          -16 0 45 260 45 248 45 109 40 hstem
          85 50 vstem
          351 752 rmoveto
          9 2 4 6 hvcurveto
          19 vlineto
          7 -2 4 -9 vhcurveto
          -203 hlineto
          -8 -3 -4 -7 hvcurveto
          -19 vlineto
          -6 3 -4 8 vhcurveto
          256 -752 rmoveto
          -92 callsubr
          endchar
        </CharString>
        <CharString name="Eng">
          22 -141 45 117 -21 hstem
          86 51 309 50 vstem
          356 -141 rmoveto
          86 54 54 88 hvcurveto
          630 vlineto
          9 -3 3 -7 vhcurveto
          -29 hlineto
          -7 -4 -3 -9 hvcurveto
          -522 -4 vlineto
          -306 528 rlineto
          -1 2 -3 4 -8 0 rrcurveto
          -27 hlineto
          -7 -4 -3 -9 hvcurveto
          -619 vlineto
          -9 4 -3 7 vhcurveto
          29 hlineto
          7 4 3 9 hvcurveto
          523 4 vlineto
          91 -155 122 -214 92 -155 rrcurveto
          -5 vlineto
          -66 -33 -36 -66 vhcurveto
          -21 hlineto
          -9 -2 -4 -7 hvcurveto
          -23 vlineto
          -7 2 -4 9 vhcurveto
          endchar
        </CharString>
        <CharString name="Eogonek">
          -16 -106 36 70 45 260 45 248 45 hstem
          85 50 vstem
          404 598 rmoveto
          9 3 4 7 hvcurveto
          23 vlineto
          7 -3 4 -9 vhcurveto
          -309 hlineto
          -6 -4 -3 -9 hvcurveto
          -619 vlineto
          -9 4 -3 6 vhcurveto
          223 0 -50 -66 rlineto
          -15 -20 7 -20 33 0 rrcurveto
          39 34 10 13 10 -5 3 -22 hvcurveto
          -39 0 53 70 51 0 rlineto
          9 3 4 7 hvcurveto
          23 vlineto
          7 -3 4 -9 vhcurveto
          -259 hlineto
          -7 -3 3 6 hvcurveto
          242 vlineto
          6 3 3 7 vhcurveto
          231 hlineto
          8 3 4 7 hvcurveto
          23 vlineto
          7 -3 4 -8 vhcurveto
          -231 hlineto
          -7 -3 3 6 hvcurveto
          230 vlineto
          6 3 3 7 vhcurveto
          endchar
        </CharString>
        <CharString name="Eth">
          17 0 45 259 42 252 45 hstem
          88 50 297 50 vstem
          147 45 rmoveto
          -7 -2 3 6 hvcurveto
          242 vlineto
          5 2 3 7 vhcurveto
          148 hlineto
          8 3 4 7 hvcurveto
          20 vlineto
          7 -3 4 -8 vhcurveto
          -148 hlineto
          -7 -2 3 6 hvcurveto
          234 vlineto
          6 2 3 7 vhcurveto
          193 hlineto
          62 33 -36 -63 hvcurveto
          -355 vlineto
          -63 -33 -36 -62 vhcurveto
          5 -45 rmoveto
          86 54 54 88 hvcurveto
          359 vlineto
          88 -54 54 -86 vhcurveto
          -247 hlineto
          -6 -4 -3 -9 hvcurveto
          -276 vlineto
          -6 -3 -3 -7 vhcurveto
          -42 hlineto
          -8 -3 -4 -7 hvcurveto
          -20 vlineto
          -7 2 -4 9 vhcurveto
          42 hlineto
          7 3 -3 -5 hvcurveto
          -284 vlineto
          -9 4 -3 6 vhcurveto
          endchar
        </CharString>
        <CharString name="Euro">
          26 0 44 195 40 82 40 198 44 hstem
          109 50 246 50 vstem
          314 hmoveto
          86 55 51 88 hvcurveto
          27 vlineto
          9 -4 3 -7 vhcurveto
          -29 hlineto
          -7 -3 -3 -9 hvcurveto
          -26 vlineto
          -62 -33 -34 -62 vhcurveto
          -56 hlineto
          -62 -33 34 62 hvcurveto
          99 158 vlineto
          9 3 4 8 hvcurveto
          17 vlineto
          8 -3 3 -9 vhcurveto
          -158 82 158 hlineto
          9 3 4 7 hvcurveto
          18 vlineto
          7 -3 4 -9 vhcurveto
          -158 102 hlineto
          62 33 34 62 vhcurveto
          56 hlineto
          62 33 -34 -62 hvcurveto
          -26 vlineto
          -9 3 -3 7 vhcurveto
          29 hlineto
          7 4 3 9 hvcurveto
          27 vlineto
          88 -55 51 -86 vhcurveto
          -65 hlineto
          -85 -55 -51 -88 hvcurveto
          -103 -61 vlineto
          -9 -3 -4 -7 hvcurveto
          -18 vlineto
          -7 3 -4 9 vhcurveto
          61 -82 -61 hlineto
          -9 -3 -3 -8 hvcurveto
          -17 vlineto
          -8 3 -4 9 vhcurveto
          61 -100 hlineto
          -88 55 -51 85 vhcurveto
          endchar
        </CharString>
        <CharString name="F">
          -38 21 -21 292 46 260 45 hstem
          85 50 vstem
          124 hmoveto
          7 4 3 9 hvcurveto
          272 vlineto
          5 3 3 7 vhcurveto
          231 hlineto
          8 3 4 7 hvcurveto
          24 vlineto
          7 -3 4 -8 vhcurveto
          -231 hlineto
          -7 -3 3 5 hvcurveto
          243 vlineto
          6 3 3 7 vhcurveto
          258 hlineto
          9 3 4 7 hvcurveto
          23 vlineto
          7 -3 4 -9 vhcurveto
          -308 hlineto
          -6 -4 -3 -9 hvcurveto
          -619 vlineto
          -9 4 -3 6 vhcurveto
          endchar
        </CharString>
        <CharString name="G">
          42 0 45 240 45 268 45 hstem
          75 50 289 51 vstem
          324 hmoveto
          -91 callsubr
          endchar
        </CharString>
        <CharString name="Gbreve">
          42 0 45 240 45 268 45 64 31 hstem
          75 50 45 37 128 35 44 51 vstem
          170 826 rmoveto
          -12 vlineto
          -74 32 -33 62 vhcurveto
          11 hlineto
          63 32 33 74 hvcurveto
          11 vlineto
          8 -3 2 -6 vhcurveto
          -17 hlineto
          -6 -3 -2 -8 hvcurveto
          -10 vlineto
          -56 -17 -21 -46 vhcurveto
          -5 hlineto
          -43 -17 20 57 hvcurveto
          11 vlineto
          8 -3 2 -6 vhcurveto
          -18 hlineto
          -6 -4 -2 -8 hvcurveto
          154 -826 rmoveto
          -91 callsubr
          endchar
        </CharString>
        <CharString name="Gcircumflex">
          42 0 45 240 45 268 45 hstem
          75 50 289 51 vstem
          301 827 rmoveto
          -12 callsubr
          -40 -718 rmoveto
          -91 callsubr
          endchar
        </CharString>
        <CharString name="Gdotaccent">
          42 0 45 240 45 268 45 hstem
          75 50 119 50 120 51 vstem
          244 723 rmoveto
          -11 callsubr
          80 -821 rmoveto
          -91 callsubr
          endchar
        </CharString>
        <CharString name="H">
          73 21 -21 304 45 hstem
          85 50 300 50 vstem
          124 hmoveto
          7 4 3 9 hvcurveto
          283 vlineto
          6 3 3 7 vhcurveto
          280 hlineto
          7 3 -3 -6 hvcurveto
          -283 vlineto
          -9 3 -3 7 vhcurveto
          29 hlineto
          7 4 3 9 hvcurveto
          619 vlineto
          9 -4 3 -7 vhcurveto
          -29 hlineto
          -7 -3 -3 -9 hvcurveto
          -273 vlineto
          -6 -3 -3 -7 vhcurveto
          -280 hlineto
          -7 -3 3 6 hvcurveto
          273 vlineto
          9 -4 3 -7 vhcurveto
          -29 hlineto
          -6 -4 -3 -9 hvcurveto
          -619 vlineto
          -9 4 -3 6 vhcurveto
          endchar
        </CharString>
        <CharString name="Hbar">
          26 21 -21 300 46 119 42 hstem
          89 51 299 51 vstem
          129 hmoveto
          7 4 3 9 hvcurveto
          280 vlineto
          5 2 3 7 vhcurveto
          281 hlineto
          7 2 -3 -5 hvcurveto
          -280 vlineto
          -9 4 -3 7 vhcurveto
          29 hlineto
          7 4 3 9 hvcurveto
          444 vlineto
          6 2 3 7 vhcurveto
          44 hlineto
          9 2 3 8 hvcurveto
          20 vlineto
          7 -2 4 -9 vhcurveto
          -44 hlineto
          -7 -2 3 6 hvcurveto
          115 vlineto
          9 -4 3 -7 vhcurveto
          -29 hlineto
          -7 -4 -3 -9 hvcurveto
          -116 vlineto
          -5 -2 -3 -7 vhcurveto
          -281 hlineto
          -7 -2 3 6 hvcurveto
          115 vlineto
          9 -4 3 -7 vhcurveto
          -29 hlineto
          -7 -4 -3 -9 hvcurveto
          -115 vlineto
          -6 -2 -3 -7 vhcurveto
          -44 hlineto
          -8 -3 -4 -7 hvcurveto
          -20 vlineto
          -8 2 -3 9 vhcurveto
          44 hlineto
          7 2 -3 -6 hvcurveto
          -444 vlineto
          -9 4 -3 7 vhcurveto
          49 346 rmoveto
          -7 -2 3 5 hvcurveto
          102 vlineto
          6 2 3 7 vhcurveto
          281 hlineto
          7 2 -3 -6 hvcurveto
          -102 vlineto
          -5 -2 -3 -7 vhcurveto
          endchar
        </CharString>
        <CharString name="I">
          -267 21 -21 hstem
          90 50 vstem
          140 631 rmoveto
          -90 callsubr
          endchar
        </CharString>
        <CharString name="IJ">
          224 0 45 hstem
          91 50 122 51 280 50 vstem
          605 643 rmoveto
          -89 callsubr
          -492 -12 rmoveto
          9 -4 3 -7 vhcurveto
          -29 hlineto
          -7 -3 -3 -9 hvcurveto
          -619 vlineto
          -9 3 -3 7 vhcurveto
          29 hlineto
          7 4 3 9 hvcurveto
          endchar
        </CharString>
        <CharString name="Iacute">
          21 -21 hstem
          90 50 vstem
          181 836 rmoveto
          -45 callsubr
          -86 -205 rmoveto
          -90 callsubr
          endchar
        </CharString>
        <CharString name="Ibreve">
          21 -21 707 31 hstem
          16 37 37 50 40 35 vstem
          16 826 rmoveto
          -12 vlineto
          -74 31 -33 63 vhcurveto
          10 hlineto
          63 32 33 74 hvcurveto
          11 vlineto
          8 -3 2 -6 vhcurveto
          -17 hlineto
          -6 -3 -2 -8 hvcurveto
          -10 vlineto
          -56 -16 -21 -47 vhcurveto
          -4 hlineto
          -44 -16 20 57 hvcurveto
          11 vlineto
          8 -4 2 -6 vhcurveto
          -18 hlineto
          -6 -3 -2 -8 hvcurveto
          124 -195 rmoveto
          -90 callsubr
          endchar
        </CharString>
        <CharString name="Icircumflex">
          -268 21 -21 hstem
          90 50 vstem
          145 827 rmoveto
          -5 7 -5 2 -9 0 rrcurveto
          -22 hlineto
          -9 0 -6 -2 -5 -7 rrcurveto
          -63 -109 rlineto
          -4 -6 1 -5 8 0 rrcurveto
          23 hlineto
          6 0 4 1 2 5 rrcurveto
          54 97 53 -97 rlineto
          3 -5 3 -1 6 0 rrcurveto
          24 hlineto
          8 0 1 5 -4 6 rrcurveto
          -69 -87 rmoveto
          -90 callsubr
          endchar
        </CharString>
        <CharString name="Idieresis">
          -267 21 -21 707 129 hstem
          9 49 32 50 32 49 vstem
          cntrmask 00111000
          9 719 rmoveto
          -42 callsubr
          163 -106 rmoveto
          -42 callsubr
          -32 -194 rmoveto
          -90 callsubr
          endchar
        </CharString>
        <CharString name="Idotaccent">
          -267 21 -21 687 119 hstem
          90 50 vstem
          140 631 rmoveto
          -90 callsubr
          -50 687 rmoveto
          -9 3 -3 7 vhcurveto
          30 hlineto
          6 4 3 9 hvcurveto
          96 vlineto
          9 -4 2 -6 vhcurveto
          -30 hlineto
          -7 -3 -3 -8 hvcurveto
          endchar
        </CharString>
        <CharString name="Igrave">
          -267 21 -21 hstem
          90 50 vstem
          67 825 rmoveto
          -41 callsubr
          10 -88 rmoveto
          -90 callsubr
          endchar
        </CharString>
        <CharString name="Imacron">
          -267 21 -21 752 40 hstem
          90 50 vstem
          216 752 rmoveto
          -7 callsubr
          126 -121 rmoveto
          -90 callsubr
          endchar
        </CharString>
        <CharString name="Iogonek">
          -267 -106 36 hstem
          90 50 vstem
          100 643 rmoveto
          -6 -4 -3 -9 hvcurveto
          -619 vlineto
          0 -3 0 -2 1 -2 rrcurveto
          -54 -71 rlineto
          -15 -20 7 -20 33 0 rrcurveto
          40 34 10 13 10 -5 3 -23 hvcurveto
          -38 0 52 70 7 0 rlineto
          7 4 3 9 hvcurveto
          619 vlineto
          9 -4 3 -7 vhcurveto
          endchar
        </CharString>
        <CharString name="Itilde">
          -267 21 -21 702 31 68 30 hstem
          8 31 51 50 51 31 vstem
          cntrmask 00011100
          128 759 rmoveto
          12 32 2 10 19 0 rrcurveto
          24 6 -13 -41 hvcurveto
          -34 vlineto
          -8 2 -2 6 vhcurveto
          14 hlineto
          6 3 2 8 hvcurveto
          41 vlineto
          51 -12 26 -48 vhcurveto
          -29 0 -12 -9 -16 -40 -15 -40 -5 -9 -16 0 rrcurveto
          -24 -6 13 40 hvcurveto
          33 vlineto
          7 -3 2 -5 vhcurveto
          -14 hlineto
          -6 -3 -2 -7 hvcurveto
          -39 vlineto
          -52 13 -26 47 vhcurveto
          27 0 16 8 17 49 rrcurveto
          12 -128 rmoveto
          -90 callsubr
          endchar
        </CharString>
        <CharString name="J">
          2 0 45 hstem
          38 51 280 50 vstem
          380 643 rmoveto
          -89 callsubr
          endchar
        </CharString>
        <CharString name="Jcircumflex">
          -3 0 45 hstem
          38 51 280 50 vstem
          380 643 rmoveto
          -89 callsubr
          13 184 rmoveto
          -34 callsubr
          endchar
        </CharString>
        <CharString name="K">
          33 21 -21 hstem
          85 50 vstem
          124 hmoveto
          -88 callsubr
          endchar
        </CharString>
        <CharString name="L">
          -46 0 47 hstem
          85 50 vstem
          413 hmoveto
          -87 callsubr
          endchar
        </CharString>
        <CharString name="Lacute">
          -46 0 47 hstem
          85 50 vstem
          176 836 rmoveto
          -21 callsubr
          192 -836 rmoveto
          -87 callsubr
          endchar
        </CharString>
        <CharString name="Lcaron">
          -46 0 47 hstemhm
          85 50 174 53 -53 16 hintmask 11100000
          362 632 rmoveto
          -6 callsubr
          hintmask 11010000
          -218 vlineto
          -7 4 -2 4 vhcurveto
          3 0 3 2 2 5 rrcurveto
          26 91 rlineto
          hintmask 11100000
          -1 callsubr
          51 -563 rmoveto
          -87 callsubr
          endchar
        </CharString>
        <CharString name="Ldot">
          3 0 47 hstem
          86 51 140 56 vstem
          415 hmoveto
          9 2 4 7 hvcurveto
          25 vlineto
          7 -2 4 -9 vhcurveto
          -269 hlineto
          -7 -2 3 6 hvcurveto
          575 vlineto
          9 -4 3 -7 vhcurveto
          -29 hlineto
          -7 -4 -3 -9 hvcurveto
          -619 vlineto
          -9 4 -3 7 vhcurveto
          236 376 rmoveto
          0 callsubr
          endchar
        </CharString>
        <CharString name="Lslash">
          7 0 47 hstem
          92 51 vstem
          421 hmoveto
          9 2 4 7 hvcurveto
          25 vlineto
          7 -2 4 -9 vhcurveto
          -269 hlineto
          -7 -2 3 6 hvcurveto
          0 349 101 57 rlineto
          8 4 3 5 0 7 rrcurveto
          26 vlineto
          0 6 -4 4 -7 -4 rrcurveto
          -101 -57 0 178 rlineto
          9 -4 3 -7 vhcurveto
          -29 hlineto
          -7 -4 -3 -9 hvcurveto
          0 -207 -72 -41 rlineto
          -9 -5 -2 -4 0 -7 rrcurveto
          -26 vlineto
          0 -7 3 -3 8 4 rrcurveto
          72 41 0 -364 rlineto
          -9 4 -3 7 vhcurveto
          endchar
        </CharString>
        <CharString name="M">
          199 21 -21 hstem
          85 49 427 50 vstem
          350 198 rmoveto
          -4 0 -188 439 rlineto
          -1 3 -3 3 -5 0 rrcurveto
          -54 hlineto
          -6 -4 -3 -9 hvcurveto
          -619 vlineto
          -10 4 -2 6 vhcurveto
          29 hlineto
          7 3 3 9 hvcurveto
          555 4 vlineto
          180 -416 rlineto
          3 -8 3 -3 8 0 rrcurveto
          33 hlineto
          8 0 3 3 4 8 rrcurveto
          177 415 4 0 0 -554 rlineto
          -9 4 -3 7 vhcurveto
          29 hlineto
          6 4 3 9 hvcurveto
          619 vlineto
          9 -4 3 -6 vhcurveto
          -54 hlineto
          -5 0 -3 -3 -1 -3 rrcurveto
          endchar
        </CharString>
        <CharString name="Mu">
          30 0 45 hstem
          82 51 262 50 vstem
          133 36 rmoveto
          36 -44 60 8 57 0 58 0 32 24 15 28 rrcurveto
          4 -40 hlineto
          -9 4 -3 7 vhcurveto
          28 hlineto
          7 4 3 9 hvcurveto
          486 vlineto
          9 -4 3 -7 vhcurveto
          -28 hlineto
          -7 -4 -3 -9 hvcurveto
          -355 vlineto
          -63 -40 -35 -63 vhcurveto
          -65 hlineto
          -62 -32 36 63 hvcurveto
          354 vlineto
          9 -4 3 -7 vhcurveto
          -29 hlineto
          -7 -4 -3 -9 hvcurveto
          -619 vlineto
          -9 4 -3 7 vhcurveto
          29 hlineto
          7 4 3 9 hvcurveto
          endchar
        </CharString>
        <CharString name="N">
          82 21 -21 hstem
          85 50 310 50 vstem
          124 hmoveto
          -86 callsubr
          endchar
        </CharString>
        <CharString name="NULL">
          -497 endchar
        </CharString>
        <CharString name="Nacute">
          82 21 -21 hstem
          85 50 310 50 vstem
          363 836 rmoveto
          1 callsubr
          -284 -836 rmoveto
          -86 callsubr
          endchar
        </CharString>
        <CharString name="Ncaron">
          82 21 -21 hstem
          85 50 310 50 vstem
          124 hmoveto
          -86 callsubr
          186 707 rmoveto
          3 callsubr
          endchar
        </CharString>
        <CharString name="Ntilde">
          82 21 -21 702 31 68 30 hstem
          85 50 48 31 152 31 48 50 vstem
          302 759 rmoveto
          13 32 2 10 19 0 rrcurveto
          24 6 -13 -41 hvcurveto
          -34 vlineto
          -8 2 -2 6 vhcurveto
          14 hlineto
          6 3 2 8 hvcurveto
          41 vlineto
          51 -12 26 -48 vhcurveto
          -29 0 -13 -9 -15 -40 -15 -40 -5 -9 -17 0 rrcurveto
          -23 -6 13 40 hvcurveto
          33 vlineto
          7 -3 2 -5 vhcurveto
          -14 hlineto
          -6 -3 -2 -7 hvcurveto
          -39 vlineto
          -52 13 -26 47 vhcurveto
          27 0 16 8 16 49 rrcurveto
          -178 -759 rmoveto
          -86 callsubr
          endchar
        </CharString>
        <CharString name="O">
          56 0 45 553 45 hstem
          75 50 303 50 vstem
          219 45 rmoveto
          -85 callsubr
          5 -45 rmoveto
          -84 callsubr
          endchar
        </CharString>
        <CharString name="OE">
          278 0 45 260 45 248 45 hstem
          76 51 244 50 vstem
          76 142 rmoveto
          -88 55 -54 86 vhcurveto
          471 hlineto
          9 3 4 7 hvcurveto
          23 vlineto
          7 -3 4 -9 vhcurveto
          -257 hlineto
          -7 -3 3 6 hvcurveto
          242 vlineto
          6 3 3 7 vhcurveto
          229 hlineto
          9 2 4 7 hvcurveto
          23 vlineto
          7 -2 4 -9 vhcurveto
          -229 hlineto
          -7 -3 3 6 hvcurveto
          230 vlineto
          6 3 3 7 vhcurveto
          257 hlineto
          9 3 4 7 hvcurveto
          23 vlineto
          7 -3 4 -9 vhcurveto
          -471 hlineto
          -86 -55 -54 -88 hvcurveto
          145 -456 rmoveto
          -62 -32 36 63 hvcurveto
          355 vlineto
          63 32 36 62 vhcurveto
          140 hlineto
          8 2 -3 -6 hvcurveto
          -535 vlineto
          -6 -2 -3 -8 vhcurveto
          endchar
        </CharString>
        <CharString name="Oacute">
          56 0 45 553 45 hstem
          75 50 303 50 vstem
          335 836 rmoveto
          -8 0 -6 -3 -4 -8 rrcurveto
          -63 -106 rlineto
          -4 -8 2 -4 6 0 rrcurveto
          20 hlineto
          7 0 6 3 4 6 rrcurveto
          90 109 rlineto
          5 6 -4 5 -6 0 rrcurveto
          -161 -791 rmoveto
          -85 callsubr
          5 -45 rmoveto
          -84 callsubr
          endchar
        </CharString>
        <CharString name="Obreve">
          56 0 45 553 45 64 31 hstem
          75 50 52 37 127 35 52 50 vstem
          177 826 rmoveto
          -12 vlineto
          -74 31 -33 63 vhcurveto
          10 hlineto
          64 31 33 74 hvcurveto
          11 vlineto
          8 -3 2 -6 vhcurveto
          -17 hlineto
          -6 -3 -2 -8 hvcurveto
          -10 vlineto
          -56 -16 -21 -47 vhcurveto
          -4 hlineto
          -44 -16 20 57 hvcurveto
          11 vlineto
          8 -4 2 -6 vhcurveto
          -18 hlineto
          -6 -3 -2 -8 hvcurveto
          42 -781 rmoveto
          -85 callsubr
          5 -45 rmoveto
          -84 callsubr
          endchar
        </CharString>
        <CharString name="Ocircumflex">
          56 0 45 553 45 hstem
          75 50 303 50 vstem
          307 827 rmoveto
          -5 7 -5 2 -9 0 rrcurveto
          -22 hlineto
          -9 0 -6 -2 -5 -7 rrcurveto
          -63 -109 rlineto
          -4 -6 1 -5 7 0 rrcurveto
          24 hlineto
          6 0 4 1 2 5 rrcurveto
          54 97 53 -97 rlineto
          2 -5 4 -1 6 0 rrcurveto
          24 hlineto
          8 0 1 5 -4 6 rrcurveto
          -152 -673 rmoveto
          -85 callsubr
          5 -45 rmoveto
          -84 callsubr
          endchar
        </CharString>
        <CharString name="Odieresis">
          56 0 45 553 45 64 129 hstem
          75 50 45 49 114 49 46 50 vstem
          170 719 rmoveto
          -40 callsubr
          163 -106 rmoveto
          -48 callsubr
          -114 -780 rmoveto
          -85 callsubr
          5 -45 rmoveto
          -84 callsubr
          endchar
        </CharString>
        <CharString name="Ograve">
          56 0 45 553 45 hstem
          75 50 303 50 vstem
          232 825 rmoveto
          -43 callsubr
          -76 -674 rmoveto
          -85 callsubr
          5 -45 rmoveto
          -84 callsubr
          endchar
        </CharString>
        <CharString name="Ohungarumlaut">
          56 0 45 553 45 hstem
          75 50 303 50 vstem
          276 836 rmoveto
          -8 0 -5 -2 -5 -9 rrcurveto
          -61 -106 rlineto
          -4 -8 2 -4 6 0 rrcurveto
          16 hlineto
          6 0 5 3 5 6 rrcurveto
          80 109 rlineto
          5 7 -4 4 -7 0 rrcurveto
          93 hmoveto
          -8 0 -5 -2 -5 -9 rrcurveto
          -61 -106 rlineto
          -5 -8 2 -4 7 0 rrcurveto
          16 hlineto
          6 0 5 3 4 6 rrcurveto
          80 109 rlineto
          5 7 -3 4 -7 0 rrcurveto
          -212 -791 rmoveto
          -85 callsubr
          5 -45 rmoveto
          -84 callsubr
          endchar
        </CharString>
        <CharString name="Omacron">
          56 0 45 553 45 109 40 hstem
          75 50 303 50 vstem
          377 752 rmoveto
          -7 callsubr
          44 -707 rmoveto
          -85 callsubr
          5 -45 rmoveto
          -84 callsubr
          endchar
        </CharString>
        <CharString name="Oslash">
          62 0 45 553 45 hstem
          77 50 304 51 vstem
          496 635 rmoveto
          -39 callsubr
          -381 -483 rmoveto
          -38 callsubr
          304 358 rmoveto
          -37 callsubr
          endchar
        </CharString>
        <CharString name="Oslashacute">
          61 0 45 553 45 hstem
          77 50 304 51 vstem
          496 635 rmoveto
          -39 callsubr
          -381 -483 rmoveto
          -38 callsubr
          304 358 rmoveto
          -37 callsubr
          -151 206 rmoveto
          6 0 6 3 5 6 rrcurveto
          89 109 rlineto
          5 6 -3 5 -7 0 rrcurveto
          -45 hlineto
          -8 0 -6 -3 -4 -8 rrcurveto
          -63 -106 rlineto
          -4 -8 2 -4 7 0 rrcurveto
          endchar
        </CharString>
        <CharString name="Otilde">
          56 0 45 553 45 59 31 68 30 hstem
          75 50 44 31 152 31 45 50 vstem
          289 759 rmoveto
          12 32 3 10 19 0 rrcurveto
          23 6 -13 -41 hvcurveto
          -34 vlineto
          -8 3 -2 5 vhcurveto
          14 hlineto
          6 3 2 8 hvcurveto
          41 vlineto
          51 -12 26 -48 vhcurveto
          -29 0 -12 -9 -15 -40 -16 -40 -5 -9 -16 0 rrcurveto
          -24 -6 13 40 hvcurveto
          33 vlineto
          7 -2 2 -6 vhcurveto
          -14 hlineto
          -6 -3 -2 -7 hvcurveto
          -39 vlineto
          -52 12 -26 48 vhcurveto
          27 0 16 8 17 49 rrcurveto
          -70 -714 rmoveto
          -85 callsubr
          5 -45 rmoveto
          -84 callsubr
          endchar
        </CharString>
        <CharString name="P">
          27 21 -21 242 46 310 45 hstem
          85 50 280 51 vstem
          124 hmoveto
          7 4 3 9 hvcurveto
          222 vlineto
          5 3 3 7 vhcurveto
          180 hlineto
          86 55 54 88 hvcurveto
          117 vlineto
          88 -55 54 -86 vhcurveto
          -230 hlineto
          -6 -4 -3 -9 hvcurveto
          -619 vlineto
          -9 4 -3 6 vhcurveto
          50 288 rmoveto
          -7 -3 3 5 hvcurveto
          293 vlineto
          6 3 3 7 vhcurveto
          176 hlineto
          62 32 -36 -63 hvcurveto
          -113 vlineto
          -62 -32 -36 -62 vhcurveto
          endchar
        </CharString>
        <CharString name="Pi">
          108 21 -21 596 47 hstem
          147 50 211 51 vstem
          186 hmoveto
          7 4 3 9 hvcurveto
          575 vlineto
          6 3 3 7 vhcurveto
          192 hlineto
          6 3 -3 -6 hvcurveto
          -575 vlineto
          -9 4 -3 7 vhcurveto
          29 hlineto
          7 4 3 9 hvcurveto
          575 vlineto
          6 3 3 6 vhcurveto
          88 hlineto
          8 3 4 7 hvcurveto
          25 vlineto
          7 -3 4 -8 vhcurveto
          -506 hlineto
          -9 -3 -4 -7 hvcurveto
          -25 vlineto
          -7 3 -4 9 vhcurveto
          87 hlineto
          6 4 -3 -5 hvcurveto
          -576 vlineto
          -9 3 -3 7 vhcurveto
          endchar
        </CharString>
        <CharString name="Q">
          59 0 45 553 45 hstem
          76 51 303 50 vstem
          221 45 rmoveto
          -62 -32 36 63 hvcurveto
          355 vlineto
          63 32 36 62 vhcurveto
          114 hlineto
          62 33 -36 -63 hvcurveto
          -355 vlineto
          -63 -33 -36 -62 vhcurveto
          81 -178 rmoveto
          7 0 5 4 -5 9 rrcurveto
          -75 121 rlineto
          81 3 51 53 0 85 rrcurveto
          359 vlineto
          88 -55 54 -86 vhcurveto
          -122 hlineto
          -86 -55 -54 -88 hvcurveto
          -359 vlineto
          -88 55 -54 86 vhcurveto
          77 0 74 -121 rlineto
          6 -10 5 -2 9 0 rrcurveto
          endchar
        </CharString>
        <CharString name="R">
          37 21 -21 264 43 291 45 hstem
          85 50 279 50 vstem
          124 hmoveto
          -83 callsubr
          50 307 rmoveto
          -82 callsubr
          endchar
        </CharString>
        <CharString name="Racute">
          37 21 -21 264 43 291 45 hstem
          85 50 279 50 vstem
          309 836 rmoveto
          -36 callsubr
          -229 -836 rmoveto
          -83 callsubr
          50 307 rmoveto
          -82 callsubr
          endchar
        </CharString>
        <CharString name="Rcaron">
          37 21 -21 264 43 291 45 hstem
          85 50 279 50 vstem
          242 707 rmoveto
          22 hlineto
          9 0 5 2 5 7 rrcurveto
          64 109 rlineto
          4 6 -1 5 -8 0 rrcurveto
          -23 hlineto
          -7 0 -3 -1 -3 -5 rrcurveto
          -53 -97 -54 97 rlineto
          -2 5 -3 1 -7 0 rrcurveto
          -23 hlineto
          -8 0 -1 -5 4 -6 rrcurveto
          63 -109 rlineto
          5 -7 6 -2 9 0 rrcurveto
          -118 -707 rmoveto
          -83 callsubr
          50 307 rmoveto
          -82 callsubr
          endchar
        </CharString>
        <CharString name="S">
          65 0 45 553 45 hstem
          81 51 298 51 vstem
          81 142 rmoveto
          -81 callsubr
          endchar
        </CharString>
        <CharString name="Sacute">
          65 0 45 553 45 hstem
          81 51 298 51 vstem
          81 142 rmoveto
          -81 callsubr
          256 658 rmoveto
          -18 callsubr
          endchar
        </CharString>
        <CharString name="Scaron">
          65 0 45 553 45 hstem
          81 51 298 51 vstem
          81 142 rmoveto
          -81 callsubr
          209 529 rmoveto
          9 0 6 2 5 7 rrcurveto
          63 109 rlineto
          4 6 -1 5 -7 0 rrcurveto
          -24 hlineto
          -6 0 -4 -1 -2 -5 rrcurveto
          -54 -97 -53 97 rlineto
          -2 5 -4 1 -6 0 rrcurveto
          -24 hlineto
          -7 0 -2 -5 4 -6 rrcurveto
          64 -109 rlineto
          5 -7 5 -2 10 0 rrcurveto
          endchar
        </CharString>
        <CharString name="Scircumflex">
          65 0 45 553 45 hstem
          81 51 298 51 vstem
          81 142 rmoveto
          -81 callsubr
          231 649 rmoveto
          -20 callsubr
          endchar
        </CharString>
        <CharString name="Sigma">
          -16 0 47 548 48 hstem
          234 319 rmoveto
          -168 -268 rlineto
          -3 -5 -2 -5 0 -9 rrcurveto
          -21 vlineto
          -7 3 -4 8 vhcurveto
          340 hlineto
          8 3 4 5 hvcurveto
          26 vlineto
          8 -3 4 -8 vhcurveto
          -292 4 hlineto
          163 252 rlineto
          6 10 0 14 -6 10 rrcurveto
          -162 254 0 4 290 0 rlineto
          9 3 4 7 hvcurveto
          26 vlineto
          7 -3 4 -9 vhcurveto
          -339 hlineto
          -9 -2 -4 -7 hvcurveto
          -22 vlineto
          0 -8 1 -6 4 -5 rrcurveto
          168 -268 rlineto
          endchar
        </CharString>
        <CharString name="T">
          -77 21 -21 598 45 hstem
          185 50 vstem
          225 hmoveto
          -80 callsubr
          endchar
        </CharString>
        <CharString name="Tbar">
          4 21 -21 323 41 234 45 hstem
          190 50 vstem
          230 hmoveto
          7 3 3 9 hvcurveto
          302 vlineto
          6 3 3 7 vhcurveto
          103 hlineto
          9 3 3 7 hvcurveto
          20 vlineto
          8 -3 3 -9 vhcurveto
          -103 hlineto
          -7 -3 3 6 hvcurveto
          216 vlineto
          6 3 3 7 vhcurveto
          147 hlineto
          9 3 4 7 hvcurveto
          23 vlineto
          7 -3 4 -9 vhcurveto
          -364 hlineto
          -9 -2 -4 -7 hvcurveto
          -23 vlineto
          -7 2 -4 9 vhcurveto
          147 hlineto
          8 2 -3 -6 hvcurveto
          -216 vlineto
          -6 -2 -3 -8 vhcurveto
          -94 hlineto
          -9 -3 -3 -8 hvcurveto
          -20 vlineto
          -7 3 -3 9 vhcurveto
          94 hlineto
          8 2 -3 -6 hvcurveto
          -302 vlineto
          -9 4 -3 7 vhcurveto
          endchar
        </CharString>
        <CharString name="Tcaron">
          -77 21 -21 598 45 hstem
          185 50 vstem
          200 707 rmoveto
          22 hlineto
          9 0 6 2 5 7 rrcurveto
          63 109 rlineto
          4 6 -1 5 -7 0 rrcurveto
          -24 hlineto
          -6 0 -4 -1 -2 -5 rrcurveto
          -54 -97 -53 97 rlineto
          -3 5 -3 1 -7 0 rrcurveto
          -23 hlineto
          -8 0 -1 -5 4 -6 rrcurveto
          64 -109 rlineto
          5 -7 5 -2 9 0 rrcurveto
          25 -707 rmoveto
          -80 callsubr
          endchar
        </CharString>
        <CharString name="Thorn">
          4 21 -21 133 45 287 45 hstem
          115 51 215 50 vstem
          175 178 rmoveto
          -7 -2 3 6 hvcurveto
          269 vlineto
          6 2 3 7 vhcurveto
          111 hlineto
          62 33 -36 -63 hvcurveto
          -90 vlineto
          -62 -33 -36 -62 vhcurveto
          -131 -178 rmoveto
          7 4 3 9 hvcurveto
          112 vlineto
          6 2 3 7 vhcurveto
          116 hlineto
          86 54 54 87 hvcurveto
          94 vlineto
          88 -54 54 -86 vhcurveto
          -116 hlineto
          -7 -2 3 6 hvcurveto
          112 vlineto
          9 -4 3 -7 vhcurveto
          -29 hlineto
          -7 -4 -3 -9 hvcurveto
          -619 vlineto
          -9 4 -3 7 vhcurveto
          endchar
        </CharString>
        <CharString name="U">
          55 0 45 hstem
          80 50 292 50 vstem
          433 643 rmoveto
          -79 callsubr
          endchar
        </CharString>
        <CharString name="Uacute">
          55 0 45 hstem
          80 50 292 50 vstem
          336 836 rmoveto
          -36 callsubr
          53 -193 rmoveto
          -79 callsubr
          endchar
        </CharString>
        <CharString name="Ubreve">
          55 0 45 662 31 hstem
          80 50 47 37 127 35 46 50 vstem
          177 826 rmoveto
          -14 callsubr
          256 -183 rmoveto
          -79 callsubr
          endchar
        </CharString>
        <CharString name="Ucircumflex">
          55 0 45 hstem
          80 50 292 50 vstem
          307 827 rmoveto
          -5 7 -5 2 -10 0 rrcurveto
          -21 hlineto
          -10 0 -5 -2 -5 -7 rrcurveto
          -64 -109 rlineto
          -4 -6 2 -5 7 0 rrcurveto
          24 hlineto
          6 0 4 1 2 5 rrcurveto
          53 97 54 -97 rlineto
          2 -5 4 -1 6 0 rrcurveto
          24 hlineto
          8 0 1 5 -4 6 rrcurveto
          62 -75 rmoveto
          -79 callsubr
          endchar
        </CharString>
        <CharString name="Udieresis">
          55 0 45 662 129 hstem
          80 50 40 49 114 49 40 50 vstem
          170 719 rmoveto
          -40 callsubr
          163 -106 rmoveto
          -48 callsubr
          100 -182 rmoveto
          -79 callsubr
          endchar
        </CharString>
        <CharString name="Ugrave">
          55 0 45 hstem
          80 50 292 50 vstem
          238 825 rmoveto
          -75 callsubr
          132 -76 rmoveto
          -79 callsubr
          endchar
        </CharString>
        <CharString name="Uhungarumlaut">
          55 0 45 hstem
          80 50 292 50 vstem
          273 836 rmoveto
          -9 0 -5 -2 -5 -9 rrcurveto
          -61 -106 rlineto
          -4 -8 2 -4 6 0 rrcurveto
          16 hlineto
          6 0 6 3 4 6 rrcurveto
          80 109 rlineto
          5 7 -4 4 -6 0 rrcurveto
          92 hmoveto
          8 callsubr
          6 -193 rmoveto
          -79 callsubr
          endchar
        </CharString>
        <CharString name="Umacron">
          55 0 45 707 40 hstem
          80 50 292 50 vstem
          377 752 rmoveto
          -7 callsubr
          258 -109 rmoveto
          -79 callsubr
          endchar
        </CharString>
        <CharString name="Uogonek">
          55 -106 36 70 45 hstem
          80 50 292 50 vstem
          433 643 rmoveto
          -7 -4 -3 -9 hvcurveto
          -487 vlineto
          -63 -33 -36 -62 vhcurveto
          -103 hlineto
          -61 -33 36 63 hvcurveto
          487 vlineto
          9 -4 3 -7 vhcurveto
          -29 hlineto
          -6 -4 -3 -9 hvcurveto
          -489 vlineto
          -88 54 -54 86 vhcurveto
          58 0 -50 -66 rlineto
          -15 -20 7 -20 33 0 rrcurveto
          39 35 10 13 10 -5 3 -23 hvcurveto
          -39 0 53 70 19 0 rlineto
          86 54 54 88 hvcurveto
          490 vlineto
          8 -3 3 -8 vhcurveto
          endchar
        </CharString>
        <CharString name="Uring">
          55 0 45 650 27 122 28 hstem
          80 50 64 30 103 31 64 50 vstem
          285 695 rmoveto
          46 27 26 47 hvcurveto
          31 vlineto
          47 -27 26 -46 vhcurveto
          -20 hlineto
          -46 -25 -26 -47 hvcurveto
          -31 vlineto
          -47 25 -26 46 vhcurveto
          4 27 rmoveto
          -31 -14 17 34 hvcurveto
          21 vlineto
          33 14 17 32 vhcurveto
          11 hlineto
          32 14 -17 -33 hvcurveto
          -21 vlineto
          -34 -14 -17 -32 vhcurveto
          152 -79 rmoveto
          -79 callsubr
          endchar
        </CharString>
</ttFont>
